<?xml version="1.0" encoding="UTF-8"?>
<svg id="Layer_2" data-name="Layer 2" xmlns="http://www.w3.org/2000/svg" xmlns:xlink="http://www.w3.org/1999/xlink" viewBox="0 0 705.01 228.25">
  <defs>
    <style>
      .cls-1 {
        stroke-miterlimit: 12.65;
        stroke-width: 2.8px;
      }

      .cls-1, .cls-2, .cls-3, .cls-4, .cls-5 {
        fill: none;
      }

      .cls-1, .cls-4, .cls-5 {
        stroke: #000;
      }

      .cls-6 {
        clip-path: url(#clippath-2);
      }

      .cls-2 {
        stroke-width: 0px;
      }

      .cls-7 {
        clip-path: url(#clippath-1);
      }

      .cls-3 {
        stroke: #0cc0df;
      }

      .cls-3, .cls-5 {
        stroke-miterlimit: 12.65;
        stroke-width: 2.8px;
      }

      .cls-8 {
        clip-path: url(#clippath);
      }

      .cls-9 {
        clip-path: url(#clippath-3);
      }

      .cls-4 {
        stroke-miterlimit: 12.65;
        stroke-width: 2.8px;
      }
    </style>
    <clipPath id="clippath">
      <rect class="cls-2" width="96.54" height="44.82"/>
    </clipPath>
    <clipPath id="clippath-1">
      <rect class="cls-2" x="608.47" width="96.54" height="44.82"/>
    </clipPath>
    <clipPath id="clippath-2">
      <rect class="cls-2" x="608.47" y="182.83" width="96.54" height="45.42"/>
    </clipPath>
    <clipPath id="clippath-3">
      <rect class="cls-2" y="182.83" width="96.54" height="45.42"/>
    </clipPath>
  </defs>
  <g id="Layer_1-2" data-name="Layer 1">
    <g>
      <path class="cls-3" d="M80.15,6.52v54.44"/>
      <path class="cls-3" d="M623.91,6.52v54.44"/>
      <path class="cls-3" d="M546.23,6.52v54.44"/>
      <path class="cls-3" d="M468.55,6.52v54.44"/>
      <path class="cls-3" d="M390.87,6.52v54.44"/>
      <path class="cls-3" d="M313.19,6.52v54.44"/>
      <path class="cls-3" d="M235.51,6.52v54.44"/>
      <path class="cls-3" d="M157.83,6.52v54.44"/>
      <path class="cls-5" d="M80.16,6.52h545.16"/>
      <g class="cls-8">
        <path class="cls-4" d="M4.44,28.77C27.71,14.6,52.95,7.18,80.18,6.52"/>
      </g>
      <g class="cls-7">
        <path class="cls-1" d="M625.33,6.53c27.77.64,53.6,8.06,77.48,22.25"/>
      </g>
      <path class="cls-3" d="M624.82,221.17v-54.44"/>
      <path class="cls-3" d="M81.06,221.17v-54.44"/>
      <path class="cls-3" d="M158.74,221.17v-54.44"/>
      <path class="cls-3" d="M236.42,221.17v-54.44"/>
      <path class="cls-3" d="M314.1,221.17v-54.44"/>
      <path class="cls-3" d="M391.78,221.17v-54.44"/>
      <path class="cls-3" d="M469.46,221.17v-54.44"/>
      <path class="cls-3" d="M547.14,221.17v-54.44"/>
      <path class="cls-5" d="M624.81,221.19H79.65"/>
      <g class="cls-6">
        <path class="cls-4" d="M700.56,198.92c-23.26,14.18-48.51,21.6-75.74,22.25"/>
      </g>
      <g class="cls-9">
        <path class="cls-1" d="M79.68,221.16c-27.77-.64-53.6-8.06-77.48-22.25"/>
      </g>
    </g>
  </g>
</svg>