<?xml version="1.0" encoding="UTF-8" standalone="no"?>
<!-- Uploaded to: SVG Repo, www.svgrepo.com, Transformed by: SVG Repo Mixer Tools -->

<svg
   width="800px"
   height="800px"
   viewBox="0 0 24 24"
   fill="none"
   stroke="#c2c2c2"
   version="1.1"
   id="svg1"
   sodipodi:docname="new_file_icon.svg"
   inkscape:version="1.3.2 (091e20e, 2023-11-25, custom)"
   xmlns:inkscape="http://www.inkscape.org/namespaces/inkscape"
   xmlns:sodipodi="http://sodipodi.sourceforge.net/DTD/sodipodi-0.dtd"
   xmlns="http://www.w3.org/2000/svg"
   xmlns:svg="http://www.w3.org/2000/svg">
  <defs
     id="defs1" />
  <sodipodi:namedview
     id="namedview1"
     pagecolor="#505050"
     bordercolor="#eeeeee"
     borderopacity="1"
     inkscape:showpageshadow="0"
     inkscape:pageopacity="0"
     inkscape:pagecheckerboard="0"
     inkscape:deskcolor="#505050"
     inkscape:zoom="0.97"
     inkscape:cx="399.48454"
     inkscape:cy="400"
     inkscape:window-width="1920"
     inkscape:window-height="991"
     inkscape:window-x="-9"
     inkscape:window-y="-9"
     inkscape:window-maximized="1"
     inkscape:current-layer="svg1" />
  <g
     id="SVGRepo_bgCarrier"
     stroke-width="0" />
  <g
     id="SVGRepo_tracerCarrier"
     stroke-linecap="round"
     stroke-linejoin="round" />
  <g
     id="SVGRepo_iconCarrier"
     transform="matrix(1.2579387,0,0,1.2579387,-3.0952642,-3.0952644)"
     style="stroke:#c2c2c2;stroke-width:1.07753;stroke-dasharray:none;stroke-opacity:1">
    <path
       d="m 19,9 v 8.8 c 0,1.1201 0,1.6802 -0.218,2.108 -0.1917,0.3763 -0.4977,0.6823 -0.874,0.874 C 17.4802,21 16.9201,21 15.8,21 H 8.2 C 7.07989,21 6.51984,21 6.09202,20.782 5.71569,20.5903 5.40973,20.2843 5.21799,19.908 5,19.4802 5,18.9201 5,17.8 V 6.2 C 5,5.07989 5,4.51984 5.21799,4.09202 5.40973,3.71569 5.71569,3.40973 6.09202,3.21799 6.51984,3 7.0799,3 8.2,3 H 13 m 6,6 -6,-6 m 6,6 H 14 C 13.4477,9 13,8.55228 13,8 V 3"
       stroke="#c2c2c2"
       stroke-width="2"
       stroke-linecap="round"
       stroke-linejoin="round"
       id="path1"
       style="stroke:#c2c2c2;stroke-width:1.07753;stroke-dasharray:none;stroke-opacity:1" />
  </g>
</svg>
