<?xml version="1.0" encoding="UTF-8" standalone="no"?>
<!-- Uploaded to: SVG Repo, www.svgrepo.com, Transformed by: SVG Repo Mixer Tools -->

<svg
   fill="#c2c2c2"
   version="1.1"
   id="Capa_1"
   width="800px"
   height="800px"
   viewBox="0 0 45.58 45.58"
   xml:space="preserve"
   stroke="#c2c2c2"
   stroke-width="0.0004558"
   sodipodi:docname="redo_icon.svg"
   inkscape:version="1.3.2 (091e20e, 2023-11-25, custom)"
   xmlns:inkscape="http://www.inkscape.org/namespaces/inkscape"
   xmlns:sodipodi="http://sodipodi.sourceforge.net/DTD/sodipodi-0.dtd"
   xmlns="http://www.w3.org/2000/svg"
   xmlns:svg="http://www.w3.org/2000/svg"><defs
   id="defs1" /><sodipodi:namedview
   id="namedview1"
   pagecolor="#505050"
   bordercolor="#eeeeee"
   borderopacity="1"
   inkscape:showpageshadow="0"
   inkscape:pageopacity="0"
   inkscape:pagecheckerboard="0"
   inkscape:deskcolor="#505050"
   inkscape:zoom="0.97"
   inkscape:cx="399.48454"
   inkscape:cy="400"
   inkscape:window-width="1920"
   inkscape:window-height="991"
   inkscape:window-x="-9"
   inkscape:window-y="-9"
   inkscape:window-maximized="1"
   inkscape:current-layer="Capa_1" />

<g
   id="SVGRepo_bgCarrier"
   stroke-width="0" />

<g
   id="SVGRepo_tracerCarrier"
   stroke-linecap="round"
   stroke-linejoin="round" />

<g
   id="SVGRepo_iconCarrier"
   transform="matrix(-1,0,0,1,45.579968,0)"> <g
   id="g1"> <path
   d="M 45.506,33.532 C 43.765,26.112 38.345,15.774 21.952,13.59 V 7.047 C 21.952,5.683 21.126,4.454 19.865,3.934 18.604,3.413 17.153,3.705 16.19,4.671 L 1.305,19.63 c -1.739,1.748 -1.74,4.572 -10e-4,6.32 L 16.19,40.909 c 0.961,0.966 2.415,1.258 3.676,0.737 1.261,-0.521 2.087,-1.75 2.087,-3.113 v -6.331 c 5.593,0.007 13.656,0.743 19.392,4.313 0.953,0.594 2.168,0.555 3.08,-0.101 0.91,-0.652 1.338,-1.79 1.081,-2.882 z"
   id="path1" /> </g> </g>

</svg>
