<?xml version="1.0" encoding="UTF-8" standalone="no"?>
<!-- Uploaded to: SVG Repo, www.svgrepo.com, Transformed by: SVG Repo Mixer Tools -->

<svg
   width="800px"
   height="800px"
   viewBox="0 0 24 24"
   fill="none"
   stroke="#c2c2c2"
   stroke-width="0.00024000000000000003"
   version="1.1"
   id="svg3"
   sodipodi:docname="save_file_icon.svg"
   inkscape:version="1.3.2 (091e20e, 2023-11-25, custom)"
   xmlns:inkscape="http://www.inkscape.org/namespaces/inkscape"
   xmlns:sodipodi="http://sodipodi.sourceforge.net/DTD/sodipodi-0.dtd"
   xmlns="http://www.w3.org/2000/svg"
   xmlns:svg="http://www.w3.org/2000/svg">
  <defs
     id="defs3" />
  <sodipodi:namedview
     id="namedview3"
     pagecolor="#505050"
     bordercolor="#eeeeee"
     borderopacity="1"
     inkscape:showpageshadow="0"
     inkscape:pageopacity="0"
     inkscape:pagecheckerboard="0"
     inkscape:deskcolor="#505050"
     inkscape:zoom="0.97"
     inkscape:cx="399.48454"
     inkscape:cy="400"
     inkscape:window-width="1920"
     inkscape:window-height="991"
     inkscape:window-x="-9"
     inkscape:window-y="-9"
     inkscape:window-maximized="1"
     inkscape:current-layer="svg3" />
  <g
     id="SVGRepo_bgCarrier"
     stroke-width="0" />
  <g
     id="SVGRepo_tracerCarrier"
     stroke-linecap="round"
     stroke-linejoin="round" />
  <g
     id="SVGRepo_iconCarrier"
     transform="matrix(1.3714098,0,0,1.3714098,-4.4569172,-4.4569172)"
     style="stroke-width:0;stroke-dasharray:none;stroke:#c2c2c2;stroke-opacity:1">
    <path
       d="M 17,20.75 H 7 C 6.27065,20.75 5.57118,20.4603 5.05546,19.9445 4.53973,19.4288 4.25,18.7293 4.25,18 V 6 C 4.25,5.27065 4.53973,4.57118 5.05546,4.05546 5.57118,3.53973 6.27065,3.25 7,3.25 h 7.5 c 0.1988,1.8e-4 0.3895,0.07931 0.53,0.22 L 19.53,8 c 0.1407,0.14052 0.2198,0.33115 0.22,0.53 V 18 c 0,0.7293 -0.2897,1.4288 -0.8055,1.9445 C 18.4288,20.4603 17.7293,20.75 17,20.75 Z M 7,4.75 C 6.66848,4.75 6.35054,4.8817 6.11612,5.11612 5.8817,5.35054 5.75,5.66848 5.75,6 v 12 c 0,0.3315 0.1317,0.6495 0.36612,0.8839 C 6.35054,19.1183 6.66848,19.25 7,19.25 h 10 c 0.3315,0 0.6495,-0.1317 0.8839,-0.3661 C 18.1183,18.6495 18.25,18.3315 18.25,18 V 8.81 L 14.19,4.75 Z"
       fill="#c2c2c2"
       id="path1"
       style="stroke-width:0;stroke-dasharray:none;stroke:#c2c2c2;stroke-opacity:1" />
    <path
       d="m 16.75,20 h -1.5 V 13.75 H 8.75 V 20 h -1.5 v -6.5 c 0,-0.3315 0.1317,-0.6495 0.36612,-0.8839 C 7.85054,12.3817 8.16848,12.25 8.5,12.25 h 7 c 0.3315,0 0.6495,0.1317 0.8839,0.3661 0.2344,0.2344 0.3661,0.5524 0.3661,0.8839 z"
       fill="#c2c2c2"
       id="path2"
       style="stroke-width:0;stroke-dasharray:none;stroke:#c2c2c2;stroke-opacity:1" />
    <path
       d="M 12.47,8.75 H 8.53001 C 8.3606,8.74869 8.19311,8.71403 8.0371,8.64799 7.88109,8.58195 7.73962,8.48582 7.62076,8.36511 7.5019,8.24439 7.40798,8.10144 7.34437,7.94443 7.28075,7.78741 7.24869,7.61941 7.25001,7.45 V 4 h 1.5 V 7.25 H 12.25 V 4 h 1.5 V 7.45 C 13.7513,7.61941 13.7193,7.78741 13.6557,7.94443 13.592,8.10144 13.4981,8.24439 13.3793,8.36511 13.2604,8.48582 13.1189,8.58195 12.9629,8.64799 12.8069,8.71403 12.6394,8.74869 12.47,8.75 Z"
       fill="#c2c2c2"
       id="path3"
       style="stroke-width:0;stroke-dasharray:none;stroke:#c2c2c2;stroke-opacity:1" />
  </g>
</svg>
