<?xml version="1.0" encoding="UTF-8"?>
<!-- Generator: visioncortex VTracer 0.6.2 -->
<svg version="1.1" xmlns="http://www.w3.org/2000/svg" width="638" height="638">
<path d="M0 0 C1.744 -0.001 3.488 -0.004 5.231 -0.008 C9.968 -0.014 14.705 -0.003 19.441 0.013 C24.57 0.026 29.698 0.021 34.827 0.019 C43.694 0.017 52.561 0.027 61.429 0.044 C74.249 0.068 87.069 0.076 99.89 0.08 C120.694 0.086 141.498 0.106 162.303 0.134 C182.502 0.162 202.702 0.183 222.901 0.196 C224.148 0.197 225.395 0.198 226.679 0.198 C232.935 0.202 239.19 0.206 245.446 0.21 C297.273 0.241 349.101 0.294 400.929 0.361 C401.02 52.914 401.091 105.467 401.133 158.021 C401.138 164.236 401.143 170.452 401.148 176.667 C401.15 178.523 401.15 178.523 401.151 180.416 C401.169 200.406 401.2 220.396 401.237 240.386 C401.275 260.923 401.297 281.46 401.305 301.997 C401.31 314.652 401.328 327.307 401.36 339.963 C401.381 348.661 401.388 357.358 401.383 366.056 C401.38 371.062 401.384 376.068 401.405 381.073 C401.631 435.918 390.115 487.418 350.472 527.787 C348.879 529.411 347.31 531.055 345.741 532.701 C325.225 553.987 298.938 569.222 270.929 578.361 C270.19 578.603 269.452 578.845 268.691 579.095 C243.939 587.034 218.91 586.792 193.205 586.709 C188.116 586.696 183.027 586.7 177.938 586.703 C169.146 586.704 160.353 586.695 151.561 586.678 C138.849 586.653 126.137 586.646 113.425 586.642 C92.795 586.635 72.165 586.616 51.535 586.587 C31.508 586.559 11.481 586.538 -8.546 586.526 C-10.401 586.524 -10.401 586.524 -12.293 586.523 C-18.499 586.519 -24.704 586.515 -30.91 586.512 C-82.297 586.481 -133.684 586.428 -185.071 586.361 C-185.163 533.357 -185.234 480.354 -185.276 427.35 C-185.281 421.084 -185.286 414.819 -185.291 408.553 C-185.292 407.306 -185.293 406.059 -185.294 404.773 C-185.312 384.61 -185.343 364.446 -185.38 344.282 C-185.418 323.573 -185.44 302.864 -185.448 282.156 C-185.453 269.39 -185.471 256.624 -185.503 243.858 C-185.524 235.089 -185.531 226.321 -185.525 217.553 C-185.523 212.503 -185.527 207.453 -185.548 202.404 C-185.705 163.9 -185.705 163.9 -181.071 145.361 C-180.687 143.676 -180.305 141.991 -179.926 140.306 C-173.129 110.087 -156.236 80.952 -134.614 58.934 C-133.022 57.311 -131.453 55.667 -129.884 54.021 C-96.33 19.207 -48.122 -0.274 0 0 Z M-90.071 156.361 C-90.071 231.271 -90.071 306.181 -90.071 383.361 C-78.191 383.361 -66.311 383.361 -54.071 383.361 C-53.741 330.561 -53.411 277.761 -53.071 223.361 C-40.869 258.342 -28.747 293.332 -16.846 328.414 C-10.627 346.743 -4.361 365.056 1.929 383.361 C14.139 383.361 26.349 383.361 38.929 383.361 C40.692 378.256 40.692 378.256 42.491 373.048 C46.824 360.52 51.187 348.002 55.554 335.486 C55.866 334.589 56.179 333.692 56.502 332.768 C58.342 327.493 60.184 322.219 62.026 316.946 C62.921 314.383 63.814 311.819 64.708 309.256 C68.368 298.761 72.096 288.291 75.87 277.836 C82.4 259.74 88.845 241.613 94.929 223.361 C95.259 276.161 95.589 328.961 95.929 383.361 C107.809 383.361 119.689 383.361 131.929 383.361 C131.929 308.451 131.929 233.541 131.929 156.361 C115.429 156.361 98.929 156.361 81.929 156.361 C77.368 168.467 77.368 168.467 72.964 180.622 C72.725 181.297 72.486 181.972 72.24 182.667 C71.489 184.794 70.74 186.921 69.991 189.048 C69.73 189.79 69.468 190.531 69.199 191.295 C65.901 200.648 62.672 210.018 59.581 219.442 C56.579 228.537 53.337 237.549 50.098 246.563 C47.5 253.823 44.997 261.107 42.573 268.427 C38.875 279.594 35.008 290.698 31.116 301.798 C30.113 304.662 29.111 307.527 28.109 310.391 C27.494 312.149 26.879 313.906 26.263 315.664 C24.784 319.885 23.329 324.112 21.929 328.361 C19.877 323.684 18.034 319.001 16.347 314.177 C16.1 313.474 15.854 312.772 15.6 312.047 C14.769 309.674 13.943 307.299 13.116 304.923 C12.512 303.193 11.908 301.462 11.303 299.731 C4.994 281.635 -1.218 263.506 -7.44 245.38 C-13.446 227.881 -19.471 210.39 -25.571 192.923 C-25.867 192.077 -26.162 191.231 -26.467 190.359 C-28.071 185.768 -29.679 181.178 -31.291 176.59 C-32.121 174.219 -32.946 171.846 -33.771 169.474 C-34.319 167.903 -34.867 166.333 -35.415 164.763 C-35.668 164.032 -35.921 163.301 -36.181 162.547 C-37.168 159.193 -37.168 159.193 -39.071 156.361 C-55.901 156.361 -72.731 156.361 -90.071 156.361 Z M208.929 231.361 C208.269 227.401 207.609 223.441 206.929 219.361 C196.039 219.361 185.149 219.361 173.929 219.361 C173.929 294.271 173.929 369.181 173.929 446.361 C185.809 446.361 197.689 446.361 209.929 446.361 C209.929 423.591 209.929 400.821 209.929 377.361 C214.219 379.341 218.509 381.321 222.929 383.361 C240.648 389.478 260.941 389.58 278.167 381.746 C294.694 373.694 305.459 360.496 311.929 343.361 C312.921 340.381 313.821 337.382 314.679 334.361 C314.877 333.662 315.076 332.963 315.281 332.243 C318.309 320.904 319.269 309.694 319.179 297.986 C319.171 296.709 319.164 295.433 319.156 294.118 C318.885 270.431 314.089 246.89 296.929 229.361 C294.078 227.029 291.145 225.146 287.929 223.361 C286.995 222.796 286.995 222.796 286.042 222.22 C261.079 208.195 231.442 217.852 208.929 231.361 Z " fill="#2D1A01" transform="translate(211.07144165039063,25.639236450195313)"/>
<path d="M0 0 C1.82 -0.001 3.64 -0.003 5.459 -0.005 C10.397 -0.01 15.334 -0.002 20.271 0.008 C25.619 0.017 30.967 0.014 36.315 0.013 C45.56 0.012 54.805 0.018 64.05 0.029 C77.416 0.045 90.782 0.051 104.148 0.053 C125.839 0.057 147.53 0.071 169.22 0.09 C190.279 0.108 211.338 0.122 232.397 0.131 C233.697 0.131 234.997 0.132 236.336 0.132 C242.859 0.135 249.382 0.137 255.904 0.14 C309.938 0.161 363.971 0.196 418.005 0.241 C418.073 55.469 418.126 110.698 418.158 165.926 C418.162 172.457 418.166 178.988 418.169 185.519 C418.17 186.819 418.171 188.119 418.172 189.458 C418.185 210.467 418.209 231.475 418.236 252.483 C418.264 274.065 418.281 295.646 418.287 317.227 C418.291 330.527 418.304 343.827 418.328 357.127 C418.344 366.267 418.349 375.406 418.345 384.546 C418.343 389.807 418.346 395.067 418.362 400.328 C418.567 470.37 402.216 529.388 352.005 580.241 C324.183 607.763 286.744 625.966 248.755 634.116 C247.871 634.307 246.987 634.498 246.076 634.695 C230.218 637.84 214.13 638.54 198.009 638.481 C196.19 638.482 194.37 638.484 192.55 638.486 C187.613 638.491 182.675 638.483 177.738 638.473 C172.39 638.464 167.042 638.467 161.694 638.468 C152.449 638.469 143.204 638.463 133.959 638.452 C120.593 638.436 107.227 638.43 93.861 638.428 C72.17 638.424 50.48 638.41 28.789 638.391 C7.73 638.373 -13.328 638.359 -34.387 638.35 C-35.687 638.35 -36.988 638.349 -38.327 638.349 C-44.85 638.346 -51.372 638.344 -57.895 638.341 C-111.928 638.32 -165.962 638.285 -219.995 638.241 C-220.064 583.012 -220.117 527.783 -220.148 472.555 C-220.152 466.024 -220.156 459.493 -220.16 452.962 C-220.161 451.662 -220.162 450.362 -220.162 449.023 C-220.176 428.014 -220.199 407.006 -220.227 385.998 C-220.255 364.416 -220.271 342.835 -220.278 321.254 C-220.282 307.954 -220.295 294.654 -220.319 281.354 C-220.335 272.214 -220.34 263.075 -220.336 253.935 C-220.334 248.674 -220.337 243.414 -220.353 238.153 C-220.558 168.112 -204.207 109.093 -153.995 58.241 C-126.174 30.718 -88.734 12.515 -50.745 4.366 C-49.861 4.174 -48.977 3.983 -48.066 3.786 C-32.208 0.641 -16.121 -0.059 0 0 Z M-48.995 30.241 C-50.68 30.625 -52.365 31.007 -54.05 31.386 C-84.269 38.183 -113.404 55.076 -135.422 76.698 C-137.045 78.29 -138.689 79.859 -140.335 81.428 C-171.444 111.411 -193.074 156.326 -194.334 199.817 C-194.388 203.649 -194.378 207.479 -194.356 211.312 C-194.357 213.056 -194.36 214.8 -194.364 216.543 C-194.37 221.28 -194.359 226.017 -194.343 230.753 C-194.33 235.882 -194.335 241.01 -194.337 246.139 C-194.339 255.006 -194.329 263.873 -194.312 272.741 C-194.288 285.561 -194.28 298.381 -194.277 311.202 C-194.27 332.006 -194.25 352.81 -194.222 373.615 C-194.194 393.814 -194.173 414.014 -194.16 434.213 C-194.159 435.46 -194.159 436.707 -194.158 437.991 C-194.154 444.247 -194.15 450.502 -194.146 456.758 C-194.115 508.585 -194.062 560.413 -193.995 612.241 C-141.442 612.332 -88.889 612.403 -36.335 612.445 C-30.12 612.45 -23.904 612.455 -17.689 612.46 C-16.452 612.461 -15.215 612.462 -13.94 612.463 C6.05 612.481 26.04 612.512 46.03 612.549 C66.567 612.587 87.104 612.609 107.641 612.617 C120.296 612.622 132.951 612.64 145.607 612.672 C154.304 612.693 163.002 612.7 171.7 612.695 C176.706 612.692 181.712 612.696 186.717 612.717 C241.562 612.943 293.062 601.426 333.431 561.783 C335.055 560.191 336.699 558.622 338.345 557.053 C359.631 536.537 374.866 510.25 384.005 482.241 C384.247 481.502 384.489 480.764 384.739 480.003 C392.677 455.251 392.436 430.222 392.353 404.517 C392.34 399.428 392.344 394.339 392.347 389.25 C392.348 380.458 392.339 371.665 392.322 362.873 C392.297 350.161 392.29 337.449 392.286 324.737 C392.279 304.107 392.259 283.477 392.231 262.846 C392.203 242.82 392.182 222.793 392.169 202.766 C392.168 200.911 392.168 200.911 392.167 199.018 C392.163 192.813 392.159 186.608 392.156 180.402 C392.125 129.015 392.072 77.628 392.005 26.241 C339.001 26.149 285.997 26.078 232.994 26.036 C226.728 26.031 220.463 26.026 214.197 26.021 C212.95 26.02 211.702 26.019 210.417 26.018 C190.253 26 170.09 25.969 149.926 25.932 C129.217 25.894 108.508 25.872 87.799 25.864 C75.034 25.859 62.268 25.841 49.502 25.809 C40.733 25.788 31.965 25.781 23.197 25.787 C18.147 25.789 13.097 25.785 8.048 25.764 C-20.699 25.598 -20.699 25.598 -48.995 30.241 Z " fill="#FB6900" transform="translate(219.99530029296875,-0.240509033203125)"/>
<path d="M0 0 C16.83 0 33.66 0 51 0 C54.05 7.32 56.965 14.453 59.461 21.941 C59.768 22.851 60.075 23.76 60.392 24.696 C61.049 26.641 61.704 28.586 62.357 30.532 C64.118 35.773 65.893 41.01 67.668 46.246 C68.03 47.315 68.392 48.383 68.764 49.484 C72.347 60.051 76.005 70.592 79.688 81.125 C79.996 82.007 80.304 82.89 80.622 83.799 C83.892 93.156 87.177 102.508 90.477 111.855 C91.316 114.234 92.155 116.612 92.994 118.991 C93.535 120.526 94.077 122.061 94.619 123.595 C97.465 131.663 100.27 139.742 102.961 147.863 C103.195 148.568 103.428 149.274 103.669 150 C104.765 153.315 105.853 156.633 106.931 159.954 C107.497 161.682 107.497 161.682 108.074 163.445 C108.4 164.451 108.726 165.457 109.061 166.493 C109.963 169.192 109.963 169.192 112 172 C112.185 171.453 112.37 170.907 112.56 170.344 C114.521 164.549 116.485 158.756 118.451 152.963 C119.18 150.814 119.909 148.664 120.636 146.514 C124.51 135.062 128.446 123.647 132.666 112.318 C134.852 106.442 136.88 100.527 138.812 94.562 C141.697 85.782 144.737 77.068 147.875 68.375 C151.436 58.503 154.838 48.591 158.125 38.625 C168.687 6.625 168.687 6.625 172 0 C188.5 0 205 0 222 0 C222 74.91 222 149.82 222 227 C210.12 227 198.24 227 186 227 C185.67 174.2 185.34 121.4 185 67 C182.03 75.58 179.06 84.16 176 93 C173.691 99.514 171.381 106.027 169.055 112.535 C163.768 127.331 158.535 142.142 153.446 157.007 C150.3 166.177 147.045 175.306 143.768 184.43 C138.703 198.567 133.749 212.753 129 227 C116.79 227 104.58 227 92 227 C90.151 221.528 90.151 221.528 88.266 215.945 C86.595 211.005 84.923 206.065 83.25 201.125 C83.034 200.486 82.817 199.847 82.594 199.188 C77.235 183.365 71.85 167.553 66.25 151.812 C63.038 142.782 59.866 133.746 56.869 124.641 C53.878 115.573 50.793 106.537 47.71 97.5 C47.075 95.641 46.442 93.782 45.808 91.923 C44.91 89.285 44.01 86.648 43.109 84.012 C42.841 83.223 42.572 82.434 42.296 81.621 C42.038 80.868 41.78 80.115 41.515 79.339 C41.294 78.691 41.073 78.044 40.845 77.377 C39.609 73.901 38.295 70.454 37 67 C36.67 119.8 36.34 172.6 36 227 C24.12 227 12.24 227 0 227 C0 152.09 0 77.18 0 0 Z " fill="#FD6A00" transform="translate(121,182)"/>
<path d="M0 0 C14.806 13.632 21.161 34.934 22.375 54.438 C23.556 83.691 21.671 115.803 1.125 138.812 C-3.827 144.097 -9.25 148.03 -15.625 151.438 C-16.696 152.033 -16.696 152.033 -17.789 152.641 C-32.6 160.074 -51.809 160.387 -67.625 156.438 C-74.164 154.262 -80.465 151.518 -86.625 148.438 C-86.625 171.207 -86.625 193.977 -86.625 217.438 C-98.505 217.438 -110.385 217.438 -122.625 217.438 C-122.625 142.528 -122.625 67.618 -122.625 -9.562 C-111.735 -9.562 -100.845 -9.562 -89.625 -9.562 C-88.965 -5.602 -88.305 -1.643 -87.625 2.438 C-86.283 1.641 -86.283 1.641 -84.914 0.828 C-58.402 -14.744 -26.109 -19.85 0 0 Z M-80.625 32.438 C-81.485 32.983 -82.344 33.528 -83.23 34.089 C-85.874 36.682 -86.236 38.036 -86.358 41.68 C-86.356 42.366 -86.354 43.051 -86.351 43.757 C-86.368 44.488 -86.385 45.218 -86.402 45.971 C-86.45 48.383 -86.459 50.794 -86.465 53.207 C-86.481 54.888 -86.498 56.57 -86.515 58.251 C-86.545 61.776 -86.554 65.3 -86.552 68.825 C-86.551 73.333 -86.619 77.836 -86.705 82.342 C-86.761 85.816 -86.771 89.289 -86.768 92.763 C-86.774 94.424 -86.796 96.085 -86.835 97.745 C-87.288 106.984 -87.288 106.984 -83.45 114.993 C-80.901 116.817 -78.491 118.182 -75.625 119.438 C-74.654 119.912 -74.654 119.912 -73.662 120.396 C-72.063 121.126 -70.407 121.725 -68.75 122.312 C-67.145 122.896 -67.145 122.896 -65.508 123.492 C-55.609 126.738 -45.277 126.516 -35.625 122.438 C-26.86 117.718 -22.58 110.697 -19.625 101.438 C-13.549 80.66 -11.597 53.23 -21.312 33.375 C-25.484 26.42 -30.822 22.538 -38.625 20.438 C-54.649 18.878 -67.539 22.927 -80.625 32.438 Z " fill="#FE6A00" transform="translate(507.625,254.5625)"/>
<path d="M0 0 C0.887 0.516 1.774 1.031 2.688 1.562 C15.082 14.627 14.538 32.967 14.223 49.789 C13.752 65.489 11.771 81.658 0.527 93.559 C-6.986 100.31 -15.862 101.368 -25.523 101.281 C-35.864 100.445 -48.537 95.355 -56 88 C-56.682 84.694 -56.682 84.694 -56.758 80.712 C-56.778 79.985 -56.798 79.257 -56.819 78.508 C-56.876 76.105 -56.896 73.704 -56.91 71.301 C-56.931 69.624 -56.953 67.947 -56.975 66.271 C-57.014 62.754 -57.031 59.239 -57.036 55.722 C-57.047 51.232 -57.136 46.748 -57.245 42.259 C-57.316 38.794 -57.332 35.33 -57.333 31.864 C-57.343 30.21 -57.372 28.557 -57.422 26.904 C-57.777 14.035 -57.777 14.035 -53.381 9.001 C-50.47 6.608 -47.334 4.757 -44 3 C-42.901 2.398 -42.901 2.398 -41.78 1.784 C-40.066 0.924 -38.284 0.204 -36.5 -0.5 C-35.355 -0.964 -34.211 -1.428 -33.031 -1.906 C-22.752 -5.615 -9.414 -6.112 0 0 Z " fill="#2E1A01" transform="translate(478,279)"/>
</svg>
