<?xml version="1.0" encoding="utf-8" ?>
<svg xmlns="http://www.w3.org/2000/svg" xmlns:ev="http://www.w3.org/2001/xml-events" xmlns:xlink="http://www.w3.org/1999/xlink" baseProfile="full" height="300px" version="1.1" viewBox="0 0 210 300" width="210px">
  <defs/>
  <g id="xffffff_r255_g255_b255_a0.23529411764705882">
    <path d="M 189,8 189,9 194,9 194,10 196,10 196,11 197,11 197,12 198,12 198,13 199,13 199,15 200,15 200,18 201,18 201,28 201,282 200,282 200,285 199,285 199,287 198,287 198,288 197,288 197,289 196,289 196,290 194,290 194,291 189,291 189,292 20,292 20,291 15,291 15,290 14,290 14,289 12,289 12,288 11,288 11,287 10,287 10,285 9,285 9,280 8,280 8,19 9,19 9,15 10,15 10,13 11,13 11,12 12,12 12,11 14,11 14,10 16,10 16,9 20,9 20,8 z M 177,61 176,61 176,60 175,60 175,59 174,59 174,58 173,58 173,57 158,57 36,57 36,58 35,58 35,59 34,59 34,60 33,60 33,61 32,61 32,238 33,238 33,240 34,240 34,241 35,241 35,242 36,242 36,243 40,243 40,244 169,244 169,243 173,243 173,242 174,242 174,241 175,241 175,240 176,240 176,239 177,239 177,177 z" fill="#ffffff" fill-opacity="0.23529411764705882" id="xffffff_r255_g255_b255_a0.23529411764705882_shape1"/>
  </g>
  <g id="xffffff_r255_g255_b255_a0.36470588235294116">
    <path d="M 170,64 170,231 40,231 40,64 z" fill="#ffffff" fill-opacity="0.36470588235294116" id="xffffff_r255_g255_b255_a0.36470588235294116_shape1"/>
  </g>
  <g id="x545454_r84_g84_b84_a1.0">
    <path d="M 0,17 1,17 1,13 2,13 2,11 3,11 3,9 4,9 4,8 5,8 5,7 6,7 6,6 7,6 7,5 8,5 8,4 9,4 9,3 11,3 11,2 13,2 13,1 17,1 17,0 192,0 192,1 196,1 196,2 198,2 198,3 200,3 200,4 201,4 201,5 203,5 203,6 204,6 204,8 205,8 205,9 206,9 206,11 207,11 207,13 208,13 208,17 209,17 209,122 209,283 208,283 208,287 207,287 207,289 206,289 206,291 205,291 205,292 204,292 204,294 203,294 203,295 201,295 201,296 200,296 200,297 198,297 198,298 196,298 196,299 192,299 192,300 17,300 17,299 13,299 13,298 11,298 11,297 9,297 9,296 8,296 8,295 7,295 7,294 6,294 6,293 5,293 5,292 4,292 4,291 3,291 3,289 2,289 2,287 1,287 1,283 0,283 z M 16,8 16,9 14,9 14,10 12,10 12,11 11,11 11,12 10,12 10,14 9,14 9,16 8,16 8,284 9,284 9,286 10,286 10,288 11,288 11,289 12,289 12,290 14,290 14,291 15,291 15,292 151,292 194,292 194,291 195,291 195,290 197,290 197,289 198,289 198,288 199,288 199,287 200,287 200,285 201,285 201,15 200,15 200,13 199,13 199,12 198,12 198,11 197,11 197,10 195,10 195,9 193,9 193,8 z" fill="#545454" fill-opacity="1.0" id="x545454_r84_g84_b84_a1.0_shape1"/>
  </g>
  <g id="xffffff_r255_g255_b255_a1.0">
    <path d="M 172,57 172,58 174,58 174,59 175,59 175,60 176,60 176,63 177,63 177,88 177,238 176,238 176,240 175,240 175,241 174,241 174,242 172,242 172,243 37,243 37,242 35,242 35,241 34,241 34,240 33,240 33,237 32,237 32,63 33,63 33,60 34,60 34,59 35,59 35,58 36,58 36,57 z M 170,231 170,64 169,64 169,63 40,63 40,64 39,64 39,231 z M 104,241 104,242 106,242 106,241 108,241 108,239 109,239 109,235 108,235 108,234 107,234 107,233 102,233 102,234 101,234 101,236 100,236 100,239 101,239 101,240 102,240 102,241 z M 106,61 106,59 103,59 103,61 z" fill="#ffffff" fill-opacity="1.0" id="xffffff_r255_g255_b255_a1.0_shape1"/>
  </g>
  <g id="xffffff_r255_g255_b255_a0.5176470588235295">
    <path d="M 39,64 40,64 40,90 40,231 39,231 39,113 z" fill="#ffffff" fill-opacity="0.5176470588235295" id="xffffff_r255_g255_b255_a0.5176470588235295_shape1"/>
  </g>
  <g id="xffffff_r255_g255_b255_a0.7529411764705882">
    <path d="M 169,63 169,64 40,64 40,63 z" fill="#ffffff" fill-opacity="0.7529411764705882" id="xffffff_r255_g255_b255_a0.7529411764705882_shape1"/>
  </g>
  <g id="xffffff_r255_g255_b255_a0.4235294117647059">
    <path d="M 169,243 169,244 40,244 40,243 z" fill="#ffffff" fill-opacity="0.4235294117647059" id="xffffff_r255_g255_b255_a0.4235294117647059_shape1"/>
  </g>
  <g id="xffffff_r255_g255_b255_a0.050980392156862744">
    <path d="M 104,233 106,233 106,234 107,234 107,235 108,235 108,237 109,237 109,238 108,238 108,240 107,240 107,241 102,241 102,240 101,240 101,235 102,235 102,234 104,234 z" fill="#ffffff" fill-opacity="0.050980392156862744" id="xffffff_r255_g255_b255_a0.050980392156862744_shape1"/>
  </g>
  <g id="x545454_r84_g84_b84_a0.6901960784313725">
    <path d="M 1,16 1,17 0,17 0,16 0,15 1,15 z" fill="#545454" fill-opacity="0.6901960784313725" id="x545454_r84_g84_b84_a0.6901960784313725_shape1"/>
    <path d="M 0,284 0,283 1,283 1,284 1,285 0,285 z" fill="#545454" fill-opacity="0.6901960784313725" id="x545454_r84_g84_b84_a0.6901960784313725_shape2"/>
    <path d="M 207,290 206,290 206,289 207,289 z" fill="#545454" fill-opacity="0.6901960784313725" id="x545454_r84_g84_b84_a0.6901960784313725_shape3"/>
  </g>
  <g id="x535353_r83_g83_b83_a0.7843137254901961">
    <path d="M 208,15 209,15 209,16 209,17 208,17 208,16 z" fill="#535353" fill-opacity="0.7843137254901961" id="x535353_r83_g83_b83_a0.7843137254901961_shape1"/>
    <path d="M 208,283 209,283 209,284 209,285 208,285 208,284 z" fill="#535353" fill-opacity="0.7843137254901961" id="x535353_r83_g83_b83_a0.7843137254901961_shape2"/>
  </g>
  <g id="x545454_r84_g84_b84_a0.596078431372549">
    <path d="M 3,10 3,11 2,11 2,10 z" fill="#545454" fill-opacity="0.596078431372549" id="x545454_r84_g84_b84_a0.596078431372549_shape1"/>
    <path d="M 197,2 196,2 196,1 197,1 z" fill="#545454" fill-opacity="0.596078431372549" id="x545454_r84_g84_b84_a0.596078431372549_shape2"/>
    <path d="M 199,298 198,298 198,297 199,297 z" fill="#545454" fill-opacity="0.596078431372549" id="x545454_r84_g84_b84_a0.596078431372549_shape3"/>
  </g>
  <g id="x535353_r83_g83_b83_a0.6352941176470588">
    <path d="M 8,5 7,5 7,4 8,4 z" fill="#535353" fill-opacity="0.6352941176470588" id="x535353_r83_g83_b83_a0.6352941176470588_shape1"/>
    <path d="M 196,11 196,10 197,10 197,11 z" fill="#535353" fill-opacity="0.6352941176470588" id="x535353_r83_g83_b83_a0.6352941176470588_shape2"/>
    <path d="M 196,289 197,289 197,290 196,290 z" fill="#535353" fill-opacity="0.6352941176470588" id="x535353_r83_g83_b83_a0.6352941176470588_shape3"/>
  </g>
  <g id="x535353_r83_g83_b83_a0.5764705882352941">
    <path d="M 9,283 9,284 8,284 8,283 z" fill="#535353" fill-opacity="0.5764705882352941" id="x535353_r83_g83_b83_a0.5764705882352941_shape1"/>
    <path d="M 13,2 12,2 12,1 13,1 z" fill="#535353" fill-opacity="0.5764705882352941" id="x535353_r83_g83_b83_a0.5764705882352941_shape2"/>
    <path d="M 12,299 12,298 13,298 13,299 z" fill="#535353" fill-opacity="0.5764705882352941" id="x535353_r83_g83_b83_a0.5764705882352941_shape3"/>
  </g>
  <g id="x535353_r83_g83_b83_a0.7098039215686275">
    <path d="M 194,291 194,292 193,292 192,292 192,291 193,291 z" fill="#535353" fill-opacity="0.7098039215686275" id="x535353_r83_g83_b83_a0.7098039215686275_shape1"/>
    <path d="M 12,289 13,289 13,290 12,290 z" fill="#535353" fill-opacity="0.7098039215686275" id="x535353_r83_g83_b83_a0.7098039215686275_shape2"/>
  </g>
  <g id="xffffff_r255_g255_b255_a0.5333333333333333">
    <path d="M 101,239 100,239 100,237 100,236 101,236 101,237 z" fill="#ffffff" fill-opacity="0.5333333333333333" id="xffffff_r255_g255_b255_a0.5333333333333333_shape1"/>
  </g>
  <g id="x535353_r83_g83_b83_a0.6588235294117647">
    <path d="M 192,300 192,299 193,299 194,299 194,300 193,300 z" fill="#535353" fill-opacity="0.6588235294117647" id="x535353_r83_g83_b83_a0.6588235294117647_shape1"/>
    <path d="M 207,13 207,12 208,12 208,13 z" fill="#535353" fill-opacity="0.6588235294117647" id="x535353_r83_g83_b83_a0.6588235294117647_shape2"/>
  </g>
  <g id="x545454_r84_g84_b84_a0.7294117647058823">
    <path d="M 201,285 200,285 200,284 200,283 201,283 201,284 z" fill="#545454" fill-opacity="0.7294117647058823" id="x545454_r84_g84_b84_a0.7294117647058823_shape1"/>
    <path d="M 204,7 205,7 205,8 204,8 z" fill="#545454" fill-opacity="0.7294117647058823" id="x545454_r84_g84_b84_a0.7294117647058823_shape2"/>
  </g>
  <g id="x535353_r83_g83_b83_a0.5647058823529412">
    <path d="M 2,13 1,13 1,12 2,12 z" fill="#535353" fill-opacity="0.5647058823529412" id="x535353_r83_g83_b83_a0.5647058823529412_shape1"/>
    <path d="M 11,11 12,11 12,12 11,12 z" fill="#535353" fill-opacity="0.5647058823529412" id="x535353_r83_g83_b83_a0.5647058823529412_shape2"/>
  </g>
  <g id="x545454_r84_g84_b84_a0.5137254901960784">
    <path d="M 1,287 2,287 2,288 1,288 z" fill="#545454" fill-opacity="0.5137254901960784" id="x545454_r84_g84_b84_a0.5137254901960784_shape1"/>
    <path d="M 199,13 198,13 198,12 199,12 z" fill="#545454" fill-opacity="0.5137254901960784" id="x545454_r84_g84_b84_a0.5137254901960784_shape2"/>
  </g>
  <g id="x535353_r83_g83_b83_a0.796078431372549">
    <path d="M 7,6 6,6 6,5 7,5 z" fill="#535353" fill-opacity="0.796078431372549" id="x535353_r83_g83_b83_a0.796078431372549_shape1"/>
    <path d="M 7,294 7,295 6,295 6,294 z" fill="#535353" fill-opacity="0.796078431372549" id="x535353_r83_g83_b83_a0.796078431372549_shape2"/>
  </g>
  <g id="x525252_r82_g82_b82_a0.5333333333333333">
    <path d="M 11,2 11,3 10,3 10,2 z" fill="#525252" fill-opacity="0.5333333333333333" id="x525252_r82_g82_b82_a0.5333333333333333_shape1"/>
    <path d="M 11,298 10,298 10,297 11,297 z" fill="#525252" fill-opacity="0.5333333333333333" id="x525252_r82_g82_b82_a0.5333333333333333_shape2"/>
  </g>
  <g id="x535353_r83_g83_b83_a0.6392156862745098">
    <path d="M 10,13 10,12 11,12 11,13 z" fill="#535353" fill-opacity="0.6392156862745098" id="x535353_r83_g83_b83_a0.6392156862745098_shape1"/>
    <path d="M 208,287 208,288 207,288 207,287 z" fill="#535353" fill-opacity="0.6392156862745098" id="x535353_r83_g83_b83_a0.6392156862745098_shape2"/>
  </g>
  <g id="x535353_r83_g83_b83_a0.7215686274509804">
    <path d="M 13,11 12,11 12,10 13,10 z" fill="#535353" fill-opacity="0.7215686274509804" id="x535353_r83_g83_b83_a0.7215686274509804_shape1"/>
    <path d="M 207,11 206,11 206,10 207,10 z" fill="#535353" fill-opacity="0.7215686274509804" id="x535353_r83_g83_b83_a0.7215686274509804_shape2"/>
  </g>
  <g id="x545454_r84_g84_b84_a0.7529411764705882">
    <path d="M 17,291 17,292 16,292 15,292 15,291 16,291 z" fill="#545454" fill-opacity="0.7529411764705882" id="x545454_r84_g84_b84_a0.7529411764705882_shape1"/>
  </g>
  <g id="x545454_r84_g84_b84_a0.6431372549019608">
    <path d="M 17,0 17,1 16,1 16,0 z" fill="#545454" fill-opacity="0.6431372549019608" id="x545454_r84_g84_b84_a0.6431372549019608_shape1"/>
    <path d="M 17,300 16,300 16,299 17,299 z" fill="#545454" fill-opacity="0.6431372549019608" id="x545454_r84_g84_b84_a0.6431372549019608_shape2"/>
  </g>
  <g id="x535353_r83_g83_b83_a0.611764705882353">
    <path d="M 17,8 17,9 16,9 16,8 z" fill="#535353" fill-opacity="0.611764705882353" id="x535353_r83_g83_b83_a0.611764705882353_shape1"/>
    <path d="M 197,299 196,299 196,298 197,298 z" fill="#535353" fill-opacity="0.611764705882353" id="x535353_r83_g83_b83_a0.611764705882353_shape2"/>
  </g>
  <g id="xffffff_r255_g255_b255_a0.7686274509803922">
    <path d="M 32,61 33,61 33,62 33,63 32,63 32,62 z" fill="#ffffff" fill-opacity="0.7686274509803922" id="xffffff_r255_g255_b255_a0.7686274509803922_shape1"/>
  </g>
  <g id="xffffff_r255_g255_b255_a0.803921568627451">
    <path d="M 104,234 102,234 102,233 104,233 z" fill="#ffffff" fill-opacity="0.803921568627451" id="xffffff_r255_g255_b255_a0.803921568627451_shape1"/>
  </g>
  <g id="xffffff_r255_g255_b255_a0.6862745098039216">
    <path d="M 103,61 103,59 104,59 104,61 z" fill="#ffffff" fill-opacity="0.6862745098039216" id="xffffff_r255_g255_b255_a0.6862745098039216_shape1"/>
  </g>
  <g id="xffffff_r255_g255_b255_a0.03529411764705882">
    <path d="M 104,60 104,59 105,59 105,60 105,61 104,61 z" fill="#ffffff" fill-opacity="0.03529411764705882" id="xffffff_r255_g255_b255_a0.03529411764705882_shape1"/>
  </g>
  <g id="xffffff_r255_g255_b255_a0.796078431372549">
    <path d="M 106,241 106,242 105,242 104,242 104,241 105,241 z" fill="#ffffff" fill-opacity="0.796078431372549" id="xffffff_r255_g255_b255_a0.796078431372549_shape1"/>
  </g>
  <g id="xffffff_r255_g255_b255_a0.5882352941176471">
    <path d="M 105,59 106,59 106,60 106,61 105,61 105,60 z" fill="#ffffff" fill-opacity="0.5882352941176471" id="xffffff_r255_g255_b255_a0.5882352941176471_shape1"/>
  </g>
  <g id="xffffff_r255_g255_b255_a0.7647058823529411">
    <path d="M 108,236 108,235 109,235 109,236 109,237 108,237 z" fill="#ffffff" fill-opacity="0.7647058823529411" id="xffffff_r255_g255_b255_a0.7647058823529411_shape1"/>
  </g>
  <g id="xffffff_r255_g255_b255_a0.7058823529411765">
    <path d="M 173,57 173,58 172,58 172,57 z" fill="#ffffff" fill-opacity="0.7058823529411765" id="xffffff_r255_g255_b255_a0.7058823529411765_shape1"/>
    <path d="M 172,242 173,242 173,243 172,243 z" fill="#ffffff" fill-opacity="0.7058823529411765" id="xffffff_r255_g255_b255_a0.7058823529411765_shape2"/>
  </g>
  <g id="xffffff_r255_g255_b255_a0.7803921568627451">
    <path d="M 177,62 177,63 176,63 176,62 176,61 177,61 z" fill="#ffffff" fill-opacity="0.7803921568627451" id="xffffff_r255_g255_b255_a0.7803921568627451_shape1"/>
  </g>
  <g id="x535353_r83_g83_b83_a0.6745098039215687">
    <path d="M 192,0 194,0 194,1 192,1 z" fill="#535353" fill-opacity="0.6745098039215687" id="x535353_r83_g83_b83_a0.6745098039215687_shape1"/>
  </g>
  <g id="x545454_r84_g84_b84_a0.5843137254901961">
    <path d="M 192,9 192,8 193,8 193,9 z" fill="#545454" fill-opacity="0.5843137254901961" id="x545454_r84_g84_b84_a0.5843137254901961_shape1"/>
    <path d="M 198,3 198,2 199,2 199,3 z" fill="#545454" fill-opacity="0.5843137254901961" id="x545454_r84_g84_b84_a0.5843137254901961_shape2"/>
  </g>
  <g id="x535353_r83_g83_b83_a0.44313725490196076">
    <path d="M 197,11 198,11 198,12 197,12 z" fill="#535353" fill-opacity="0.44313725490196076" id="x535353_r83_g83_b83_a0.44313725490196076_shape1"/>
    <path d="M 197,288 198,288 198,289 197,289 z" fill="#535353" fill-opacity="0.44313725490196076" id="x535353_r83_g83_b83_a0.44313725490196076_shape2"/>
  </g>
  <g id="x545454_r84_g84_b84_a0.7411764705882353">
    <path d="M 199,14 199,13 200,13 200,14 z" fill="#545454" fill-opacity="0.7411764705882353" id="x545454_r84_g84_b84_a0.7411764705882353_shape1"/>
    <path d="M 205,293 204,293 204,292 205,292 z" fill="#545454" fill-opacity="0.7411764705882353" id="x545454_r84_g84_b84_a0.7411764705882353_shape2"/>
  </g>
  <g id="x545454_r84_g84_b84_a0.788235294117647">
    <path d="M 200,16 200,15 201,15 201,16 201,17 200,17 z" fill="#545454" fill-opacity="0.788235294117647" id="x545454_r84_g84_b84_a0.788235294117647_shape1"/>
  </g>
  <g id="x535353_r83_g83_b83_a0.5803921568627451">
    <path d="M 2,289 3,289 3,290 2,290 z" fill="#535353" fill-opacity="0.5803921568627451" id="x535353_r83_g83_b83_a0.5803921568627451_shape1"/>
  </g>
  <g id="x535353_r83_g83_b83_a0.40784313725490196">
    <path d="M 4,9 3,9 3,8 4,8 z" fill="#535353" fill-opacity="0.40784313725490196" id="x535353_r83_g83_b83_a0.40784313725490196_shape1"/>
  </g>
  <g id="x545454_r84_g84_b84_a0.6823529411764706">
    <path d="M 4,8 4,7 5,7 5,8 z" fill="#545454" fill-opacity="0.6823529411764706" id="x545454_r84_g84_b84_a0.6823529411764706_shape1"/>
  </g>
  <g id="x535353_r83_g83_b83_a0.6235294117647059">
    <path d="M 4,293 4,292 5,292 5,293 z" fill="#535353" fill-opacity="0.6235294117647059" id="x535353_r83_g83_b83_a0.6235294117647059_shape1"/>
  </g>
  <g id="x535353_r83_g83_b83_a0.7803921568627451">
    <path d="M 6,7 5,7 5,6 6,6 z" fill="#535353" fill-opacity="0.7803921568627451" id="x535353_r83_g83_b83_a0.7803921568627451_shape1"/>
  </g>
  <g id="x545454_r84_g84_b84_a0.7764705882352941">
    <path d="M 5,293 6,293 6,294 5,294 z" fill="#545454" fill-opacity="0.7764705882352941" id="x545454_r84_g84_b84_a0.7764705882352941_shape1"/>
  </g>
  <g id="x535353_r83_g83_b83_a0.6509803921568628">
    <path d="M 8,295 8,296 7,296 7,295 z" fill="#535353" fill-opacity="0.6509803921568628" id="x535353_r83_g83_b83_a0.6509803921568628_shape1"/>
  </g>
  <g id="x545454_r84_g84_b84_a0.5607843137254902">
    <path d="M 9,16 9,17 8,17 8,16 z" fill="#545454" fill-opacity="0.5607843137254902" id="x545454_r84_g84_b84_a0.5607843137254902_shape1"/>
  </g>
  <g id="x535353_r83_g83_b83_a0.6470588235294118">
    <path d="M 11,287 11,288 10,288 10,287 z" fill="#535353" fill-opacity="0.6470588235294118" id="x535353_r83_g83_b83_a0.6470588235294118_shape1"/>
  </g>
  <g id="x535353_r83_g83_b83_a0.5568627450980392">
    <path d="M 11,288 12,288 12,289 11,289 z" fill="#535353" fill-opacity="0.5568627450980392" id="x535353_r83_g83_b83_a0.5568627450980392_shape1"/>
  </g>
  <g id="x535353_r83_g83_b83_a0.43529411764705883">
    <path d="M 14,9 15,9 15,10 14,10 z" fill="#535353" fill-opacity="0.43529411764705883" id="x535353_r83_g83_b83_a0.43529411764705883_shape1"/>
  </g>
  <g id="xffffff_r255_g255_b255_a0.6705882352941176">
    <path d="M 32,237 33,237 33,238 32,238 z" fill="#ffffff" fill-opacity="0.6705882352941176" id="xffffff_r255_g255_b255_a0.6705882352941176_shape1"/>
  </g>
  <g id="xffffff_r255_g255_b255_a0.6235294117647059">
    <path d="M 37,243 36,243 36,242 37,242 z" fill="#ffffff" fill-opacity="0.6235294117647059" id="xffffff_r255_g255_b255_a0.6235294117647059_shape1"/>
  </g>
  <g id="xffffff_r255_g255_b255_a0.6470588235294118">
    <path d="M 101,235 101,234 102,234 102,235 z" fill="#ffffff" fill-opacity="0.6470588235294118" id="xffffff_r255_g255_b255_a0.6470588235294118_shape1"/>
  </g>
  <g id="xffffff_r255_g255_b255_a0.7333333333333333">
    <path d="M 107,234 106,234 106,233 107,233 z" fill="#ffffff" fill-opacity="0.7333333333333333" id="xffffff_r255_g255_b255_a0.7333333333333333_shape1"/>
  </g>
  <g id="xffffff_r255_g255_b255_a0.5411764705882353">
    <path d="M 108,234 108,235 107,235 107,234 z" fill="#ffffff" fill-opacity="0.5411764705882353" id="xffffff_r255_g255_b255_a0.5411764705882353_shape1"/>
  </g>
  <g id="xffffff_r255_g255_b255_a0.7764705882352941">
    <path d="M 107,241 107,240 108,240 108,241 z" fill="#ffffff" fill-opacity="0.7764705882352941" id="xffffff_r255_g255_b255_a0.7764705882352941_shape1"/>
  </g>
  <g id="xffffff_r255_g255_b255_a0.47843137254901963">
    <path d="M 108,238 109,238 109,239 108,239 z" fill="#ffffff" fill-opacity="0.47843137254901963" id="xffffff_r255_g255_b255_a0.47843137254901963_shape1"/>
  </g>
  <g id="xffffff_r255_g255_b255_a0.47058823529411764">
    <path d="M 177,238 177,239 176,239 176,238 z" fill="#ffffff" fill-opacity="0.47058823529411764" id="xffffff_r255_g255_b255_a0.47058823529411764_shape1"/>
  </g>
  <g id="x545454_r84_g84_b84_a0.5254901960784314">
    <path d="M 199,288 198,288 198,287 199,287 z" fill="#545454" fill-opacity="0.5254901960784314" id="x545454_r84_g84_b84_a0.5254901960784314_shape1"/>
  </g>
  <g id="x545454_r84_g84_b84_a0.8">
    <path d="M 199,287 199,286 200,286 200,287 z" fill="#545454" fill-opacity="0.8" id="x545454_r84_g84_b84_a0.8_shape1"/>
  </g>
  <g id="x545454_r84_g84_b84_a0.7254901960784313">
    <path d="M 201,5 201,4 202,4 202,5 z" fill="#545454" fill-opacity="0.7254901960784313" id="x545454_r84_g84_b84_a0.7254901960784313_shape1"/>
  </g>
  <g id="x535353_r83_g83_b83_a0.7333333333333333">
    <path d="M 202,295 202,296 201,296 201,295 z" fill="#535353" fill-opacity="0.7333333333333333" id="x535353_r83_g83_b83_a0.7333333333333333_shape1"/>
  </g>
  <g id="x545454_r84_g84_b84_a0.5019607843137255">
    <path d="M 205,9 205,8 206,8 206,9 z" fill="#545454" fill-opacity="0.5019607843137255" id="x545454_r84_g84_b84_a0.5019607843137255_shape1"/>
  </g>
  <g id="x545454_r84_g84_b84_a0.49019607843137253">
    <path d="M 206,291 206,292 205,292 205,291 z" fill="#545454" fill-opacity="0.49019607843137253" id="x545454_r84_g84_b84_a0.49019607843137253_shape1"/>
  </g>
</svg>
