<?xml version="1.0" encoding="utf-8" ?>
<svg xmlns="http://www.w3.org/2000/svg" xmlns:ev="http://www.w3.org/2001/xml-events" xmlns:xlink="http://www.w3.org/1999/xlink" baseProfile="full" height="638px" version="1.1" viewBox="0 0 638 638" width="638px">
  <defs/>
  <g id="x2d1a02_r45_g26_b2_a1.0">
    <path d="M 613,436 612,436 612,447 611,447 611,455 610,455 610,460 609,460 609,465 608,465 608,470 607,470 607,474 606,474 606,477 605,477 605,481 604,481 604,484 603,484 603,487 602,487 602,490 601,490 601,492 600,492 600,494 600,495 599,495 599,496 599,497 598,497 598,498 598,500 597,500 597,502 596,502 596,504 595,504 595,506 594,506 594,508 593,508 593,510 592,510 592,512 591,512 591,514 590,514 590,516 589,516 589,518 588,518 588,519 587,519 587,521 586,521 586,523 585,523 585,524 584,524 584,526 583,526 583,527 582,527 582,529 581,529 581,530 580,530 580,532 579,532 579,533 578,533 578,535 577,535 577,536 576,536 576,537 575,537 575,539 574,539 574,540 573,540 573,541 572,541 572,543 571,543 571,544 570,544 570,545 569,545 569,546 568,546 568,547 567,547 567,549 566,549 566,550 565,550 565,551 564,551 564,552 563,552 563,553 562,553 562,554 561,554 561,555 560,555 560,556 559,556 559,557 558,557 558,558 557,558 557,559 556,559 556,560 555,560 555,561 554,561 554,562 553,562 553,563 552,563 552,564 551,564 551,565 550,565 550,566 549,566 549,567 547,567 547,568 546,568 546,569 545,569 545,570 544,570 544,571 543,571 543,572 541,572 541,573 540,573 540,574 539,574 539,575 537,575 537,576 536,576 536,577 535,577 535,578 533,578 533,579 532,579 532,580 530,580 530,581 529,581 529,582 527,582 527,583 526,583 526,584 524,584 524,585 523,585 523,586 521,586 521,587 519,587 519,588 518,588 518,589 516,589 516,590 514,590 514,591 512,591 512,592 510,592 510,593 508,593 508,594 506,594 506,595 504,595 504,596 502,596 502,597 500,597 500,598 497,598 497,599 495,599 495,600 492,600 492,601 490,601 490,602 487,602 487,603 484,603 484,604 481,604 481,605 477,605 477,606 474,606 474,607 470,607 470,608 465,608 465,609 460,609 460,610 455,610 455,611 447,611 447,612 436,612 436,613 391,613 325,613 25,613 25,463 25,202 26,202 26,191 27,191 27,183 28,183 28,178 29,178 29,173 30,173 30,168 31,168 31,164 32,164 32,161 33,161 33,157 34,157 34,154 35,154 35,151 36,151 36,148 37,148 37,146 38,146 38,143 39,143 39,141 40,141 40,138 41,138 41,136 42,136 42,134 43,134 43,132 44,132 44,130 45,130 45,128 46,128 46,126 47,126 47,124 48,124 48,122 49,122 49,120 50,120 50,119 51,119 51,117 52,117 52,115 53,115 53,114 54,114 54,112 55,112 55,111 56,111 56,109 57,109 57,108 58,108 58,106 59,106 59,105 60,105 60,103 61,103 61,102 62,102 62,101 63,101 63,99 64,99 64,98 65,98 65,97 66,97 66,95 67,95 67,94 68,94 68,93 69,93 69,92 70,92 70,91 71,91 71,89 72,89 72,88 73,88 73,87 74,87 74,86 75,86 75,85 76,85 76,84 77,84 77,83 78,83 78,82 79,82 79,81 80,81 80,80 81,80 81,79 82,79 82,78 83,78 83,77 84,77 84,76 85,76 85,75 86,75 86,74 87,74 87,73 88,73 88,72 89,72 89,71 91,71 91,70 92,70 92,69 93,69 93,68 94,68 94,67 95,67 95,66 97,66 97,65 98,65 98,64 99,64 99,63 101,63 101,62 102,62 102,61 103,61 103,60 105,60 105,59 106,59 106,58 108,58 108,57 109,57 109,56 111,56 111,55 112,55 112,54 114,54 114,53 115,53 115,52 117,52 117,51 119,51 119,50 120,50 120,49 122,49 122,48 124,48 124,47 126,47 126,46 128,46 128,45 130,45 130,44 132,44 132,43 134,43 134,42 136,42 136,41 138,41 138,40 141,40 141,39 143,39 143,38 146,38 146,37 148,37 148,36 151,36 151,35 154,35 154,34 157,34 157,33 161,33 161,32 164,32 164,31 168,31 168,30 173,30 173,29 178,29 178,28 183,28 183,27 191,27 191,26 202,26 202,25 442,25 613,25 z M 249,409 249,408 250,408 250,405 251,405 251,402 252,402 252,399 253,399 253,396 254,396 254,393 255,393 255,391 256,391 256,388 257,388 257,385 258,385 258,382 259,382 259,379 260,379 260,376 261,376 261,373 262,373 262,371 263,371 263,368 264,368 264,365 265,365 265,362 266,362 266,359 267,359 267,356 268,356 268,353 269,353 269,351 270,351 270,348 271,348 271,345 272,345 272,342 273,342 273,339 274,339 274,336 275,336 275,334 276,334 276,331 277,331 277,328 278,328 278,325 279,325 279,322 280,322 280,319 281,319 281,316 282,316 282,314 283,314 283,311 284,311 284,308 285,308 285,305 286,305 286,302 287,302 287,299 288,299 288,296 289,296 289,294 290,294 290,291 291,291 291,288 292,288 292,285 293,285 293,282 294,282 294,279 295,279 295,277 296,277 296,274 297,274 297,271 298,271 298,268 299,268 299,265 300,265 300,262 301,262 301,259 302,259 302,257 303,257 303,254 304,254 304,251 305,251 305,248 306,248 306,245 307,245 307,259 307,409 343,409 343,334 343,182 293,182 293,185 292,185 292,188 291,188 291,191 290,191 290,194 289,194 289,197 288,197 288,200 287,200 287,203 286,203 286,205 285,205 285,208 284,208 284,211 283,211 283,214 282,214 282,217 281,217 281,220 280,220 280,223 279,223 279,226 278,226 278,229 277,229 277,231 276,231 276,234 275,234 275,237 274,237 274,240 273,240 273,243 272,243 272,246 271,246 271,249 270,249 270,252 269,252 269,255 268,255 268,257 267,257 267,260 266,260 266,263 265,263 265,266 264,266 264,269 263,269 263,272 262,272 262,275 261,275 261,278 260,278 260,281 259,281 259,283 258,283 258,286 257,286 257,289 256,289 256,292 255,292 255,295 254,295 254,298 253,298 253,301 252,301 252,304 251,304 251,307 250,307 250,309 249,309 249,312 248,312 248,315 247,315 247,318 246,318 246,321 245,321 245,324 244,324 244,327 243,327 243,330 242,330 242,333 241,333 241,335 240,335 240,338 239,338 239,341 238,341 238,344 237,344 237,347 236,347 236,350 235,350 235,353 234,353 234,356 233,356 233,357 232,357 232,355 231,355 231,352 230,352 230,349 229,349 229,346 228,346 228,344 227,344 227,341 226,341 226,338 225,338 225,335 224,335 224,332 223,332 223,329 222,329 222,326 221,326 221,323 220,323 220,320 219,320 219,318 218,318 218,315 217,315 217,312 216,312 216,309 215,309 215,306 214,306 214,303 213,303 213,300 212,300 212,297 211,297 211,294 210,294 210,292 209,292 209,289 208,289 208,286 207,286 207,283 206,283 206,280 205,280 205,277 204,277 204,274 203,274 203,271 202,271 202,268 201,268 201,266 200,266 200,263 199,263 199,260 198,260 198,257 197,257 197,254 196,254 196,251 195,251 195,248 194,248 194,245 193,245 193,242 192,242 192,240 191,240 191,237 190,237 190,234 189,234 189,231 188,231 188,228 187,228 187,225 186,225 186,222 185,222 185,219 184,219 184,217 183,217 183,214 182,214 182,211 181,211 181,208 180,208 180,205 179,205 179,202 178,202 178,199 177,199 177,196 176,196 176,193 175,193 175,191 174,191 174,188 173,188 173,185 172,185 172,182 122,182 122,409 134,409 157,409 157,245 158,245 158,248 159,248 159,250 160,250 160,253 161,253 161,256 162,256 162,259 163,259 163,262 164,262 164,265 165,265 165,268 166,268 166,271 167,271 167,274 168,274 168,277 169,277 169,280 170,280 170,282 171,282 171,285 172,285 172,288 173,288 173,291 174,291 174,294 175,294 175,297 176,297 176,300 177,300 177,303 178,303 178,306 179,306 179,309 180,309 180,311 181,311 181,314 182,314 182,317 183,317 183,320 184,320 184,323 185,323 185,326 186,326 186,329 187,329 187,332 188,332 188,335 189,335 189,338 190,338 190,341 191,341 191,343 192,343 192,346 193,346 193,349 194,349 194,352 195,352 195,355 196,355 196,358 197,358 197,361 198,361 198,364 199,364 199,367 200,367 200,370 201,370 201,373 202,373 202,375 203,375 203,378 204,378 204,381 205,381 205,384 206,384 206,387 207,387 207,390 208,390 208,393 209,393 209,396 210,396 210,399 211,399 211,402 212,402 212,405 213,405 213,407 214,407 214,409 z M 455,243 455,244 450,244 450,245 446,245 446,246 443,246 443,247 440,247 440,248 437,248 437,249 435,249 435,250 433,250 433,251 431,251 431,252 429,252 429,253 427,253 427,254 426,254 426,255 424,255 424,256 423,256 423,257 421,257 421,258 419,258 419,252 418,252 418,245 385,245 385,259 385,319 385,472 421,472 421,402 422,402 422,403 424,403 424,404 426,404 426,405 428,405 428,406 430,406 430,407 433,407 433,408 436,408 436,409 439,409 439,410 443,410 443,411 448,411 448,412 457,412 457,413 464,413 464,412 473,412 473,411 478,411 478,410 482,410 482,409 484,409 484,408 487,408 487,407 489,407 489,406 491,406 491,405 493,405 493,404 495,404 495,403 496,403 496,402 498,402 498,401 499,401 499,400 501,400 501,399 502,399 502,398 503,398 503,397 504,397 504,396 505,396 505,395 506,395 506,394 507,394 507,393 508,393 508,392 509,392 509,391 510,391 510,390 511,390 511,388 512,388 512,387 513,387 513,386 514,386 514,384 515,384 515,383 516,383 516,381 517,381 517,379 518,379 518,377 519,377 519,375 520,375 520,373 521,373 521,371 522,371 522,368 523,368 523,365 524,365 524,362 525,362 525,358 526,358 526,354 527,354 527,348 528,348 528,341 529,341 529,306 528,306 528,299 527,299 527,293 526,293 526,289 525,289 525,285 524,285 524,282 523,282 523,279 522,279 522,277 521,277 521,274 520,274 520,272 519,272 519,271 518,271 518,269 517,269 517,267 516,267 516,266 515,266 515,264 514,264 514,263 513,263 513,262 512,262 512,260 511,260 511,259 510,259 510,258 509,258 509,257 508,257 508,256 507,256 507,255 506,255 506,254 504,254 504,253 503,253 503,252 502,252 502,251 500,251 500,250 498,250 498,249 496,249 496,248 494,248 494,247 492,247 492,246 489,246 489,245 486,245 486,244 481,244 481,243 473,243 473,242 464,242 464,243 z" fill="#2d1a02" fill-opacity="1.0" id="x2d1a02_r45_g26_b2_a1.0_shape1"/>
    <path d="M 441,378 441,377 438,377 438,376 436,376 436,375 433,375 433,374 431,374 431,373 430,373 430,372 428,372 428,371 426,371 426,370 425,370 425,369 423,369 423,368 422,368 422,353 422,290 424,290 424,289 425,289 425,288 426,288 426,287 427,287 427,286 429,286 429,285 430,285 430,284 432,284 432,283 434,283 434,282 435,282 435,281 437,281 437,280 439,280 439,279 441,279 441,278 444,278 444,277 447,277 447,276 451,276 451,275 457,275 457,274 464,274 464,275 471,275 471,276 474,276 474,277 476,277 476,278 478,278 478,279 479,279 479,280 481,280 481,281 482,281 482,282 483,282 483,284 484,284 484,285 485,285 485,287 486,287 486,288 487,288 487,291 488,291 488,293 489,293 489,297 490,297 490,301 491,301 491,307 492,307 492,340 491,340 491,347 490,347 490,352 489,352 489,355 488,355 488,358 487,358 487,361 486,361 486,363 485,363 485,365 484,365 484,367 483,367 483,368 482,368 482,369 481,369 481,371 480,371 480,372 479,372 479,373 478,373 478,374 477,374 477,375 475,375 475,376 474,376 474,377 472,377 472,378 469,378 469,379 466,379 466,380 448,380 448,379 444,379 444,378 z" fill="#2d1a02" fill-opacity="1.0" id="x2d1a02_r45_g26_b2_a1.0_shape2"/>
  </g>
  <g id="xff6b00_r255_g107_b0_a1.0">
    <path d="M 1,637 1,198 2,198 2,187 3,187 3,180 4,180 4,174 5,174 5,169 6,169 6,165 7,165 7,161 8,161 8,157 9,157 9,153 10,153 10,150 11,150 11,147 12,147 12,144 13,144 13,141 14,141 14,138 15,138 15,136 16,136 16,133 17,133 17,131 18,131 18,129 19,129 19,126 20,126 20,124 21,124 21,122 22,122 22,120 23,120 23,118 24,118 24,116 25,116 25,114 26,114 26,112 27,112 27,110 28,110 28,109 29,109 29,107 30,107 30,105 31,105 31,104 32,104 32,102 33,102 33,100 34,100 34,99 35,99 35,97 36,97 36,96 37,96 37,94 38,94 38,93 39,93 39,91 40,91 40,90 41,90 41,88 42,88 42,87 43,87 43,86 44,86 44,84 45,84 45,83 46,83 46,82 47,82 47,81 48,81 48,79 49,79 49,78 50,78 50,77 51,77 51,76 52,76 52,75 53,75 53,73 54,73 54,72 55,72 55,71 56,71 56,70 57,70 57,69 58,69 58,68 59,68 59,67 60,67 60,66 61,66 61,65 62,65 62,64 63,64 63,63 64,63 64,62 65,62 65,61 66,61 66,60 67,60 67,59 68,59 68,58 69,58 69,57 70,57 70,56 71,56 71,55 72,55 72,54 73,54 73,53 75,53 75,52 76,52 76,51 77,51 77,50 78,50 78,49 79,49 79,48 81,48 81,47 82,47 82,46 83,46 83,45 84,45 84,44 86,44 86,43 87,43 87,42 88,42 88,41 90,41 90,40 91,40 91,39 93,39 93,38 94,38 94,37 96,37 96,36 97,36 97,35 99,35 99,34 100,34 100,33 102,33 102,32 103,32 103,31 105,31 105,30 107,30 107,29 109,29 109,28 110,28 110,27 112,27 112,26 114,26 114,25 116,25 116,24 118,24 118,23 120,23 120,22 122,22 122,21 124,21 124,20 126,20 126,19 129,19 129,18 131,18 131,17 133,17 133,16 136,16 136,15 138,15 138,14 141,14 141,13 144,13 144,12 147,12 147,11 150,11 150,10 153,10 153,9 157,9 157,8 161,8 161,7 165,7 165,6 169,6 169,5 174,5 174,4 180,4 180,3 187,3 187,2 198,2 198,1 637,1 637,394 637,440 636,440 636,451 635,451 635,458 634,458 634,464 633,464 633,469 632,469 632,473 631,473 631,477 630,477 630,481 629,481 629,485 628,485 628,488 627,488 627,491 626,491 626,494 625,494 625,497 624,497 624,500 623,500 623,502 622,502 622,505 621,505 621,507 620,507 620,509 619,509 619,512 618,512 618,514 617,514 617,516 616,516 616,518 615,518 615,520 614,520 614,522 613,522 613,524 612,524 612,526 611,526 611,528 610,528 610,529 609,529 609,531 608,531 608,533 607,533 607,534 606,534 606,536 605,536 605,538 604,538 604,539 603,539 603,541 602,541 602,542 601,542 601,544 600,544 600,545 599,545 599,547 598,547 598,548 597,548 597,550 596,550 596,551 595,551 595,552 594,552 594,554 593,554 593,555 592,555 592,556 591,556 591,557 590,557 590,559 589,559 589,560 588,560 588,561 587,561 587,562 586,562 586,563 585,563 585,565 584,565 584,566 583,566 583,567 582,567 582,568 581,568 581,569 580,569 580,570 579,570 579,571 578,571 578,572 577,572 577,573 576,573 576,574 575,574 575,575 574,575 574,576 573,576 573,577 572,577 572,578 571,578 571,579 570,579 570,580 569,580 569,581 568,581 568,582 567,582 567,583 566,583 566,584 565,584 565,585 563,585 563,586 562,586 562,587 561,587 561,588 560,588 560,589 559,589 559,590 557,590 557,591 556,591 556,592 555,592 555,593 554,593 554,594 552,594 552,595 551,595 551,596 550,596 550,597 548,597 548,598 547,598 547,599 545,599 545,600 544,600 544,601 542,601 542,602 541,602 541,603 539,603 539,604 538,604 538,605 536,605 536,606 534,606 534,607 533,607 533,608 531,608 531,609 529,609 529,610 528,610 528,611 526,611 526,612 524,612 524,613 522,613 522,614 520,614 520,615 518,615 518,616 516,616 516,617 514,617 514,618 512,618 512,619 509,619 509,620 507,620 507,621 505,621 505,622 502,622 502,623 500,623 500,624 497,624 497,625 494,625 494,626 491,626 491,627 488,627 488,628 485,628 485,629 481,629 481,630 477,630 477,631 473,631 473,632 469,632 469,633 464,633 464,634 458,634 458,635 451,635 451,636 440,636 440,637 z M 25,613 436,613 436,612 447,612 447,611 455,611 455,610 460,610 460,609 465,609 465,608 470,608 470,607 474,607 474,606 477,606 477,605 481,605 481,604 484,604 484,603 487,603 487,602 490,602 490,601 492,601 492,600 495,600 495,599 497,599 497,598 500,598 500,597 502,597 502,596 504,596 504,595 506,595 506,594 508,594 508,593 510,593 510,592 512,592 512,591 514,591 514,590 516,590 516,589 518,589 518,588 519,588 519,587 521,587 521,586 523,586 523,585 524,585 524,584 526,584 526,583 527,583 527,582 529,582 529,581 530,581 530,580 532,580 532,579 533,579 533,578 535,578 535,577 536,577 536,576 537,576 537,575 539,575 539,574 540,574 540,573 541,573 541,572 543,572 543,571 544,571 544,570 545,570 545,569 546,569 546,568 547,568 547,567 549,567 549,566 550,566 550,565 551,565 551,564 552,564 552,563 553,563 553,562 554,562 554,561 555,561 555,560 556,560 556,559 557,559 557,558 558,558 558,557 559,557 559,556 560,556 560,555 561,555 561,554 562,554 562,553 563,553 563,552 564,552 564,551 565,551 565,550 566,550 566,549 567,549 567,547 568,547 568,546 569,546 569,545 570,545 570,544 571,544 571,543 572,543 572,541 573,541 573,540 574,540 574,539 575,539 575,537 576,537 576,536 577,536 577,535 578,535 578,533 579,533 579,532 580,532 580,530 581,530 581,529 582,529 582,527 583,527 583,526 584,526 584,524 585,524 585,523 586,523 586,521 587,521 587,519 588,519 588,518 589,518 589,516 590,516 590,514 591,514 591,512 592,512 592,510 593,510 593,508 594,508 594,506 595,506 595,504 596,504 596,502 597,502 597,500 598,500 598,497 599,497 599,495 600,495 600,492 601,492 601,490 602,490 602,487 603,487 603,484 604,484 604,481 605,481 605,477 606,477 606,474 607,474 607,470 608,470 608,465 609,465 609,460 610,460 610,455 611,455 611,447 612,447 612,436 613,436 613,160 613,25 272,25 202,25 202,26 191,26 191,27 183,27 183,28 178,28 178,29 173,29 173,30 168,30 168,31 164,31 164,32 161,32 161,33 157,33 157,34 154,34 154,35 151,35 151,36 148,36 148,37 146,37 146,38 143,38 143,39 141,39 141,40 138,40 138,41 136,41 136,42 134,42 134,43 132,43 132,44 130,44 130,45 128,45 128,46 126,46 126,47 124,47 124,48 122,48 122,49 120,49 120,50 119,50 119,51 117,51 117,52 115,52 115,53 114,53 114,54 112,54 112,55 111,55 111,56 109,56 109,57 108,57 108,58 106,58 106,59 105,59 105,60 103,60 103,61 102,61 102,62 101,62 101,63 99,63 99,64 98,64 98,65 97,65 97,66 95,66 95,67 94,67 94,68 93,68 93,69 92,69 92,70 91,70 91,71 89,71 89,72 88,72 88,73 87,73 87,74 86,74 86,75 85,75 85,76 84,76 84,77 83,77 83,78 82,78 82,79 81,79 81,80 80,80 80,81 79,81 79,82 78,82 78,83 77,83 77,84 76,84 76,85 75,85 75,86 74,86 74,87 73,87 73,88 72,88 72,89 71,89 71,91 70,91 70,92 69,92 69,93 68,93 68,94 67,94 67,95 66,95 66,97 65,97 65,98 64,98 64,99 63,99 63,101 62,101 62,102 61,102 61,103 60,103 60,105 59,105 59,106 58,106 58,108 57,108 57,109 56,109 56,111 55,111 55,112 54,112 54,114 53,114 53,115 52,115 52,117 51,117 51,119 50,119 50,120 49,120 49,122 48,122 48,124 47,124 47,126 46,126 46,128 45,128 45,130 44,130 44,132 43,132 43,134 42,134 42,136 41,136 41,138 40,138 40,141 39,141 39,143 38,143 38,146 37,146 37,148 36,148 36,151 35,151 35,154 34,154 34,157 33,157 33,161 32,161 32,164 31,164 31,168 30,168 30,173 29,173 29,178 28,178 28,183 27,183 27,191 26,191 26,202 25,202 25,237 25,337 z" fill="#ff6b00" fill-opacity="1.0" id="xff6b00_r255_g107_b0_a1.0_shape1"/>
    <path d="M 122,182 172,182 172,185 173,185 173,188 174,188 174,191 175,191 175,193 176,193 176,196 177,196 177,199 178,199 178,202 179,202 179,205 180,205 180,208 181,208 181,211 182,211 182,214 183,214 183,217 184,217 184,219 185,219 185,222 186,222 186,225 187,225 187,228 188,228 188,231 189,231 189,234 190,234 190,237 191,237 191,240 192,240 192,242 193,242 193,245 194,245 194,248 195,248 195,251 196,251 196,254 197,254 197,257 198,257 198,260 199,260 199,263 200,263 200,266 201,266 201,268 202,268 202,271 203,271 203,274 204,274 204,277 205,277 205,280 206,280 206,283 207,283 207,286 208,286 208,289 209,289 209,292 210,292 210,294 211,294 211,297 212,297 212,300 213,300 213,303 214,303 214,306 215,306 215,309 216,309 216,312 217,312 217,315 218,315 218,318 219,318 219,320 220,320 220,323 221,323 221,326 222,326 222,329 223,329 223,332 224,332 224,335 225,335 225,338 226,338 226,341 227,341 227,344 228,344 228,346 229,346 229,349 230,349 230,352 231,352 231,355 232,355 232,357 233,357 233,356 234,356 234,353 235,353 235,350 236,350 236,347 237,347 237,344 238,344 238,341 239,341 239,338 240,338 240,335 241,335 241,333 242,333 242,330 243,330 243,327 244,327 244,324 245,324 245,321 246,321 246,318 247,318 247,315 248,315 248,312 249,312 249,309 250,309 250,307 251,307 251,304 252,304 252,301 253,301 253,298 254,298 254,295 255,295 255,292 256,292 256,289 257,289 257,286 258,286 258,283 259,283 259,281 260,281 260,278 261,278 261,275 262,275 262,272 263,272 263,269 264,269 264,266 265,266 265,263 266,263 266,260 267,260 267,257 268,257 268,255 269,255 269,252 270,252 270,249 271,249 271,246 272,246 272,243 273,243 273,240 274,240 274,237 275,237 275,234 276,234 276,231 277,231 277,229 278,229 278,226 279,226 279,223 280,223 280,220 281,220 281,217 282,217 282,214 283,214 283,211 284,211 284,208 285,208 285,205 286,205 286,203 287,203 287,200 288,200 288,197 289,197 289,194 290,194 290,191 291,191 291,188 292,188 292,185 293,185 293,182 343,182 343,409 307,409 307,245 306,245 306,248 305,248 305,251 304,251 304,254 303,254 303,257 302,257 302,259 301,259 301,262 300,262 300,265 299,265 299,268 298,268 298,271 297,271 297,274 296,274 296,277 295,277 295,279 294,279 294,282 293,282 293,285 292,285 292,288 291,288 291,291 290,291 290,294 289,294 289,296 288,296 288,299 287,299 287,302 286,302 286,305 285,305 285,308 284,308 284,311 283,311 283,314 282,314 282,316 281,316 281,319 280,319 280,322 279,322 279,325 278,325 278,328 277,328 277,331 276,331 276,334 275,334 275,336 274,336 274,339 273,339 273,342 272,342 272,345 271,345 271,348 270,348 270,351 269,351 269,353 268,353 268,356 267,356 267,359 266,359 266,362 265,362 265,365 264,365 264,368 263,368 263,371 262,371 262,373 261,373 261,376 260,376 260,379 259,379 259,382 258,382 258,385 257,385 257,388 256,388 256,391 255,391 255,393 254,393 254,396 253,396 253,399 252,399 252,402 251,402 251,405 250,405 250,408 249,408 249,409 230,409 214,409 214,407 213,407 213,405 212,405 212,402 211,402 211,399 210,399 210,396 209,396 209,393 208,393 208,390 207,390 207,387 206,387 206,384 205,384 205,381 204,381 204,378 203,378 203,375 202,375 202,373 201,373 201,370 200,370 200,367 199,367 199,364 198,364 198,361 197,361 197,358 196,358 196,355 195,355 195,352 194,352 194,349 193,349 193,346 192,346 192,343 191,343 191,341 190,341 190,338 189,338 189,335 188,335 188,332 187,332 187,329 186,329 186,326 185,326 185,323 184,323 184,320 183,320 183,317 182,317 182,314 181,314 181,311 180,311 180,309 179,309 179,306 178,306 178,303 177,303 177,300 176,300 176,297 175,297 175,294 174,294 174,291 173,291 173,288 172,288 172,285 171,285 171,282 170,282 170,280 169,280 169,277 168,277 168,274 167,274 167,271 166,271 166,268 165,268 165,265 164,265 164,262 163,262 163,259 162,259 162,256 161,256 161,253 160,253 160,250 159,250 159,248 158,248 158,245 157,245 157,409 122,409 z" fill="#ff6b00" fill-opacity="1.0" id="xff6b00_r255_g107_b0_a1.0_shape2"/>
    <path d="M 526,293 527,293 527,299 528,299 528,306 529,306 529,341 528,341 528,348 527,348 527,354 526,354 526,358 525,358 525,362 524,362 524,365 523,365 523,368 522,368 522,371 521,371 521,373 520,373 520,375 519,375 519,377 518,377 518,379 517,379 517,381 516,381 516,383 515,383 515,384 514,384 514,386 513,386 513,387 512,387 512,388 511,388 511,390 510,390 510,391 509,391 509,392 508,392 508,393 507,393 507,394 506,394 506,395 505,395 505,396 504,396 504,397 503,397 503,398 502,398 502,399 501,399 501,400 499,400 499,401 498,401 498,402 496,402 496,403 495,403 495,404 493,404 493,405 491,405 491,406 489,406 489,407 487,407 487,408 484,408 484,409 482,409 482,410 478,410 478,411 473,411 473,412 464,412 464,413 457,413 457,412 448,412 448,411 443,411 443,410 439,410 439,409 436,409 436,408 433,408 433,407 430,407 430,406 428,406 428,405 426,405 426,404 424,404 424,403 422,403 422,402 421,402 421,472 385,472 385,323 385,245 392,245 418,245 418,252 419,252 419,258 421,258 421,257 423,257 423,256 424,256 424,255 426,255 426,254 427,254 427,253 429,253 429,252 431,252 431,251 433,251 433,250 435,250 435,249 437,249 437,248 440,248 440,247 443,247 443,246 446,246 446,245 450,245 450,244 455,244 455,243 464,243 464,242 473,242 473,243 481,243 481,244 486,244 486,245 489,245 489,246 492,246 492,247 494,247 494,248 496,248 496,249 498,249 498,250 500,250 500,251 502,251 502,252 503,252 503,253 504,253 504,254 506,254 506,255 507,255 507,256 508,256 508,257 509,257 509,258 510,258 510,259 511,259 511,260 512,260 512,262 513,262 513,263 514,263 514,264 515,264 515,266 516,266 516,267 517,267 517,269 518,269 518,271 519,271 519,272 520,272 520,274 521,274 521,277 522,277 522,279 523,279 523,282 524,282 524,285 525,285 525,289 526,289 z M 484,285 484,284 483,284 483,282 482,282 482,281 481,281 481,280 479,280 479,279 478,279 478,278 476,278 476,277 474,277 474,276 471,276 471,275 468,275 464,275 464,274 462,274 457,274 457,275 451,275 451,276 447,276 447,277 444,277 444,278 442,278 441,278 441,279 440,279 439,279 439,280 438,280 437,280 437,281 436,281 435,281 435,282 434,282 434,283 432,283 432,284 430,284 430,285 429,285 429,286 427,286 427,287 426,287 426,288 425,288 425,289 424,289 424,290 422,290 422,299 422,311 422,368 423,368 423,369 425,369 425,370 426,370 426,371 428,371 428,372 430,372 430,373 431,373 431,374 433,374 433,375 436,375 436,376 438,376 438,377 441,377 441,378 444,378 444,379 448,379 448,380 466,380 466,379 469,379 469,378 472,378 472,377 474,377 474,376 475,376 475,375 477,375 477,374 478,374 478,373 479,373 479,372 480,372 480,371 481,371 481,369 482,369 482,368 483,368 483,367 484,367 484,365 485,365 485,363 486,363 486,361 487,361 487,358 488,358 488,355 489,355 489,352 490,352 490,347 491,347 491,340 492,340 492,307 491,307 491,301 490,301 490,297 489,297 489,293 488,293 488,291 487,291 487,288 486,288 486,287 485,287 485,285 z" fill="#ff6b00" fill-opacity="1.0" id="xff6b00_r255_g107_b0_a1.0_shape3"/>
  </g>
  <g id="xff6b00_r255_g107_b0_a0.5019607843137255">
    <path d="M 0,201 1,201 1,637 437,637 437,638 63,638 0,638 z" fill="#ff6b00" fill-opacity="0.5019607843137255" id="xff6b00_r255_g107_b0_a0.5019607843137255_shape1"/>
    <path d="M 201,1 201,0 538,0 638,0 638,437 637,437 637,269 637,1 270,1 z" fill="#ff6b00" fill-opacity="0.5019607843137255" id="xff6b00_r255_g107_b0_a0.5019607843137255_shape2"/>
    <path d="M 1,189 2,189 2,198 1,198 z" fill="#ff6b00" fill-opacity="0.5019607843137255" id="xff6b00_r255_g107_b0_a0.5019607843137255_shape3"/>
    <path d="M 189,1 198,1 198,2 189,2 z" fill="#ff6b00" fill-opacity="0.5019607843137255" id="xff6b00_r255_g107_b0_a0.5019607843137255_shape4"/>
    <path d="M 449,636 449,637 440,637 440,636 z" fill="#ff6b00" fill-opacity="0.5019607843137255" id="xff6b00_r255_g107_b0_a0.5019607843137255_shape5"/>
    <path d="M 636,449 636,440 637,440 637,449 z" fill="#ff6b00" fill-opacity="0.5019607843137255" id="xff6b00_r255_g107_b0_a0.5019607843137255_shape6"/>
    <path d="M 28,110 27,110 27,109 27,108 28,108 28,107 29,107 29,109 28,109 z" fill="#ff6b00" fill-opacity="0.5019607843137255" id="xff6b00_r255_g107_b0_a0.5019607843137255_shape7"/>
    <path d="M 32,102 32,104 31,104 31,105 30,105 30,103 31,103 31,102 z" fill="#ff6b00" fill-opacity="0.5019607843137255" id="xff6b00_r255_g107_b0_a0.5019607843137255_shape8"/>
    <path d="M 107,29 107,28 108,28 108,27 110,27 110,28 109,28 109,29 108,29 z" fill="#ff6b00" fill-opacity="0.5019607843137255" id="xff6b00_r255_g107_b0_a0.5019607843137255_shape9"/>
    <path d="M 531,609 531,610 530,610 530,611 528,611 528,610 529,610 529,609 z" fill="#ff6b00" fill-opacity="0.5019607843137255" id="xff6b00_r255_g107_b0_a0.5019607843137255_shape10"/>
    <path d="M 533,607 534,607 534,606 536,606 536,607 535,607 535,608 533,608 z" fill="#ff6b00" fill-opacity="0.5019607843137255" id="xff6b00_r255_g107_b0_a0.5019607843137255_shape11"/>
    <path d="M 606,536 606,534 607,534 607,533 608,533 608,535 607,535 607,536 z" fill="#ff6b00" fill-opacity="0.5019607843137255" id="xff6b00_r255_g107_b0_a0.5019607843137255_shape12"/>
    <path d="M 609,529 610,529 610,528 611,528 611,530 610,530 610,531 609,531 z" fill="#ff6b00" fill-opacity="0.5019607843137255" id="xff6b00_r255_g107_b0_a0.5019607843137255_shape13"/>
    <path d="M 15,133 16,133 16,135 16,136 15,136 15,135 z" fill="#ff6b00" fill-opacity="0.5019607843137255" id="xff6b00_r255_g107_b0_a0.5019607843137255_shape14"/>
    <path d="M 136,16 133,16 133,15 136,15 z" fill="#ff6b00" fill-opacity="0.5019607843137255" id="xff6b00_r255_g107_b0_a0.5019607843137255_shape15"/>
    <path d="M 505,622 505,623 502,623 502,622 z" fill="#ff6b00" fill-opacity="0.5019607843137255" id="xff6b00_r255_g107_b0_a0.5019607843137255_shape16"/>
    <path d="M 623,505 622,505 622,502 623,502 z" fill="#ff6b00" fill-opacity="0.5019607843137255" id="xff6b00_r255_g107_b0_a0.5019607843137255_shape17"/>
    <path d="M 102,32 102,31 103,31 103,32 z" fill="#ff6b00" fill-opacity="0.5019607843137255" id="xff6b00_r255_g107_b0_a0.5019607843137255_shape18"/>
  </g>
  <g id="xff6b00_r255_g107_b0_a0.3137254901960784">
    <path d="M 45,83 45,81 46,81 46,80 47,80 47,79 48,79 48,81 47,81 47,82 46,82 46,83 z" fill="#ff6b00" fill-opacity="0.3137254901960784" id="xff6b00_r255_g107_b0_a0.3137254901960784_shape1"/>
    <path d="M 83,46 82,46 82,47 81,47 81,48 79,48 79,47 80,47 80,46 81,46 81,45 82,45 83,45 z" fill="#ff6b00" fill-opacity="0.3137254901960784" id="xff6b00_r255_g107_b0_a0.3137254901960784_shape2"/>
    <path d="M 557,591 557,590 559,590 559,591 558,591 558,592 557,592 557,593 556,593 555,593 555,592 556,592 556,591 z" fill="#ff6b00" fill-opacity="0.3137254901960784" id="xff6b00_r255_g107_b0_a0.3137254901960784_shape3"/>
    <path d="M 591,559 590,559 590,557 591,557 591,556 592,556 592,555 593,555 593,556 593,557 592,557 592,558 591,558 z" fill="#ff6b00" fill-opacity="0.3137254901960784" id="xff6b00_r255_g107_b0_a0.3137254901960784_shape4"/>
    <path d="M 3,175 4,175 4,177 4,180 3,180 3,179 z" fill="#ff6b00" fill-opacity="0.3137254901960784" id="xff6b00_r255_g107_b0_a0.3137254901960784_shape5"/>
    <path d="M 180,3 180,4 175,4 175,3 z" fill="#ff6b00" fill-opacity="0.3137254901960784" id="xff6b00_r255_g107_b0_a0.3137254901960784_shape6"/>
    <path d="M 463,634 463,635 458,635 458,634 z" fill="#ff6b00" fill-opacity="0.3137254901960784" id="xff6b00_r255_g107_b0_a0.3137254901960784_shape7"/>
    <path d="M 634,458 635,458 635,462 635,463 634,463 634,462 z" fill="#ff6b00" fill-opacity="0.3137254901960784" id="xff6b00_r255_g107_b0_a0.3137254901960784_shape8"/>
    <path d="M 6,169 5,169 5,166 5,165 6,165 6,166 z" fill="#ff6b00" fill-opacity="0.3137254901960784" id="xff6b00_r255_g107_b0_a0.3137254901960784_shape9"/>
    <path d="M 35,99 34,99 34,100 33,100 33,98 34,98 34,97 35,97 z" fill="#ff6b00" fill-opacity="0.3137254901960784" id="xff6b00_r255_g107_b0_a0.3137254901960784_shape10"/>
    <path d="M 36,96 36,97 35,97 35,95 36,95 36,94 37,94 37,96 z" fill="#ff6b00" fill-opacity="0.3137254901960784" id="xff6b00_r255_g107_b0_a0.3137254901960784_shape11"/>
    <path d="M 37,92 38,92 38,91 39,91 39,93 38,93 38,94 37,94 z" fill="#ff6b00" fill-opacity="0.3137254901960784" id="xff6b00_r255_g107_b0_a0.3137254901960784_shape12"/>
    <path d="M 91,38 92,38 92,37 94,37 94,38 93,38 93,39 91,39 z" fill="#ff6b00" fill-opacity="0.3137254901960784" id="xff6b00_r255_g107_b0_a0.3137254901960784_shape13"/>
    <path d="M 96,37 94,37 94,36 95,36 95,35 97,35 97,36 96,36 z" fill="#ff6b00" fill-opacity="0.3137254901960784" id="xff6b00_r255_g107_b0_a0.3137254901960784_shape14"/>
    <path d="M 98,34 98,33 99,33 100,33 100,34 99,34 99,35 97,35 97,34 z" fill="#ff6b00" fill-opacity="0.3137254901960784" id="xff6b00_r255_g107_b0_a0.3137254901960784_shape15"/>
    <path d="M 169,5 169,6 166,6 165,6 165,5 166,5 z" fill="#ff6b00" fill-opacity="0.3137254901960784" id="xff6b00_r255_g107_b0_a0.3137254901960784_shape16"/>
    <path d="M 469,633 469,632 471,632 473,632 473,633 472,633 z" fill="#ff6b00" fill-opacity="0.3137254901960784" id="xff6b00_r255_g107_b0_a0.3137254901960784_shape17"/>
    <path d="M 540,604 540,605 539,605 538,605 538,604 539,604 539,603 541,603 541,604 z" fill="#ff6b00" fill-opacity="0.3137254901960784" id="xff6b00_r255_g107_b0_a0.3137254901960784_shape18"/>
    <path d="M 542,602 542,601 543,601 544,601 544,602 543,602 543,603 541,603 541,602 z" fill="#ff6b00" fill-opacity="0.3137254901960784" id="xff6b00_r255_g107_b0_a0.3137254901960784_shape19"/>
    <path d="M 545,599 547,599 547,600 546,600 546,601 544,601 544,600 545,600 z" fill="#ff6b00" fill-opacity="0.3137254901960784" id="xff6b00_r255_g107_b0_a0.3137254901960784_shape20"/>
    <path d="M 600,545 600,544 601,544 601,546 600,546 600,547 599,547 599,545 z" fill="#ff6b00" fill-opacity="0.3137254901960784" id="xff6b00_r255_g107_b0_a0.3137254901960784_shape21"/>
    <path d="M 602,542 602,541 603,541 603,543 602,543 602,544 601,544 601,542 z" fill="#ff6b00" fill-opacity="0.3137254901960784" id="xff6b00_r255_g107_b0_a0.3137254901960784_shape22"/>
    <path d="M 604,541 603,541 603,540 603,539 604,539 604,538 605,538 605,540 604,540 z" fill="#ff6b00" fill-opacity="0.3137254901960784" id="xff6b00_r255_g107_b0_a0.3137254901960784_shape23"/>
    <path d="M 632,469 633,469 633,471 633,473 632,473 632,472 z" fill="#ff6b00" fill-opacity="0.3137254901960784" id="xff6b00_r255_g107_b0_a0.3137254901960784_shape24"/>
  </g>
  <g id="xff6b00_r255_g107_b0_a0.3764705882352941">
    <path d="M 19,128 19,129 18,129 18,130 18,131 17,131 17,130 17,128 18,128 18,126 19,126 z" fill="#ff6b00" fill-opacity="0.3764705882352941" id="xff6b00_r255_g107_b0_a0.3764705882352941_shape1"/>
    <path d="M 131,18 129,18 129,19 126,19 126,18 128,18 128,17 131,17 z" fill="#ff6b00" fill-opacity="0.3764705882352941" id="xff6b00_r255_g107_b0_a0.3764705882352941_shape2"/>
    <path d="M 512,619 512,620 510,620 510,621 507,621 507,620 509,620 509,619 z" fill="#ff6b00" fill-opacity="0.3764705882352941" id="xff6b00_r255_g107_b0_a0.3764705882352941_shape3"/>
    <path d="M 620,510 620,512 619,512 619,509 620,509 620,507 621,507 621,510 z" fill="#ff6b00" fill-opacity="0.3764705882352941" id="xff6b00_r255_g107_b0_a0.3764705882352941_shape4"/>
    <path d="M 4,171 4,170 5,170 5,171 5,174 4,174 z" fill="#ff6b00" fill-opacity="0.3764705882352941" id="xff6b00_r255_g107_b0_a0.3764705882352941_shape5"/>
    <path d="M 8,161 7,161 7,158 7,157 8,157 8,158 z" fill="#ff6b00" fill-opacity="0.3764705882352941" id="xff6b00_r255_g107_b0_a0.3764705882352941_shape6"/>
    <path d="M 161,8 157,8 157,7 161,7 z" fill="#ff6b00" fill-opacity="0.3764705882352941" id="xff6b00_r255_g107_b0_a0.3764705882352941_shape7"/>
    <path d="M 174,4 174,5 171,5 170,5 170,4 171,4 z" fill="#ff6b00" fill-opacity="0.3764705882352941" id="xff6b00_r255_g107_b0_a0.3764705882352941_shape8"/>
    <path d="M 464,633 468,633 468,634 464,634 z" fill="#ff6b00" fill-opacity="0.3764705882352941" id="xff6b00_r255_g107_b0_a0.3764705882352941_shape9"/>
    <path d="M 478,631 477,631 477,630 478,630 481,630 481,631 z" fill="#ff6b00" fill-opacity="0.3764705882352941" id="xff6b00_r255_g107_b0_a0.3764705882352941_shape10"/>
    <path d="M 630,477 631,477 631,478 631,481 630,481 630,479 z" fill="#ff6b00" fill-opacity="0.3764705882352941" id="xff6b00_r255_g107_b0_a0.3764705882352941_shape11"/>
    <path d="M 633,465 633,464 634,464 634,465 634,468 633,468 z" fill="#ff6b00" fill-opacity="0.3764705882352941" id="xff6b00_r255_g107_b0_a0.3764705882352941_shape12"/>
    <path d="M 10,153 9,153 9,150 10,150 z" fill="#ff6b00" fill-opacity="0.3764705882352941" id="xff6b00_r255_g107_b0_a0.3764705882352941_shape13"/>
    <path d="M 13,138 14,138 14,140 14,141 13,141 13,140 z" fill="#ff6b00" fill-opacity="0.3764705882352941" id="xff6b00_r255_g107_b0_a0.3764705882352941_shape14"/>
    <path d="M 141,13 141,14 139,14 138,14 138,13 139,13 z" fill="#ff6b00" fill-opacity="0.3764705882352941" id="xff6b00_r255_g107_b0_a0.3764705882352941_shape15"/>
    <path d="M 150,10 150,9 152,9 153,9 153,10 152,10 z" fill="#ff6b00" fill-opacity="0.3764705882352941" id="xff6b00_r255_g107_b0_a0.3764705882352941_shape16"/>
    <path d="M 485,629 485,628 488,628 488,629 z" fill="#ff6b00" fill-opacity="0.3764705882352941" id="xff6b00_r255_g107_b0_a0.3764705882352941_shape17"/>
    <path d="M 497,625 497,624 499,624 500,624 500,625 499,625 z" fill="#ff6b00" fill-opacity="0.3764705882352941" id="xff6b00_r255_g107_b0_a0.3764705882352941_shape18"/>
    <path d="M 624,497 625,497 625,499 625,500 624,500 624,499 z" fill="#ff6b00" fill-opacity="0.3764705882352941" id="xff6b00_r255_g107_b0_a0.3764705882352941_shape19"/>
    <path d="M 628,485 629,485 629,488 628,488 z" fill="#ff6b00" fill-opacity="0.3764705882352941" id="xff6b00_r255_g107_b0_a0.3764705882352941_shape20"/>
    <path d="M 54,72 54,73 53,73 53,72 z" fill="#ff6b00" fill-opacity="0.3764705882352941" id="xff6b00_r255_g107_b0_a0.3764705882352941_shape21"/>
    <path d="M 72,53 73,53 73,54 72,54 z" fill="#ff6b00" fill-opacity="0.3764705882352941" id="xff6b00_r255_g107_b0_a0.3764705882352941_shape22"/>
    <path d="M 565,584 566,584 566,585 565,585 z" fill="#ff6b00" fill-opacity="0.3764705882352941" id="xff6b00_r255_g107_b0_a0.3764705882352941_shape23"/>
    <path d="M 584,565 585,565 585,566 584,566 z" fill="#ff6b00" fill-opacity="0.3764705882352941" id="xff6b00_r255_g107_b0_a0.3764705882352941_shape24"/>
  </g>
  <g id="xff6b00_r255_g107_b0_a0.4392156862745098">
    <path d="M 7,161 7,165 6,165 6,161 z" fill="#ff6b00" fill-opacity="0.4392156862745098" id="xff6b00_r255_g107_b0_a0.4392156862745098_shape1"/>
    <path d="M 161,7 161,6 163,6 165,6 165,7 164,7 z" fill="#ff6b00" fill-opacity="0.4392156862745098" id="xff6b00_r255_g107_b0_a0.4392156862745098_shape2"/>
    <path d="M 473,632 473,631 476,631 477,631 477,632 476,632 z" fill="#ff6b00" fill-opacity="0.4392156862745098" id="xff6b00_r255_g107_b0_a0.4392156862745098_shape3"/>
    <path d="M 632,477 631,477 631,475 631,473 632,473 632,474 z" fill="#ff6b00" fill-opacity="0.4392156862745098" id="xff6b00_r255_g107_b0_a0.4392156862745098_shape4"/>
    <path d="M 10,147 11,147 11,150 10,150 z" fill="#ff6b00" fill-opacity="0.4392156862745098" id="xff6b00_r255_g107_b0_a0.4392156862745098_shape5"/>
    <path d="M 12,141 13,141 13,144 12,144 z" fill="#ff6b00" fill-opacity="0.4392156862745098" id="xff6b00_r255_g107_b0_a0.4392156862745098_shape6"/>
    <path d="M 141,13 141,12 143,12 144,12 144,13 143,13 z" fill="#ff6b00" fill-opacity="0.4392156862745098" id="xff6b00_r255_g107_b0_a0.4392156862745098_shape7"/>
    <path d="M 150,10 150,11 148,11 147,11 147,10 148,10 z" fill="#ff6b00" fill-opacity="0.4392156862745098" id="xff6b00_r255_g107_b0_a0.4392156862745098_shape8"/>
    <path d="M 491,627 491,628 488,628 488,627 z" fill="#ff6b00" fill-opacity="0.4392156862745098" id="xff6b00_r255_g107_b0_a0.4392156862745098_shape9"/>
    <path d="M 497,625 497,626 494,626 494,625 z" fill="#ff6b00" fill-opacity="0.4392156862745098" id="xff6b00_r255_g107_b0_a0.4392156862745098_shape10"/>
    <path d="M 626,497 625,497 625,494 626,494 z" fill="#ff6b00" fill-opacity="0.4392156862745098" id="xff6b00_r255_g107_b0_a0.4392156862745098_shape11"/>
    <path d="M 628,491 627,491 627,489 627,488 628,488 628,489 z" fill="#ff6b00" fill-opacity="0.4392156862745098" id="xff6b00_r255_g107_b0_a0.4392156862745098_shape12"/>
    <path d="M 42,87 42,88 41,88 41,87 z" fill="#ff6b00" fill-opacity="0.4392156862745098" id="xff6b00_r255_g107_b0_a0.4392156862745098_shape13"/>
    <path d="M 45,84 44,84 44,83 45,83 z" fill="#ff6b00" fill-opacity="0.4392156862745098" id="xff6b00_r255_g107_b0_a0.4392156862745098_shape14"/>
    <path d="M 48,79 48,78 49,78 49,79 z" fill="#ff6b00" fill-opacity="0.4392156862745098" id="xff6b00_r255_g107_b0_a0.4392156862745098_shape15"/>
    <path d="M 54,72 54,71 55,71 55,72 z" fill="#ff6b00" fill-opacity="0.4392156862745098" id="xff6b00_r255_g107_b0_a0.4392156862745098_shape16"/>
    <path d="M 72,54 72,55 71,55 71,54 z" fill="#ff6b00" fill-opacity="0.4392156862745098" id="xff6b00_r255_g107_b0_a0.4392156862745098_shape17"/>
    <path d="M 78,49 78,48 79,48 79,49 z" fill="#ff6b00" fill-opacity="0.4392156862745098" id="xff6b00_r255_g107_b0_a0.4392156862745098_shape18"/>
    <path d="M 83,44 84,44 84,45 83,45 z" fill="#ff6b00" fill-opacity="0.4392156862745098" id="xff6b00_r255_g107_b0_a0.4392156862745098_shape19"/>
    <path d="M 87,42 87,41 88,41 88,42 z" fill="#ff6b00" fill-opacity="0.4392156862745098" id="xff6b00_r255_g107_b0_a0.4392156862745098_shape20"/>
    <path d="M 550,597 550,596 551,596 551,597 z" fill="#ff6b00" fill-opacity="0.4392156862745098" id="xff6b00_r255_g107_b0_a0.4392156862745098_shape21"/>
    <path d="M 555,593 555,594 554,594 554,593 z" fill="#ff6b00" fill-opacity="0.4392156862745098" id="xff6b00_r255_g107_b0_a0.4392156862745098_shape22"/>
    <path d="M 560,589 560,590 559,590 559,589 z" fill="#ff6b00" fill-opacity="0.4392156862745098" id="xff6b00_r255_g107_b0_a0.4392156862745098_shape23"/>
    <path d="M 566,583 567,583 567,584 566,584 z" fill="#ff6b00" fill-opacity="0.4392156862745098" id="xff6b00_r255_g107_b0_a0.4392156862745098_shape24"/>
    <path d="M 583,566 584,566 584,567 583,567 z" fill="#ff6b00" fill-opacity="0.4392156862745098" id="xff6b00_r255_g107_b0_a0.4392156862745098_shape25"/>
    <path d="M 589,560 589,559 590,559 590,560 z" fill="#ff6b00" fill-opacity="0.4392156862745098" id="xff6b00_r255_g107_b0_a0.4392156862745098_shape26"/>
    <path d="M 593,555 593,554 594,554 594,555 z" fill="#ff6b00" fill-opacity="0.4392156862745098" id="xff6b00_r255_g107_b0_a0.4392156862745098_shape27"/>
    <path d="M 596,550 597,550 597,551 596,551 z" fill="#ff6b00" fill-opacity="0.4392156862745098" id="xff6b00_r255_g107_b0_a0.4392156862745098_shape28"/>
  </g>
  <g id="xff6b00_r255_g107_b0_a0.7529411764705882">
    <path d="M 3,187 2,187 2,181 3,181 z" fill="#ff6b00" fill-opacity="0.7529411764705882" id="xff6b00_r255_g107_b0_a0.7529411764705882_shape1"/>
    <path d="M 187,2 187,3 181,3 181,2 z" fill="#ff6b00" fill-opacity="0.7529411764705882" id="xff6b00_r255_g107_b0_a0.7529411764705882_shape2"/>
    <path d="M 457,635 457,636 451,636 451,635 z" fill="#ff6b00" fill-opacity="0.7529411764705882" id="xff6b00_r255_g107_b0_a0.7529411764705882_shape3"/>
    <path d="M 636,457 635,457 635,451 636,451 z" fill="#ff6b00" fill-opacity="0.7529411764705882" id="xff6b00_r255_g107_b0_a0.7529411764705882_shape4"/>
    <path d="M 20,123 20,122 21,122 21,123 21,124 20,124 z" fill="#ff6b00" fill-opacity="0.7529411764705882" id="xff6b00_r255_g107_b0_a0.7529411764705882_shape5"/>
    <path d="M 22,122 21,122 21,121 21,120 22,120 22,121 z" fill="#ff6b00" fill-opacity="0.7529411764705882" id="xff6b00_r255_g107_b0_a0.7529411764705882_shape6"/>
    <path d="M 25,114 25,112 26,112 26,114 z" fill="#ff6b00" fill-opacity="0.7529411764705882" id="xff6b00_r255_g107_b0_a0.7529411764705882_shape7"/>
    <path d="M 105,31 103,31 103,30 105,30 z" fill="#ff6b00" fill-opacity="0.7529411764705882" id="xff6b00_r255_g107_b0_a0.7529411764705882_shape8"/>
    <path d="M 114,26 112,26 112,25 114,25 z" fill="#ff6b00" fill-opacity="0.7529411764705882" id="xff6b00_r255_g107_b0_a0.7529411764705882_shape9"/>
    <path d="M 121,21 122,21 122,22 121,22 120,22 120,21 z" fill="#ff6b00" fill-opacity="0.7529411764705882" id="xff6b00_r255_g107_b0_a0.7529411764705882_shape10"/>
    <path d="M 124,21 122,21 122,20 124,20 z" fill="#ff6b00" fill-opacity="0.7529411764705882" id="xff6b00_r255_g107_b0_a0.7529411764705882_shape11"/>
    <path d="M 515,618 514,618 514,617 515,617 516,617 516,618 z" fill="#ff6b00" fill-opacity="0.7529411764705882" id="xff6b00_r255_g107_b0_a0.7529411764705882_shape12"/>
    <path d="M 517,616 518,616 518,617 517,617 516,617 516,616 z" fill="#ff6b00" fill-opacity="0.7529411764705882" id="xff6b00_r255_g107_b0_a0.7529411764705882_shape13"/>
    <path d="M 522,614 522,613 523,613 524,613 524,614 523,614 z" fill="#ff6b00" fill-opacity="0.7529411764705882" id="xff6b00_r255_g107_b0_a0.7529411764705882_shape14"/>
    <path d="M 525,613 524,613 524,612 525,612 526,612 526,613 z" fill="#ff6b00" fill-opacity="0.7529411764705882" id="xff6b00_r255_g107_b0_a0.7529411764705882_shape15"/>
    <path d="M 612,526 612,524 613,524 613,526 z" fill="#ff6b00" fill-opacity="0.7529411764705882" id="xff6b00_r255_g107_b0_a0.7529411764705882_shape16"/>
    <path d="M 614,522 614,524 613,524 613,522 z" fill="#ff6b00" fill-opacity="0.7529411764705882" id="xff6b00_r255_g107_b0_a0.7529411764705882_shape17"/>
    <path d="M 617,517 617,518 616,518 616,517 616,516 617,516 z" fill="#ff6b00" fill-opacity="0.7529411764705882" id="xff6b00_r255_g107_b0_a0.7529411764705882_shape18"/>
    <path d="M 617,515 617,514 618,514 618,515 618,516 617,516 z" fill="#ff6b00" fill-opacity="0.7529411764705882" id="xff6b00_r255_g107_b0_a0.7529411764705882_shape19"/>
  </g>
  <g id="xff6b00_r255_g107_b0_a0.8156862745098039">
    <path d="M 57,69 57,67 58,67 58,66 59,66 59,65 60,65 60,64 61,64 61,63 62,63 62,62 63,62 63,61 64,61 64,60 65,60 65,59 66,59 66,58 67,58 67,57 69,57 69,58 68,58 68,59 67,59 67,60 66,60 66,61 65,61 65,62 64,62 64,63 63,63 63,64 62,64 62,65 61,65 61,66 60,66 60,67 59,67 59,68 58,68 58,69 z" fill="#ff6b00" fill-opacity="0.8156862745098039" id="xff6b00_r255_g107_b0_a0.8156862745098039_shape1"/>
    <path d="M 575,574 576,574 576,573 577,573 577,572 578,572 578,571 579,571 579,570 580,570 580,569 581,569 581,570 581,571 580,571 580,572 579,572 579,573 578,573 578,574 577,574 577,575 576,575 576,576 575,576 575,577 574,577 574,578 573,578 573,579 572,579 572,580 571,580 571,581 569,581 569,580 570,580 570,579 571,579 571,578 572,578 572,577 573,577 573,576 574,576 574,575 575,575 z" fill="#ff6b00" fill-opacity="0.8156862745098039" id="xff6b00_r255_g107_b0_a0.8156862745098039_shape2"/>
    <path d="M 24,115 24,114 25,114 25,115 25,116 24,116 z" fill="#ff6b00" fill-opacity="0.8156862745098039" id="xff6b00_r255_g107_b0_a0.8156862745098039_shape3"/>
    <path d="M 115,25 114,25 114,24 115,24 116,24 116,25 z" fill="#ff6b00" fill-opacity="0.8156862745098039" id="xff6b00_r255_g107_b0_a0.8156862745098039_shape4"/>
  </g>
  <g id="xff6b00_r255_g107_b0_a0.6274509803921569">
    <path d="M 15,138 14,138 14,137 14,136 15,136 15,137 z" fill="#ff6b00" fill-opacity="0.6274509803921569" id="xff6b00_r255_g107_b0_a0.6274509803921569_shape1"/>
    <path d="M 16,133 16,131 17,131 17,133 z" fill="#ff6b00" fill-opacity="0.6274509803921569" id="xff6b00_r255_g107_b0_a0.6274509803921569_shape2"/>
    <path d="M 20,125 20,126 19,126 19,125 19,124 20,124 z" fill="#ff6b00" fill-opacity="0.6274509803921569" id="xff6b00_r255_g107_b0_a0.6274509803921569_shape3"/>
    <path d="M 125,19 126,19 126,20 125,20 124,20 124,19 z" fill="#ff6b00" fill-opacity="0.6274509803921569" id="xff6b00_r255_g107_b0_a0.6274509803921569_shape4"/>
    <path d="M 133,17 131,17 131,16 133,16 z" fill="#ff6b00" fill-opacity="0.6274509803921569" id="xff6b00_r255_g107_b0_a0.6274509803921569_shape5"/>
    <path d="M 136,15 136,14 137,14 138,14 138,15 137,15 z" fill="#ff6b00" fill-opacity="0.6274509803921569" id="xff6b00_r255_g107_b0_a0.6274509803921569_shape6"/>
    <path d="M 502,623 502,624 501,624 500,624 500,623 501,623 z" fill="#ff6b00" fill-opacity="0.6274509803921569" id="xff6b00_r255_g107_b0_a0.6274509803921569_shape7"/>
    <path d="M 507,621 507,622 506,622 505,622 505,621 506,621 z" fill="#ff6b00" fill-opacity="0.6274509803921569" id="xff6b00_r255_g107_b0_a0.6274509803921569_shape8"/>
    <path d="M 514,618 514,619 513,619 512,619 512,618 513,618 z" fill="#ff6b00" fill-opacity="0.6274509803921569" id="xff6b00_r255_g107_b0_a0.6274509803921569_shape9"/>
    <path d="M 618,513 618,512 619,512 619,513 619,514 618,514 z" fill="#ff6b00" fill-opacity="0.6274509803921569" id="xff6b00_r255_g107_b0_a0.6274509803921569_shape10"/>
    <path d="M 622,506 622,507 621,507 621,506 621,505 622,505 z" fill="#ff6b00" fill-opacity="0.6274509803921569" id="xff6b00_r255_g107_b0_a0.6274509803921569_shape11"/>
    <path d="M 624,500 624,502 623,502 623,500 z" fill="#ff6b00" fill-opacity="0.6274509803921569" id="xff6b00_r255_g107_b0_a0.6274509803921569_shape12"/>
    <path d="M 56,71 55,71 55,70 56,70 z" fill="#ff6b00" fill-opacity="0.6274509803921569" id="xff6b00_r255_g107_b0_a0.6274509803921569_shape13"/>
    <path d="M 57,70 56,70 56,69 57,69 z" fill="#ff6b00" fill-opacity="0.6274509803921569" id="xff6b00_r255_g107_b0_a0.6274509803921569_shape14"/>
    <path d="M 69,56 70,56 70,57 69,57 z" fill="#ff6b00" fill-opacity="0.6274509803921569" id="xff6b00_r255_g107_b0_a0.6274509803921569_shape15"/>
    <path d="M 71,56 70,56 70,55 71,55 z" fill="#ff6b00" fill-opacity="0.6274509803921569" id="xff6b00_r255_g107_b0_a0.6274509803921569_shape16"/>
    <path d="M 567,583 567,582 568,582 568,583 z" fill="#ff6b00" fill-opacity="0.6274509803921569" id="xff6b00_r255_g107_b0_a0.6274509803921569_shape17"/>
    <path d="M 568,582 568,581 569,581 569,582 z" fill="#ff6b00" fill-opacity="0.6274509803921569" id="xff6b00_r255_g107_b0_a0.6274509803921569_shape18"/>
    <path d="M 582,569 581,569 581,568 582,568 z" fill="#ff6b00" fill-opacity="0.6274509803921569" id="xff6b00_r255_g107_b0_a0.6274509803921569_shape19"/>
    <path d="M 583,567 583,568 582,568 582,567 z" fill="#ff6b00" fill-opacity="0.6274509803921569" id="xff6b00_r255_g107_b0_a0.6274509803921569_shape20"/>
  </g>
  <g id="xff6b00_r255_g107_b0_a0.8784313725490196">
    <path d="M 22,119 22,118 23,118 23,119 23,120 22,120 z" fill="#ff6b00" fill-opacity="0.8784313725490196" id="xff6b00_r255_g107_b0_a0.8784313725490196_shape1"/>
    <path d="M 24,116 24,118 23,118 23,116 z" fill="#ff6b00" fill-opacity="0.8784313725490196" id="xff6b00_r255_g107_b0_a0.8784313725490196_shape2"/>
    <path d="M 30,106 30,107 29,107 29,106 29,105 30,105 z" fill="#ff6b00" fill-opacity="0.8784313725490196" id="xff6b00_r255_g107_b0_a0.8784313725490196_shape3"/>
    <path d="M 32,101 32,100 33,100 33,101 33,102 32,102 z" fill="#ff6b00" fill-opacity="0.8784313725490196" id="xff6b00_r255_g107_b0_a0.8784313725490196_shape4"/>
    <path d="M 102,32 102,33 101,33 100,33 100,32 101,32 z" fill="#ff6b00" fill-opacity="0.8784313725490196" id="xff6b00_r255_g107_b0_a0.8784313725490196_shape5"/>
    <path d="M 106,30 105,30 105,29 106,29 107,29 107,30 z" fill="#ff6b00" fill-opacity="0.8784313725490196" id="xff6b00_r255_g107_b0_a0.8784313725490196_shape6"/>
    <path d="M 117,24 116,24 116,23 117,23 118,23 118,24 z" fill="#ff6b00" fill-opacity="0.8784313725490196" id="xff6b00_r255_g107_b0_a0.8784313725490196_shape7"/>
    <path d="M 120,22 120,23 119,23 118,23 118,22 119,22 z" fill="#ff6b00" fill-opacity="0.8784313725490196" id="xff6b00_r255_g107_b0_a0.8784313725490196_shape8"/>
    <path d="M 519,615 520,615 520,616 519,616 518,616 518,615 z" fill="#ff6b00" fill-opacity="0.8784313725490196" id="xff6b00_r255_g107_b0_a0.8784313725490196_shape9"/>
    <path d="M 522,615 520,615 520,614 522,614 z" fill="#ff6b00" fill-opacity="0.8784313725490196" id="xff6b00_r255_g107_b0_a0.8784313725490196_shape10"/>
    <path d="M 531,609 531,608 532,608 533,608 533,609 532,609 z" fill="#ff6b00" fill-opacity="0.8784313725490196" id="xff6b00_r255_g107_b0_a0.8784313725490196_shape11"/>
    <path d="M 536,606 536,605 537,605 538,605 538,606 537,606 z" fill="#ff6b00" fill-opacity="0.8784313725490196" id="xff6b00_r255_g107_b0_a0.8784313725490196_shape12"/>
    <path d="M 605,537 605,536 606,536 606,537 606,538 605,538 z" fill="#ff6b00" fill-opacity="0.8784313725490196" id="xff6b00_r255_g107_b0_a0.8784313725490196_shape13"/>
    <path d="M 608,531 609,531 609,532 609,533 608,533 608,532 z" fill="#ff6b00" fill-opacity="0.8784313725490196" id="xff6b00_r255_g107_b0_a0.8784313725490196_shape14"/>
    <path d="M 615,520 615,522 614,522 614,520 z" fill="#ff6b00" fill-opacity="0.8784313725490196" id="xff6b00_r255_g107_b0_a0.8784313725490196_shape15"/>
    <path d="M 616,519 616,520 615,520 615,519 615,518 616,518 z" fill="#ff6b00" fill-opacity="0.8784313725490196" id="xff6b00_r255_g107_b0_a0.8784313725490196_shape16"/>
  </g>
  <g id="xff6b00_r255_g107_b0_a0.18823529411764706">
    <path d="M 40,91 39,91 39,90 39,89 40,89 40,88 41,88 41,90 40,90 z" fill="#ff6b00" fill-opacity="0.18823529411764706" id="xff6b00_r255_g107_b0_a0.18823529411764706_shape1"/>
    <path d="M 43,85 43,84 44,84 44,86 43,86 43,87 42,87 42,85 z" fill="#ff6b00" fill-opacity="0.18823529411764706" id="xff6b00_r255_g107_b0_a0.18823529411764706_shape2"/>
    <path d="M 85,42 87,42 87,43 86,43 86,44 84,44 84,43 85,43 z" fill="#ff6b00" fill-opacity="0.18823529411764706" id="xff6b00_r255_g107_b0_a0.18823529411764706_shape3"/>
    <path d="M 90,41 88,41 88,40 89,40 89,39 91,39 91,40 90,40 z" fill="#ff6b00" fill-opacity="0.18823529411764706" id="xff6b00_r255_g107_b0_a0.18823529411764706_shape4"/>
    <path d="M 549,598 549,599 548,599 547,599 547,598 548,598 548,597 550,597 550,598 z" fill="#ff6b00" fill-opacity="0.18823529411764706" id="xff6b00_r255_g107_b0_a0.18823529411764706_shape5"/>
    <path d="M 551,596 551,595 552,595 552,594 554,594 554,595 553,595 553,596 z" fill="#ff6b00" fill-opacity="0.18823529411764706" id="xff6b00_r255_g107_b0_a0.18823529411764706_shape6"/>
    <path d="M 596,551 596,553 595,553 595,554 594,554 594,552 595,552 595,551 z" fill="#ff6b00" fill-opacity="0.18823529411764706" id="xff6b00_r255_g107_b0_a0.18823529411764706_shape7"/>
    <path d="M 597,548 598,548 598,547 599,547 599,549 598,549 598,550 597,550 z" fill="#ff6b00" fill-opacity="0.18823529411764706" id="xff6b00_r255_g107_b0_a0.18823529411764706_shape8"/>
  </g>
  <g id="xff6b00_r255_g107_b0_a0.25098039215686274">
    <path d="M 51,75 51,74 52,74 52,73 53,73 53,74 53,75 52,75 52,76 51,76 51,77 50,77 50,78 49,78 49,77 49,76 50,76 50,75 z" fill="#ff6b00" fill-opacity="0.25098039215686274" id="xff6b00_r255_g107_b0_a0.25098039215686274_shape1"/>
    <path d="M 76,52 75,52 75,53 74,53 73,53 73,52 74,52 74,51 75,51 75,50 76,50 76,49 77,49 78,49 78,50 77,50 77,51 76,51 z" fill="#ff6b00" fill-opacity="0.25098039215686274" id="xff6b00_r255_g107_b0_a0.25098039215686274_shape2"/>
    <path d="M 562,587 562,586 563,586 563,585 565,585 565,586 564,586 564,587 563,587 563,588 562,588 562,589 560,589 560,588 561,588 561,587 z" fill="#ff6b00" fill-opacity="0.25098039215686274" id="xff6b00_r255_g107_b0_a0.25098039215686274_shape3"/>
    <path d="M 586,564 586,565 585,565 585,564 585,563 586,563 586,562 587,562 587,561 588,561 588,560 589,560 589,561 589,562 588,562 588,563 587,563 587,564 z" fill="#ff6b00" fill-opacity="0.25098039215686274" id="xff6b00_r255_g107_b0_a0.25098039215686274_shape4"/>
  </g>
  <g id="xff6b00_r255_g107_b0_a0.5647058823529412">
    <path d="M 9,157 8,157 8,154 9,154 z" fill="#ff6b00" fill-opacity="0.5647058823529412" id="xff6b00_r255_g107_b0_a0.5647058823529412_shape1"/>
    <path d="M 11,144 12,144 12,146 12,147 11,147 11,146 z" fill="#ff6b00" fill-opacity="0.5647058823529412" id="xff6b00_r255_g107_b0_a0.5647058823529412_shape2"/>
    <path d="M 147,12 144,12 144,11 147,11 z" fill="#ff6b00" fill-opacity="0.5647058823529412" id="xff6b00_r255_g107_b0_a0.5647058823529412_shape3"/>
    <path d="M 154,9 154,8 156,8 157,8 157,9 156,9 z" fill="#ff6b00" fill-opacity="0.5647058823529412" id="xff6b00_r255_g107_b0_a0.5647058823529412_shape4"/>
    <path d="M 484,629 484,630 482,630 481,630 481,629 482,629 z" fill="#ff6b00" fill-opacity="0.5647058823529412" id="xff6b00_r255_g107_b0_a0.5647058823529412_shape5"/>
    <path d="M 494,626 494,627 491,627 491,626 z" fill="#ff6b00" fill-opacity="0.5647058823529412" id="xff6b00_r255_g107_b0_a0.5647058823529412_shape6"/>
    <path d="M 627,494 626,494 626,492 626,491 627,491 627,492 z" fill="#ff6b00" fill-opacity="0.5647058823529412" id="xff6b00_r255_g107_b0_a0.5647058823529412_shape7"/>
    <path d="M 630,484 629,484 629,481 630,481 z" fill="#ff6b00" fill-opacity="0.5647058823529412" id="xff6b00_r255_g107_b0_a0.5647058823529412_shape8"/>
  </g>
  <g id="xff6b00_r255_g107_b0_a0.6901960784313725">
    <path d="M 27,110 27,112 26,112 26,110 z" fill="#ff6b00" fill-opacity="0.6901960784313725" id="xff6b00_r255_g107_b0_a0.6901960784313725_shape1"/>
    <path d="M 111,26 112,26 112,27 111,27 110,27 110,26 z" fill="#ff6b00" fill-opacity="0.6901960784313725" id="xff6b00_r255_g107_b0_a0.6901960784313725_shape2"/>
    <path d="M 528,612 526,612 526,611 528,611 z" fill="#ff6b00" fill-opacity="0.6901960784313725" id="xff6b00_r255_g107_b0_a0.6901960784313725_shape3"/>
    <path d="M 612,526 612,528 611,528 611,526 z" fill="#ff6b00" fill-opacity="0.6901960784313725" id="xff6b00_r255_g107_b0_a0.6901960784313725_shape4"/>
  </g>
</svg>
