<?xml version="1.0" encoding="utf-8" ?>
<svg xmlns="http://www.w3.org/2000/svg" xmlns:ev="http://www.w3.org/2001/xml-events" xmlns:xlink="http://www.w3.org/1999/xlink" baseProfile="full" height="702px" version="1.1" viewBox="0 0 1002 702" width="1002px">
  <defs/>
  <g id="xffffff_r255_g255_b255">
    <path d="M 1000,0 1000,1 1002,1 1002,2 1000,2 1000,3 1002,3 1002,4 1000,4 1000,6 1002,6 1002,7 1001,7 1001,8 1002,8 1002,19 1002,698 1000,698 1000,699 1001,699 1001,701 1000,701 1000,702 661,702 115,702 8,702 8,701 7,701 7,702 6,702 6,698 5,698 5,699 3,699 3,700 2,700 2,701 1,701 1,700 0,700 0,698 2,698 2,696 1,696 1,697 0,697 0,7 3,7 3,8 4,8 4,7 5,7 5,6 7,6 7,5 8,5 8,3 6,3 6,4 5,4 5,5 4,5 4,6 0,6 0,4 3,4 3,3 0,3 0,2 1,2 1,1 2,1 2,0 4,0 4,3 5,3 5,0 7,0 7,2 8,2 8,0 717,0 z M 7,7 7,8 8,8 8,7 z M 4,697 4,698 5,698 5,696 3,696 3,697 z M 1001,697 1001,696 1000,696 1000,697 z M 8,697 7,697 7,698 8,698 z" fill="#ffffff" fill-opacity="1.0" id="xffffff_r255_g255_b255_shape1"/>
    <path d="M 5,702 3,702 3,701 4,701 4,700 5,700 z" fill="#ffffff" fill-opacity="1.0" id="xffffff_r255_g255_b255_shape2"/>
  </g>
  <g id="xfefefe_r254_g254_b254">
    <path d="M 4,700 4,701 3,701 2,701 2,700 3,700 3,699 5,699 5,700 z" fill="#fefefe" fill-opacity="1.0" id="xfefefe_r254_g254_b254_shape1"/>
    <path d="M 8,5 7,5 7,4 6,4 6,3 7,3 8,3 z" fill="#fefefe" fill-opacity="1.0" id="xfefefe_r254_g254_b254_shape2"/>
    <path d="M 1001,4 1002,4 1002,5 1002,6 1001,6 1001,5 z" fill="#fefefe" fill-opacity="1.0" id="xfefefe_r254_g254_b254_shape3"/>
    <path d="M 0,3 1,3 1,4 0,4 z" fill="#fefefe" fill-opacity="1.0" id="xfefefe_r254_g254_b254_shape4"/>
    <path d="M 7,6 6,6 6,5 7,5 z" fill="#fefefe" fill-opacity="1.0" id="xfefefe_r254_g254_b254_shape5"/>
    <path d="M 3,7 4,7 4,8 3,8 z" fill="#fefefe" fill-opacity="1.0" id="xfefefe_r254_g254_b254_shape6"/>
    <path d="M 4,697 3,697 3,696 4,696 z" fill="#fefefe" fill-opacity="1.0" id="xfefefe_r254_g254_b254_shape7"/>
    <path d="M 1,697 1,698 0,698 0,697 z" fill="#fefefe" fill-opacity="1.0" id="xfefefe_r254_g254_b254_shape8"/>
  </g>
  <g id="xfdfdfd_r253_g253_b253">
    <path d="M 8,2 7,2 7,1 7,0 8,0 8,1 z" fill="#fdfdfd" fill-opacity="1.0" id="xfdfdfd_r253_g253_b253_shape1"/>
    <path d="M 4,3 4,2 5,2 5,3 z" fill="#fdfdfd" fill-opacity="1.0" id="xfdfdfd_r253_g253_b253_shape2"/>
    <path d="M 5,5 5,6 4,6 4,5 z" fill="#fdfdfd" fill-opacity="1.0" id="xfdfdfd_r253_g253_b253_shape3"/>
    <path d="M 1001,5 1001,6 1000,6 1000,5 z" fill="#fdfdfd" fill-opacity="1.0" id="xfdfdfd_r253_g253_b253_shape4"/>
    <path d="M 1002,8 1001,8 1001,7 1002,7 z" fill="#fdfdfd" fill-opacity="1.0" id="xfdfdfd_r253_g253_b253_shape5"/>
    <path d="M 4,698 4,697 5,697 5,698 z" fill="#fdfdfd" fill-opacity="1.0" id="xfdfdfd_r253_g253_b253_shape6"/>
    <path d="M 8,698 7,698 7,697 8,697 z" fill="#fdfdfd" fill-opacity="1.0" id="xfdfdfd_r253_g253_b253_shape7"/>
    <path d="M 6,699 5,699 5,698 6,698 z" fill="#fdfdfd" fill-opacity="1.0" id="xfdfdfd_r253_g253_b253_shape8"/>
    <path d="M 2,702 2,701 3,701 3,702 z" fill="#fdfdfd" fill-opacity="1.0" id="xfdfdfd_r253_g253_b253_shape9"/>
  </g>
  <g id="xfafafa_r250_g250_b250">
    <path d="M 4,0 5,0 5,1 4,1 z" fill="#fafafa" fill-opacity="1.0" id="xfafafa_r250_g250_b250_shape1"/>
    <path d="M 6,4 7,4 7,5 6,5 z" fill="#fafafa" fill-opacity="1.0" id="xfafafa_r250_g250_b250_shape2"/>
    <path d="M 6,6 5,6 5,5 6,5 z" fill="#fafafa" fill-opacity="1.0" id="xfafafa_r250_g250_b250_shape3"/>
    <path d="M 5,7 4,7 4,6 5,6 z" fill="#fafafa" fill-opacity="1.0" id="xfafafa_r250_g250_b250_shape4"/>
    <path d="M 1001,696 1001,697 1000,697 1000,696 z" fill="#fafafa" fill-opacity="1.0" id="xfafafa_r250_g250_b250_shape5"/>
    <path d="M 2,701 2,702 1,702 1,701 z" fill="#fafafa" fill-opacity="1.0" id="xfafafa_r250_g250_b250_shape6"/>
  </g>
  <g id="xfbfbfb_r251_g251_b251">
    <path d="M 4,2 4,1 5,1 5,2 z" fill="#fbfbfb" fill-opacity="1.0" id="xfbfbfb_r251_g251_b251_shape1"/>
    <path d="M 2,3 2,4 1,4 1,3 z" fill="#fbfbfb" fill-opacity="1.0" id="xfbfbfb_r251_g251_b251_shape2"/>
    <path d="M 1,6 1,7 0,7 0,6 z" fill="#fbfbfb" fill-opacity="1.0" id="xfbfbfb_r251_g251_b251_shape3"/>
    <path d="M 2,696 2,697 1,697 1,696 z" fill="#fbfbfb" fill-opacity="1.0" id="xfbfbfb_r251_g251_b251_shape4"/>
    <path d="M 1002,699 1001,699 1001,698 1002,698 z" fill="#fbfbfb" fill-opacity="1.0" id="xfbfbfb_r251_g251_b251_shape5"/>
    <path d="M 6,702 5,702 5,701 6,701 z" fill="#fbfbfb" fill-opacity="1.0" id="xfbfbfb_r251_g251_b251_shape6"/>
  </g>
  <g id="xf8f8f8_r248_g248_b248">
    <path d="M 5,701 5,699 6,699 6,701 z" fill="#f8f8f8" fill-opacity="1.0" id="xf8f8f8_r248_g248_b248_shape1"/>
    <path d="M 8,7 8,8 7,8 7,7 z" fill="#f8f8f8" fill-opacity="1.0" id="xf8f8f8_r248_g248_b248_shape2"/>
    <path d="M 5,696 5,697 4,697 4,696 z" fill="#f8f8f8" fill-opacity="1.0" id="xf8f8f8_r248_g248_b248_shape3"/>
    <path d="M 1001,699 1002,699 1002,700 1001,700 z" fill="#f8f8f8" fill-opacity="1.0" id="xf8f8f8_r248_g248_b248_shape4"/>
    <path d="M 8,701 8,702 7,702 7,701 z" fill="#f8f8f8" fill-opacity="1.0" id="xf8f8f8_r248_g248_b248_shape5"/>
  </g>
  <g id="xfcfcfc_r252_g252_b252">
    <path d="M 1,7 1,6 2,6 3,6 3,7 2,7 z" fill="#fcfcfc" fill-opacity="1.0" id="xfcfcfc_r252_g252_b252_shape1"/>
    <path d="M 3,4 2,4 2,3 3,3 z" fill="#fcfcfc" fill-opacity="1.0" id="xfcfcfc_r252_g252_b252_shape2"/>
    <path d="M 6,4 6,5 5,5 5,4 z" fill="#fcfcfc" fill-opacity="1.0" id="xfcfcfc_r252_g252_b252_shape3"/>
    <path d="M 1000,4 1001,4 1001,5 1000,5 z" fill="#fcfcfc" fill-opacity="1.0" id="xfcfcfc_r252_g252_b252_shape4"/>
  </g>
  <g id="xf9f9f9_r249_g249_b249">
    <path d="M 1001,2 1001,3 1000,3 1000,2 z" fill="#f9f9f9" fill-opacity="1.0" id="xf9f9f9_r249_g249_b249_shape1"/>
    <path d="M 4,7 3,7 3,6 4,6 z" fill="#f9f9f9" fill-opacity="1.0" id="xf9f9f9_r249_g249_b249_shape2"/>
    <path d="M 1,697 2,697 2,698 1,698 z" fill="#f9f9f9" fill-opacity="1.0" id="xf9f9f9_r249_g249_b249_shape3"/>
    <path d="M 1001,698 1001,699 1000,699 1000,698 z" fill="#f9f9f9" fill-opacity="1.0" id="xf9f9f9_r249_g249_b249_shape4"/>
  </g>
  <g id="xe8e8e8_r232_g232_b232">
    <path d="M 1,0 2,0 2,1 1,1 z" fill="#e8e8e8" fill-opacity="1.0" id="xe8e8e8_r232_g232_b232_shape1"/>
    <path d="M 1,700 1,701 0,701 0,700 z" fill="#e8e8e8" fill-opacity="1.0" id="xe8e8e8_r232_g232_b232_shape2"/>
  </g>
  <g id="xc0c0c0_r192_g192_b192">
    <path d="M 0,0 1,0 1,1 0,1 z" fill="#c0c0c0" fill-opacity="1.0" id="xc0c0c0_r192_g192_b192_shape1"/>
  </g>
  <g id="xe9e9e9_r233_g233_b233">
    <path d="M 1000,1 1000,0 1001,0 1001,1 z" fill="#e9e9e9" fill-opacity="1.0" id="xe9e9e9_r233_g233_b233_shape1"/>
  </g>
  <g id="xc1c1c1_r193_g193_b193">
    <path d="M 1002,1 1001,1 1001,0 1002,0 z" fill="#c1c1c1" fill-opacity="1.0" id="xc1c1c1_r193_g193_b193_shape1"/>
  </g>
  <g id="xefefef_r239_g239_b239">
    <path d="M 1,1 1,2 0,2 0,1 z" fill="#efefef" fill-opacity="1.0" id="xefefef_r239_g239_b239_shape1"/>
  </g>
  <g id="xf7f7f7_r247_g247_b247">
    <path d="M 1001,2 1002,2 1002,3 1001,3 z" fill="#f7f7f7" fill-opacity="1.0" id="xf7f7f7_r247_g247_b247_shape1"/>
  </g>
  <g id="xf4f4f4_r244_g244_b244">
    <path d="M 1002,700 1002,701 1001,701 1001,700 z" fill="#f4f4f4" fill-opacity="1.0" id="xf4f4f4_r244_g244_b244_shape1"/>
  </g>
  <g id="xbdbdbd_r189_g189_b189">
    <path d="M 0,702 0,701 1,701 1,702 z" fill="#bdbdbd" fill-opacity="1.0" id="xbdbdbd_r189_g189_b189_shape1"/>
  </g>
  <g id="xeeeeee_r238_g238_b238">
    <path d="M 1000,702 1000,701 1001,701 1001,702 z" fill="#eeeeee" fill-opacity="1.0" id="xeeeeee_r238_g238_b238_shape1"/>
  </g>
  <g id="xb1b1b1_r177_g177_b177">
    <path d="M 1001,702 1001,701 1002,701 1002,702 z" fill="#b1b1b1" fill-opacity="1.0" id="xb1b1b1_r177_g177_b177_shape1"/>
  </g>
</svg>
