<?xml version="1.0" encoding="utf-8" ?>
<svg xmlns="http://www.w3.org/2000/svg" xmlns:ev="http://www.w3.org/2001/xml-events" xmlns:xlink="http://www.w3.org/1999/xlink" baseProfile="full" height="277px" version="1.1" viewBox="0 0 345 277" width="345px">
  <defs/>
  <g id="xffffff_r255_g255_b255">
    <path d="M 0,277 0,0 345,0 345,182 345,277 149,277 z M 236,138 235,138 235,133 235,115 234,115 234,95 234,91 233,91 233,89 233,80 234,80 234,77 232,77 232,76 231,76 231,75 229,75 229,74 227,74 227,73 226,73 226,72 224,72 224,71 223,71 223,70 221,70 221,69 220,69 220,68 218,68 218,67 216,67 216,66 215,66 215,65 213,65 213,64 212,64 212,63 210,63 210,62 209,62 209,61 207,61 207,60 205,60 205,59 204,59 204,58 202,58 202,57 201,57 201,56 199,56 199,55 198,55 198,54 196,54 196,53 194,53 194,52 193,52 193,51 191,51 191,50 190,50 190,49 189,49 188,49 188,48 187,48 186,48 186,47 185,47 185,46 183,46 183,45 182,45 182,44 181,44 180,44 180,43 179,43 179,42 177,42 177,41 175,41 175,40 174,40 174,39 172,39 172,38 171,38 171,37 169,37 169,36 168,36 168,35 166,35 166,34 164,34 164,33 163,33 163,32 161,32 161,31 160,31 160,30 159,30 159,29 156,29 156,30 155,30 155,31 154,31 154,32 152,32 152,33 151,33 151,34 149,34 149,35 148,35 148,36 146,36 146,37 145,37 145,38 144,38 144,39 142,39 142,40 141,40 141,41 139,41 139,42 138,42 138,43 137,43 137,44 135,44 135,45 134,45 134,46 132,46 132,47 131,47 131,48 130,48 130,49 128,49 128,50 127,50 127,51 125,51 125,52 124,52 124,53 123,53 123,54 121,54 121,55 120,55 120,56 118,56 118,57 117,57 117,58 116,58 116,59 114,59 114,60 113,60 113,61 111,61 111,62 110,62 110,63 108,63 108,64 107,64 107,65 106,65 106,66 104,66 104,67 103,67 103,68 101,68 101,69 100,69 100,70 99,70 99,71 97,71 97,72 96,72 96,73 94,73 94,74 93,74 93,75 92,75 92,76 90,76 90,77 89,77 89,78 87,78 87,79 86,79 86,80 85,80 85,81 83,81 83,82 82,82 82,83 80,83 80,84 79,84 79,85 78,85 78,86 76,86 76,87 75,87 75,88 72,88 72,91 75,91 75,93 77,93 77,94 78,94 78,95 80,95 80,96 81,96 81,97 83,97 83,98 84,98 84,99 86,99 86,100 87,100 87,101 89,101 89,102 90,102 90,103 92,103 92,104 93,104 93,105 95,105 95,106 96,106 96,107 98,107 98,108 99,108 99,109 101,109 101,110 102,110 102,111 104,111 104,112 105,112 105,113 107,113 107,114 108,114 108,115 109,115 109,116 111,116 111,117 112,117 112,118 114,118 114,119 115,119 115,120 117,120 117,121 118,121 118,122 120,122 120,123 121,123 121,124 123,124 123,125 124,125 124,126 126,126 126,127 127,127 127,128 129,128 129,129 130,129 130,130 132,130 132,131 133,131 133,132 135,132 135,133 136,133 136,134 138,134 138,135 139,135 139,136 141,136 141,137 142,137 142,138 144,138 144,139 145,139 145,140 147,140 147,141 148,141 148,142 150,142 150,143 151,143 151,144 153,144 153,145 154,145 154,146 156,146 156,147 157,147 157,148 158,148 158,161 158,172 159,172 159,183 159,211 160,211 160,221 160,234 163,234 163,232 164,232 164,230 165,230 165,227 166,227 166,225 167,225 167,223 168,223 168,221 169,221 169,219 170,219 170,216 171,216 171,214 172,214 172,212 173,212 173,210 174,210 174,208 175,208 175,205 176,205 176,203 177,203 177,201 178,201 178,199 179,199 179,197 180,197 180,194 181,194 181,192 182,192 182,190 183,190 183,188 184,188 184,186 185,186 185,183 186,183 186,181 187,181 187,179 188,179 188,177 189,177 189,175 190,175 190,172 191,172 191,171 193,171 193,172 194,172 194,173 196,173 196,174 197,174 197,175 199,175 199,176 200,176 200,177 202,177 202,178 203,178 203,179 205,179 205,180 206,180 206,181 208,181 208,182 209,182 209,183 211,183 211,184 212,184 212,185 213,185 213,186 215,186 215,187 216,187 216,188 218,188 218,189 219,189 219,190 221,190 221,191 222,191 222,192 224,192 224,193 225,193 225,194 227,194 227,195 228,195 228,196 230,196 230,197 231,197 231,198 233,198 233,199 234,199 234,200 237,200 237,199 238,199 238,186 237,186 237,168 237,162 236,162 236,156 z" fill="#ffffff" fill-opacity="1.0" id="xffffff_r255_g255_b255_shape1"/>
    <path d="M 165,150 165,149 164,149 164,148 162,148 162,147 161,147 161,132 160,132 160,120 160,114 162,114 162,113 164,113 164,112 166,112 166,111 168,111 168,110 171,110 171,109 173,109 173,108 175,108 175,107 177,107 177,106 179,106 179,105 181,105 181,104 183,104 183,103 186,103 186,102 188,102 188,101 190,101 190,100 192,100 192,99 194,99 194,98 196,98 196,97 198,97 198,96 201,96 201,95 203,95 203,94 205,94 205,93 207,93 207,92 209,92 209,91 211,91 211,90 214,90 214,89 216,89 216,88 218,88 218,87 220,87 220,86 222,86 222,85 224,85 224,84 226,84 226,83 228,83 228,84 227,84 227,86 226,86 226,88 225,88 225,90 224,90 224,92 223,92 223,95 222,95 222,97 221,97 221,99 220,99 220,101 219,101 219,103 218,103 218,106 217,106 217,108 216,108 216,110 215,110 215,112 214,112 214,114 213,114 213,117 212,117 212,119 211,119 211,121 210,121 210,123 209,123 209,125 208,125 208,128 207,128 207,130 206,130 206,132 205,132 205,134 204,134 204,136 203,136 203,139 202,139 202,141 201,141 201,143 200,143 200,145 199,145 199,147 198,147 198,150 197,150 197,152 196,152 196,154 195,154 195,156 194,156 194,158 193,158 193,161 192,161 192,163 191,163 191,165 190,165 190,166 189,166 189,165 188,165 188,164 186,164 186,163 185,163 185,162 183,162 183,161 182,161 182,160 180,160 180,159 179,159 179,158 177,158 177,157 176,157 176,156 174,156 174,155 173,155 173,154 171,154 171,153 170,153 170,152 168,152 168,151 167,151 167,150 z" fill="#ffffff" fill-opacity="1.0" id="xffffff_r255_g255_b255_shape2"/>
    <path d="M 199,153 200,153 200,150 201,150 201,148 202,148 202,146 203,146 203,144 204,144 204,142 205,142 205,139 206,139 206,137 207,137 207,135 208,135 208,133 209,133 209,131 210,131 210,128 211,128 211,126 212,126 212,124 213,124 213,122 214,122 214,120 215,120 215,117 216,117 216,115 217,115 217,113 218,113 218,111 219,111 219,109 220,109 220,106 221,106 221,104 222,104 222,102 223,102 223,100 224,100 224,98 225,98 225,95 226,95 226,93 227,93 227,91 228,91 228,89 229,89 229,87 230,87 230,91 231,91 231,115 232,115 232,139 233,139 233,162 234,162 234,186 235,186 235,196 234,196 234,195 232,195 232,194 231,194 231,193 229,193 229,192 228,192 228,191 226,191 226,190 225,190 225,189 223,189 223,188 222,188 222,187 220,187 220,186 219,186 219,185 217,185 217,184 216,184 216,183 214,183 214,182 213,182 213,181 211,181 211,180 210,180 210,179 208,179 208,178 207,178 207,177 205,177 205,176 204,176 204,175 203,175 203,174 201,174 201,173 200,173 200,172 198,172 198,171 197,171 197,170 195,170 195,169 194,169 194,168 193,168 193,166 194,166 194,164 195,164 195,161 196,161 196,159 197,159 197,157 198,157 198,155 199,155 z" fill="#ffffff" fill-opacity="1.0" id="xffffff_r255_g255_b255_shape3"/>
    <path d="M 152,82 152,83 142,83 138,83 138,84 137,84 124,84 124,85 115,85 109,85 109,86 98,86 95,86 95,87 92,87 90,87 81,87 81,86 83,86 83,85 84,85 84,84 86,84 86,83 87,83 87,82 88,82 88,81 90,81 90,80 91,80 91,79 93,79 93,78 94,78 94,77 95,77 95,76 97,76 97,75 98,75 98,74 100,74 100,73 101,73 101,72 102,72 102,71 104,71 104,70 105,70 105,69 107,69 107,68 108,68 108,67 109,67 109,66 111,66 111,65 112,65 112,64 113,64 114,64 114,63 115,63 115,62 116,62 116,61 118,61 118,60 119,60 119,59 121,59 121,58 122,58 122,57 123,57 124,57 124,56 125,56 125,55 126,55 126,54 128,54 128,53 129,53 129,52 131,52 131,51 132,51 132,50 133,50 133,49 135,49 135,48 136,48 136,47 137,47 138,47 138,46 139,46 139,45 140,45 140,44 142,44 142,43 143,43 143,42 145,42 145,41 146,41 146,40 147,40 147,39 149,39 149,38 150,38 150,37 152,37 152,36 153,36 153,35 154,35 154,34 156,34 156,33 157,33 157,41 157,57 157,72 158,72 158,82 z" fill="#ffffff" fill-opacity="1.0" id="xffffff_r255_g255_b255_shape4"/>
    <path d="M 170,41 171,41 171,42 173,42 173,43 175,43 175,44 176,44 176,45 177,45 178,45 178,46 179,46 179,47 181,47 181,48 182,48 182,49 183,49 184,49 184,50 185,50 186,50 186,51 187,51 187,52 189,52 189,53 190,53 190,54 192,54 192,55 193,55 193,56 195,56 195,57 197,57 197,58 198,58 198,59 200,59 200,60 201,60 201,61 203,61 203,62 205,62 205,63 206,63 206,64 207,64 208,64 208,65 209,65 209,66 211,66 211,67 212,67 212,68 214,68 214,69 216,69 216,70 217,70 217,71 218,71 219,71 219,72 220,72 220,73 222,73 222,74 223,74 223,75 225,75 225,76 227,76 227,77 224,77 224,78 222,78 213,78 210,78 210,79 208,79 196,79 196,80 186,80 181,80 181,81 172,81 167,81 167,82 161,82 161,72 160,72 160,43 160,35 162,35 162,36 164,36 164,37 165,37 165,38 167,38 167,39 168,39 168,40 170,40 z" fill="#ffffff" fill-opacity="1.0" id="xffffff_r255_g255_b255_shape5"/>
    <path d="M 91,100 91,99 90,99 90,98 88,98 88,97 87,97 87,96 85,96 85,95 84,95 84,94 82,94 82,93 85,93 85,94 89,94 89,95 92,95 93,95 93,96 94,96 96,96 96,97 99,97 100,97 100,98 101,98 104,98 104,99 107,99 107,100 111,100 111,101 115,101 115,102 118,102 118,103 122,103 122,104 126,104 126,105 129,105 129,106 132,106 133,106 133,107 134,107 137,107 137,108 140,108 140,109 144,109 144,110 147,110 148,110 148,111 149,111 151,111 151,112 153,112 155,112 155,113 157,113 157,132 158,132 158,144 156,144 156,143 155,143 155,142 153,142 153,141 152,141 152,140 151,140 151,139 149,139 149,138 148,138 148,137 146,137 146,136 145,136 145,135 143,135 143,134 142,134 142,133 140,133 140,132 139,132 139,131 137,131 137,130 136,130 136,129 134,129 134,128 133,128 133,127 131,127 131,126 130,126 130,125 128,125 128,124 127,124 127,123 125,123 125,122 124,122 124,121 122,121 122,120 121,120 121,119 119,119 119,118 118,118 118,117 116,117 116,116 115,116 115,115 113,115 113,114 112,114 112,113 110,113 110,112 109,112 109,111 107,111 107,110 106,110 106,109 104,109 104,108 103,108 103,107 101,107 101,106 100,106 100,105 99,105 99,104 97,104 97,103 96,103 96,102 94,102 94,101 93,101 93,100 z" fill="#ffffff" fill-opacity="1.0" id="xffffff_r255_g255_b255_shape6"/>
    <path d="M 171,207 171,209 170,209 170,211 169,211 169,213 168,213 168,216 167,216 167,218 166,218 166,220 165,220 165,222 164,222 164,224 163,224 163,222 163,220 163,211 162,211 162,205 162,171 161,171 161,153 161,151 163,151 163,152 164,152 164,153 166,153 166,154 167,154 167,155 169,155 169,156 170,156 170,157 172,157 172,158 173,158 173,159 175,159 175,160 176,160 176,161 178,161 178,162 179,162 179,163 181,163 181,164 182,164 182,165 184,165 184,166 185,166 185,167 187,167 187,168 188,168 188,172 187,172 187,174 186,174 186,176 185,176 185,178 184,178 184,180 183,180 183,183 182,183 182,185 181,185 181,187 180,187 180,189 179,189 179,191 178,191 178,194 177,194 177,196 176,196 176,198 175,198 175,200 174,200 174,202 173,202 173,205 172,205 172,207 z" fill="#ffffff" fill-opacity="1.0" id="xffffff_r255_g255_b255_shape7"/>
    <path d="M 102,89 109,89 109,88 115,88 124,88 124,87 133,87 138,87 138,86 141,86 153,86 153,85 158,85 158,110 155,110 155,109 152,109 152,108 148,108 148,107 144,107 144,106 141,106 141,105 137,105 137,104 133,104 133,103 130,103 130,102 126,102 126,101 123,101 122,101 122,100 121,100 119,100 119,99 117,99 115,99 115,98 112,98 111,98 111,97 110,97 108,97 108,96 104,96 104,95 100,95 100,94 97,94 97,93 93,93 93,92 89,92 89,91 86,91 86,90 89,90 95,90 95,89 z" fill="#ffffff" fill-opacity="1.0" id="xffffff_r255_g255_b255_shape8"/>
    <path d="M 163,109 163,110 161,110 161,85 167,85 167,84 181,84 181,83 196,83 196,82 210,82 210,81 224,81 224,82 221,82 221,83 219,83 219,84 217,84 217,85 215,85 215,86 213,86 213,87 211,87 211,88 209,88 209,89 206,89 206,90 204,90 204,91 202,91 202,92 200,92 200,93 198,93 198,94 196,94 196,95 194,95 194,96 191,96 191,97 189,97 189,98 187,98 187,99 185,99 185,100 183,100 183,101 181,101 181,102 178,102 178,103 176,103 176,104 174,104 174,105 172,105 172,106 170,106 170,107 168,107 168,108 166,108 166,109 z" fill="#ffffff" fill-opacity="1.0" id="xffffff_r255_g255_b255_shape9"/>
    <path d="M 225,80 226,80 226,81 225,81 224,81 224,80 z" fill="#ffffff" fill-opacity="1.0" id="xffffff_r255_g255_b255_shape10"/>
    <path d="M 80,87 81,87 81,88 80,88 z" fill="#ffffff" fill-opacity="1.0" id="xffffff_r255_g255_b255_shape11"/>
    <path d="M 81,92 82,92 82,93 81,93 z" fill="#ffffff" fill-opacity="1.0" id="xffffff_r255_g255_b255_shape12"/>
  </g>
  <g id="x000000_r0_g0_b0">
    <path d="M 169,36 169,37 171,37 171,38 172,38 172,39 174,39 174,40 175,40 175,41 177,41 177,42 179,42 179,43 180,43 180,44 182,44 182,45 183,45 183,46 185,46 185,47 186,47 186,48 188,48 188,49 190,49 190,50 191,50 191,51 192,51 193,51 193,52 194,52 194,53 196,53 196,54 198,54 198,55 199,55 199,56 201,56 201,57 202,57 202,58 204,58 204,59 205,59 205,60 207,60 207,61 209,61 209,62 210,62 210,63 212,63 212,64 213,64 213,65 215,65 215,66 216,66 216,67 218,67 218,68 220,68 220,69 221,69 221,70 223,70 223,71 224,71 224,72 226,72 226,73 227,73 227,74 229,74 229,75 231,75 231,76 232,76 232,77 234,77 234,80 233,80 233,87 233,91 234,91 234,98 234,112 234,115 235,115 235,118 235,138 236,138 236,153 236,162 237,162 237,173 237,186 238,186 238,199 237,199 237,200 234,200 234,199 233,199 233,198 231,198 231,197 230,197 230,196 228,196 228,195 227,195 227,194 225,194 225,193 224,193 224,192 222,192 222,191 221,191 221,190 219,190 219,189 218,189 218,188 216,188 216,187 215,187 215,186 213,186 213,185 212,185 212,184 211,184 211,183 209,183 209,182 208,182 208,181 206,181 206,180 205,180 205,179 203,179 203,178 202,178 202,177 200,177 200,176 199,176 199,175 197,175 197,174 196,174 196,173 194,173 194,172 193,172 193,171 191,171 191,172 190,172 190,175 189,175 189,177 188,177 188,179 187,179 187,181 186,181 186,183 185,183 185,186 184,186 184,188 183,188 183,190 182,190 182,192 181,192 181,194 180,194 180,197 179,197 179,199 178,199 178,201 177,201 177,203 176,203 176,205 175,205 175,208 174,208 174,210 173,210 173,212 172,212 172,214 171,214 171,216 170,216 170,219 169,219 169,221 168,221 168,223 167,223 167,225 166,225 166,227 165,227 165,230 164,230 164,232 163,232 163,234 160,234 160,211 159,211 159,172 158,172 158,148 157,148 157,147 156,147 156,146 154,146 154,145 153,145 153,144 151,144 151,143 150,143 150,142 148,142 148,141 147,141 147,140 145,140 145,139 144,139 144,138 142,138 142,137 141,137 141,136 139,136 139,135 138,135 138,134 136,134 136,133 135,133 135,132 133,132 133,131 132,131 132,130 130,130 130,129 129,129 129,128 127,128 127,127 126,127 126,126 124,126 124,125 123,125 123,124 121,124 121,123 120,123 120,122 118,122 118,121 117,121 117,120 115,120 115,119 114,119 114,118 112,118 112,117 111,117 111,116 109,116 109,115 108,115 108,114 107,114 107,113 105,113 105,112 104,112 104,111 102,111 102,110 101,110 101,109 99,109 99,108 98,108 98,107 96,107 96,106 95,106 95,105 93,105 93,104 92,104 92,103 90,103 90,102 89,102 89,101 87,101 87,100 86,100 86,99 84,99 84,98 83,98 83,97 81,97 81,96 80,96 80,95 78,95 78,94 77,94 77,93 75,93 75,91 72,91 72,88 75,88 75,87 76,87 76,86 78,86 78,85 79,85 79,84 80,84 80,83 82,83 82,82 83,82 83,81 85,81 85,80 86,80 86,79 87,79 87,78 89,78 89,77 90,77 90,76 92,76 92,75 93,75 93,74 94,74 94,73 96,73 96,72 97,72 97,71 99,71 99,70 100,70 100,69 101,69 101,68 103,68 103,67 104,67 104,66 106,66 106,65 107,65 107,64 108,64 108,63 110,63 110,62 111,62 111,61 113,61 113,60 114,60 114,59 116,59 116,58 117,58 117,57 118,57 118,56 120,56 120,55 121,55 121,54 123,54 123,53 124,53 124,52 125,52 125,51 127,51 127,50 128,50 128,49 130,49 130,48 131,48 131,47 132,47 132,46 134,46 134,45 135,45 135,44 137,44 137,43 138,43 138,42 139,42 139,41 141,41 141,40 142,40 142,39 144,39 144,38 145,38 145,37 146,37 146,36 148,36 148,35 149,35 149,34 151,34 151,33 152,33 152,32 154,32 154,31 155,31 155,30 156,30 156,29 159,29 159,30 160,30 160,31 161,31 161,32 163,32 163,33 164,33 164,34 166,34 166,35 168,35 168,36 z M 164,113 162,113 162,114 160,114 160,132 161,132 161,140 161,147 162,147 162,148 164,148 164,149 165,149 165,150 166,150 167,150 167,151 168,151 168,152 170,152 170,153 171,153 171,154 172,154 173,154 173,155 174,155 174,156 176,156 176,157 177,157 177,158 179,158 179,159 180,159 180,160 182,160 182,161 183,161 183,162 185,162 185,163 186,163 186,164 188,164 188,165 189,165 189,166 190,166 190,165 191,165 191,163 192,163 192,161 193,161 193,158 194,158 194,156 195,156 195,154 196,154 196,152 197,152 197,150 198,150 198,147 199,147 199,145 200,145 200,143 201,143 201,141 202,141 202,139 203,139 203,136 204,136 204,134 205,134 205,132 206,132 206,130 207,130 207,128 208,128 208,125 209,125 209,123 210,123 210,121 211,121 211,119 212,119 212,117 213,117 213,114 214,114 214,112 215,112 215,110 216,110 216,108 217,108 217,106 218,106 218,103 219,103 219,101 220,101 220,99 221,99 221,97 222,97 222,95 223,95 223,92 224,92 224,90 225,90 225,88 226,88 226,86 227,86 227,84 228,84 228,83 226,83 226,84 224,84 224,85 222,85 222,86 220,86 220,87 218,87 218,88 216,88 216,89 214,89 214,90 211,90 211,91 209,91 209,92 207,92 207,93 205,93 205,94 203,94 203,95 201,95 201,96 198,96 198,97 196,97 196,98 194,98 194,99 192,99 192,100 190,100 190,101 188,101 188,102 186,102 186,103 183,103 183,104 181,104 181,105 179,105 179,106 177,106 177,107 175,107 175,108 173,108 173,109 171,109 171,110 168,110 168,111 166,111 166,112 164,112 z M 146,136 146,137 148,137 148,138 149,138 149,139 151,139 151,140 152,140 152,141 153,141 153,142 154,142 155,142 155,143 156,143 156,144 158,144 158,143 158,132 157,132 157,126 157,113 155,113 155,112 151,112 151,111 148,111 148,110 144,110 144,109 140,109 140,108 137,108 137,107 134,107 133,107 133,106 132,106 129,106 129,105 126,105 126,104 122,104 122,103 118,103 118,102 115,102 115,101 111,101 111,100 107,100 107,99 104,99 104,98 100,98 100,97 96,97 96,96 93,96 93,95 89,95 89,94 85,94 85,93 82,93 82,94 84,94 84,95 85,95 85,96 87,96 87,97 88,97 88,98 90,98 90,99 91,99 91,100 93,100 93,101 94,101 94,102 96,102 96,103 97,103 97,104 99,104 99,105 100,105 100,106 101,106 101,107 103,107 103,108 104,108 104,109 106,109 106,110 107,110 107,111 109,111 109,112 110,112 110,113 112,113 112,114 113,114 113,115 115,115 115,116 116,116 116,117 118,117 118,118 119,118 119,119 121,119 121,120 122,120 122,121 124,121 124,122 125,122 125,123 127,123 127,124 128,124 128,125 130,125 130,126 131,126 131,127 133,127 133,128 134,128 134,129 136,129 136,130 137,130 137,131 139,131 139,132 140,132 140,133 142,133 142,134 143,134 143,135 145,135 145,136 z M 187,99 187,98 189,98 189,97 191,97 191,96 194,96 194,95 196,95 196,94 198,94 198,93 200,93 200,92 202,92 202,91 204,91 204,90 206,90 206,89 209,89 209,88 211,88 211,87 213,87 213,86 215,86 215,85 217,85 217,84 219,84 219,83 221,83 221,82 224,82 224,81 210,81 210,82 196,82 196,83 181,83 181,84 167,84 167,85 161,85 161,110 163,110 163,109 166,109 166,108 168,108 168,107 170,107 170,106 172,106 172,105 174,105 174,104 176,104 176,103 178,103 178,102 181,102 181,101 183,101 183,100 185,100 185,99 z M 213,181 213,182 214,182 214,183 216,183 216,184 217,184 217,185 219,185 219,186 220,186 220,187 222,187 222,188 223,188 223,189 225,189 225,190 226,190 226,191 228,191 228,192 229,192 229,193 231,193 231,194 232,194 232,195 234,195 234,196 235,196 235,186 234,186 234,170 234,162 233,162 233,139 232,139 232,115 231,115 231,91 230,91 230,87 229,87 229,89 228,89 228,91 227,91 227,93 226,93 226,95 225,95 225,98 224,98 224,100 223,100 223,102 222,102 222,104 221,104 221,106 220,106 220,109 219,109 219,111 218,111 218,113 217,113 217,115 216,115 216,117 215,117 215,120 214,120 214,122 213,122 213,124 212,124 212,126 211,126 211,128 210,128 210,131 209,131 209,133 208,133 208,135 207,135 207,137 206,137 206,139 205,139 205,142 204,142 204,144 203,144 203,146 202,146 202,148 201,148 201,150 200,150 200,153 199,153 199,155 198,155 198,157 197,157 197,159 196,159 196,161 195,161 195,164 194,164 194,166 193,166 193,168 194,168 194,169 195,169 195,170 197,170 197,171 198,171 198,172 200,172 200,173 201,173 201,174 203,174 203,175 204,175 204,176 205,176 205,177 207,177 207,178 208,178 208,179 210,179 210,180 211,180 211,181 z M 143,43 142,43 142,44 140,44 140,45 139,45 139,46 138,46 138,47 136,47 136,48 135,48 135,49 133,49 133,50 132,50 132,51 131,51 131,52 129,52 129,53 128,53 128,54 126,54 126,55 125,55 125,56 124,56 124,57 122,57 122,58 121,58 121,59 119,59 119,60 118,60 118,61 116,61 116,62 115,62 115,63 114,63 114,64 112,64 112,65 111,65 111,66 109,66 109,67 108,67 108,68 107,68 107,69 106,69 105,69 105,70 104,70 104,71 102,71 102,72 101,72 101,73 100,73 100,74 98,74 98,75 97,75 97,76 95,76 95,77 94,77 94,78 93,78 93,79 92,79 91,79 91,80 90,80 90,81 88,81 88,82 87,82 87,83 86,83 86,84 84,84 84,85 83,85 83,86 81,86 81,87 80,87 80,88 81,88 81,87 90,87 95,87 95,86 101,86 109,86 109,85 124,85 124,84 138,84 138,83 147,83 152,83 152,82 155,82 158,82 158,76 158,72 157,72 157,69 157,60 157,33 156,33 156,34 154,34 154,35 153,35 153,36 152,36 152,37 150,37 150,38 149,38 149,39 147,39 147,40 146,40 146,41 145,41 145,42 143,42 z M 168,213 169,213 169,211 170,211 170,209 171,209 171,207 172,207 172,206 172,205 173,205 173,204 173,202 174,202 174,200 175,200 175,198 176,198 176,196 177,196 177,194 178,194 178,191 179,191 179,189 180,189 180,187 181,187 181,185 182,185 182,183 183,183 183,181 183,180 184,180 184,179 184,178 185,178 185,177 185,176 186,176 186,175 186,174 187,174 187,173 187,172 188,172 188,171 188,168 187,168 187,167 185,167 185,166 184,166 184,165 182,165 182,164 181,164 181,163 179,163 179,162 178,162 178,161 176,161 176,160 175,160 175,159 173,159 173,158 172,158 172,157 170,157 170,156 169,156 169,155 167,155 167,154 166,154 166,153 164,153 164,152 163,152 163,151 161,151 161,154 161,171 162,171 162,183 162,211 163,211 163,224 164,224 164,222 165,222 165,220 166,220 166,218 167,218 167,216 168,216 z M 148,108 152,108 152,109 155,109 155,110 158,110 158,85 153,85 153,86 146,86 138,86 138,87 131,87 124,87 124,88 109,88 109,89 95,89 95,90 86,90 86,91 89,91 89,92 93,92 93,93 97,93 97,94 100,94 100,95 104,95 104,96 108,96 108,97 111,97 111,98 115,98 115,99 119,99 119,100 122,100 122,101 126,101 126,102 130,102 130,103 133,103 133,104 137,104 137,105 141,105 141,106 144,106 144,107 148,107 z M 165,38 165,37 164,37 164,36 162,36 162,35 160,35 160,72 161,72 161,82 167,82 167,81 181,81 181,80 196,80 196,79 210,79 210,78 224,78 224,77 227,77 227,76 225,76 225,75 223,75 223,74 222,74 222,73 220,73 220,72 219,72 219,71 217,71 217,70 216,70 216,69 214,69 214,68 212,68 212,67 211,67 211,66 209,66 209,65 208,65 208,64 206,64 206,63 205,63 205,62 203,62 203,61 201,61 201,60 200,60 200,59 198,59 198,58 197,58 197,57 195,57 195,56 193,56 193,55 192,55 192,54 190,54 190,53 189,53 189,52 187,52 187,51 186,51 186,50 184,50 184,49 182,49 182,48 181,48 181,47 179,47 179,46 178,46 178,45 176,45 176,44 175,44 175,43 173,43 173,42 171,42 171,41 170,41 170,40 168,40 168,39 167,39 167,38 z M 225,80 224,80 224,81 225,81 226,81 226,80 z M 81,92 81,93 82,93 82,92 z" fill="#000000" fill-opacity="1.0" id="x000000_r0_g0_b0_shape1"/>
  </g>
</svg>
