<svg xmlns="http://www.w3.org/2000/svg" xmlns:xlink="http://www.w3.org/1999/xlink" width="115" zoomAndPan="magnify" viewBox="0 0 86.25 23.25" height="31" preserveAspectRatio="xMidYMid meet" version="1.0"><defs><clipPath id="741ec94f72"><path d="M 0.984375 9 L 75 9 L 75 13 L 0.984375 13 Z M 0.984375 9 " clip-rule="nonzero"/></clipPath><clipPath id="b47d697385"><path d="M 74 0 L 76 0 L 76 22.523438 L 74 22.523438 Z M 74 0 " clip-rule="nonzero"/></clipPath><clipPath id="8a97668403"><path d="M 74 20 L 84.539062 20 L 84.539062 22 L 74 22 Z M 74 20 " clip-rule="nonzero"/></clipPath><clipPath id="3dc8b67fc2"><path d="M 74 0 L 84.539062 0 L 84.539062 2 L 74 2 Z M 74 0 " clip-rule="nonzero"/></clipPath></defs><g clip-path="url(#741ec94f72)"><path stroke-linecap="round" transform="matrix(0.726562, 0.000000000000000204, -0.000000000000000204, 0.726562, 0.984374, 9.538723)" fill="none" stroke-linejoin="miter" d="M 2.000001 2.000467 L 99.037638 2.000467 " stroke="#5271ff" stroke-width="4" stroke-opacity="1" stroke-miterlimit="4"/></g><g clip-path="url(#b47d697385)"><path stroke-linecap="butt" transform="matrix(0, 0.726562, -0.726562, 0, 75.84459, 0.252346)" fill="none" stroke-linejoin="miter" d="M 0.00214716 1.001156 L 29.566664 1.001156 " stroke="#000000" stroke-width="2" stroke-opacity="1" stroke-miterlimit="4"/></g><g clip-path="url(#8a97668403)"><path stroke-linecap="butt" transform="matrix(0.726562, 0, 0, 0.726562, 75.119418, 20.530571)" fill="none" stroke-linejoin="miter" d="M 0.0023067 1.000935 L 12.39478 1.000935 " stroke="#000000" stroke-width="2" stroke-opacity="1" stroke-miterlimit="4"/></g><g clip-path="url(#3dc8b67fc2)"><path stroke-linecap="butt" transform="matrix(0.726562, 0, 0, 0.726562, 75.119418, 0.00000096875)" fill="none" stroke-linejoin="miter" d="M 0.0023067 0.999999 L 12.39478 0.999999 " stroke="#000000" stroke-width="2" stroke-opacity="1" stroke-miterlimit="4"/></g></svg>