<svg xmlns="http://www.w3.org/2000/svg" xmlns:xlink="http://www.w3.org/1999/xlink" width="105" zoomAndPan="magnify" viewBox="0 0 78.75 23.25" height="31" preserveAspectRatio="xMidYMid meet" version="1.0"><defs><g/><clipPath id="823e6a0221"><path d="M 1.109375 5.621094 L 66.855469 5.621094 L 66.855469 17.195312 L 1.109375 17.195312 Z M 1.109375 5.621094 " clip-rule="nonzero"/></clipPath><clipPath id="b679bc07e8"><path d="M 4.015625 5.621094 L 63.929688 5.621094 C 64.703125 5.621094 65.441406 5.925781 65.984375 6.472656 C 66.53125 7.019531 66.835938 7.757812 66.835938 8.527344 L 66.835938 14.289062 C 66.835938 15.0625 66.53125 15.800781 65.984375 16.347656 C 65.441406 16.890625 64.703125 17.195312 63.929688 17.195312 L 4.015625 17.195312 C 3.246094 17.195312 2.503906 16.890625 1.960938 16.347656 C 1.414062 15.800781 1.109375 15.0625 1.109375 14.289062 L 1.109375 8.527344 C 1.109375 7.757812 1.414062 7.019531 1.960938 6.472656 C 2.503906 5.925781 3.246094 5.621094 4.015625 5.621094 Z M 4.015625 5.621094 " clip-rule="nonzero"/></clipPath><clipPath id="f3768afd59"><path d="M 1.125 5.621094 L 66.5 5.621094 L 66.5 17.214844 L 1.125 17.214844 Z M 1.125 5.621094 " clip-rule="nonzero"/></clipPath><clipPath id="d871244990"><path d="M 4.03125 5.621094 L 63.90625 5.621094 C 64.675781 5.621094 65.417969 5.925781 65.960938 6.472656 C 66.503906 7.015625 66.8125 7.753906 66.8125 8.527344 L 66.8125 14.285156 C 66.8125 15.054688 66.503906 15.792969 65.960938 16.339844 C 65.417969 16.882812 64.675781 17.191406 63.90625 17.191406 L 4.03125 17.191406 C 3.261719 17.191406 2.523438 16.882812 1.976562 16.339844 C 1.433594 15.792969 1.125 15.054688 1.125 14.285156 L 1.125 8.527344 C 1.125 7.753906 1.433594 7.015625 1.976562 6.472656 C 2.523438 5.925781 3.261719 5.621094 4.03125 5.621094 Z M 4.03125 5.621094 " clip-rule="nonzero"/></clipPath><clipPath id="c7129bd517"><path d="M 66 0 L 69 0 L 69 22.523438 L 66 22.523438 Z M 66 0 " clip-rule="nonzero"/></clipPath><clipPath id="7130e4ccb8"><path d="M 66 20 L 77.398438 20 L 77.398438 22 L 66 22 Z M 66 20 " clip-rule="nonzero"/></clipPath><clipPath id="ce9651965d"><path d="M 66 0 L 77.398438 0 L 77.398438 2 L 66 2 Z M 66 0 " clip-rule="nonzero"/></clipPath></defs><g clip-path="url(#823e6a0221)"><g clip-path="url(#b679bc07e8)"><path fill="#5271ff" d="M 1.109375 5.621094 L 66.855469 5.621094 L 66.855469 17.195312 L 1.109375 17.195312 Z M 1.109375 5.621094 " fill-opacity="1" fill-rule="nonzero"/></g></g><g clip-path="url(#f3768afd59)"><g clip-path="url(#d871244990)"><path stroke-linecap="butt" transform="matrix(0.726562, 0, 0, 0.726562, 1.126817, 5.621402)" fill="none" stroke-linejoin="miter" d="M 3.997499 -0.000424404 L 86.406103 -0.000424404 C 87.465243 -0.000424404 88.486748 0.41893 89.23406 1.171619 C 89.981372 1.91893 90.406103 2.93506 90.406103 3.999576 L 90.406103 11.924307 C 90.406103 12.983447 89.981372 13.999576 89.23406 14.752264 C 88.486748 15.499576 87.465243 15.924307 86.406103 15.924307 L 3.997499 15.924307 C 2.938359 15.924307 1.92223 15.499576 1.169542 14.752264 C 0.42223 13.999576 -0.00250148 12.983447 -0.00250148 11.924307 L -0.00250148 3.999576 C -0.00250148 2.93506 0.42223 1.91893 1.169542 1.171619 C 1.92223 0.41893 2.938359 -0.000424404 3.997499 -0.000424404 Z M 3.997499 -0.000424404 " stroke="#000000" stroke-width="2" stroke-opacity="1" stroke-miterlimit="4"/></g></g><g fill="#000000" fill-opacity="1"><g transform="translate(31.636351, 11.433902)"><g><path d="M 1.078125 -1.390625 L 1.078125 -1.25 L 0.640625 -1.25 L 0.640625 0 L 0.484375 0 L 0.484375 -1.25 L 0.046875 -1.25 L 0.046875 -1.390625 Z M 1.078125 -1.390625 "/></g></g></g><g fill="#000000" fill-opacity="1"><g transform="translate(32.761516, 11.433902)"><g><path d="M 0.515625 0.015625 C 0.398438 0.015625 0.3125 -0.015625 0.25 -0.078125 C 0.195312 -0.140625 0.171875 -0.226562 0.171875 -0.34375 L 0.171875 -1.046875 L 0.3125 -1.046875 L 0.3125 -0.359375 C 0.3125 -0.191406 0.390625 -0.109375 0.546875 -0.109375 C 0.640625 -0.109375 0.710938 -0.140625 0.765625 -0.203125 C 0.816406 -0.265625 0.84375 -0.367188 0.84375 -0.515625 L 0.84375 -1.046875 L 1 -1.046875 L 1 0 L 0.859375 0 L 0.859375 -0.15625 L 0.84375 -0.171875 C 0.800781 -0.109375 0.753906 -0.0625 0.703125 -0.03125 C 0.660156 0 0.597656 0.015625 0.515625 0.015625 Z M 0.515625 0.015625 "/></g></g></g><g fill="#000000" fill-opacity="1"><g transform="translate(33.94228, 11.433902)"><g><path d="M 0.6875 0.015625 C 0.613281 0.015625 0.546875 0.00390625 0.484375 -0.015625 C 0.429688 -0.046875 0.390625 -0.0859375 0.359375 -0.140625 L 0.328125 -0.140625 L 0.328125 0 L 0.1875 0 L 0.1875 -1.46875 L 0.328125 -1.46875 L 0.328125 -0.890625 L 0.359375 -0.890625 C 0.429688 -1.003906 0.546875 -1.0625 0.703125 -1.0625 C 0.785156 -1.0625 0.859375 -1.039062 0.921875 -1 C 0.992188 -0.957031 1.046875 -0.894531 1.078125 -0.8125 C 1.109375 -0.738281 1.125 -0.640625 1.125 -0.515625 C 1.125 -0.398438 1.101562 -0.300781 1.0625 -0.21875 C 1.03125 -0.132812 0.984375 -0.0703125 0.921875 -0.03125 C 0.859375 0 0.78125 0.015625 0.6875 0.015625 Z M 0.65625 -0.125 C 0.863281 -0.125 0.96875 -0.253906 0.96875 -0.515625 C 0.96875 -0.660156 0.941406 -0.765625 0.890625 -0.828125 C 0.835938 -0.890625 0.757812 -0.921875 0.65625 -0.921875 C 0.5625 -0.921875 0.484375 -0.882812 0.421875 -0.8125 C 0.359375 -0.75 0.328125 -0.648438 0.328125 -0.515625 C 0.328125 -0.378906 0.359375 -0.28125 0.421875 -0.21875 C 0.484375 -0.15625 0.5625 -0.125 0.65625 -0.125 Z M 0.65625 -0.125 "/></g></g></g><g fill="#000000" fill-opacity="1"><g transform="translate(35.182412, 11.433902)"><g><path d="M 1 -0.484375 L 0.28125 -0.484375 C 0.28125 -0.359375 0.304688 -0.265625 0.359375 -0.203125 C 0.421875 -0.148438 0.5 -0.125 0.59375 -0.125 C 0.675781 -0.125 0.738281 -0.132812 0.78125 -0.15625 C 0.820312 -0.1875 0.859375 -0.226562 0.890625 -0.28125 L 0.90625 -0.28125 L 1 -0.21875 C 0.976562 -0.144531 0.929688 -0.0859375 0.859375 -0.046875 C 0.796875 -0.00390625 0.707031 0.015625 0.59375 0.015625 C 0.5 0.015625 0.414062 0 0.34375 -0.03125 C 0.269531 -0.0703125 0.210938 -0.132812 0.171875 -0.21875 C 0.128906 -0.300781 0.109375 -0.398438 0.109375 -0.515625 C 0.109375 -0.640625 0.128906 -0.738281 0.171875 -0.8125 C 0.210938 -0.894531 0.269531 -0.957031 0.34375 -1 C 0.414062 -1.039062 0.5 -1.0625 0.59375 -1.0625 C 0.726562 -1.0625 0.832031 -1.023438 0.90625 -0.953125 C 0.976562 -0.878906 1.015625 -0.765625 1.015625 -0.609375 C 1.015625 -0.554688 1.015625 -0.519531 1.015625 -0.5 Z M 0.859375 -0.609375 C 0.859375 -0.722656 0.832031 -0.804688 0.78125 -0.859375 C 0.738281 -0.910156 0.675781 -0.9375 0.59375 -0.9375 C 0.5 -0.9375 0.425781 -0.910156 0.375 -0.859375 C 0.320312 -0.804688 0.289062 -0.722656 0.28125 -0.609375 Z M 0.859375 -0.609375 "/></g></g></g><g clip-path="url(#c7129bd517)"><path stroke-linecap="butt" transform="matrix(0, 0.726562, -0.726562, 0, 68.032101, 0.252346)" fill="none" stroke-linejoin="miter" d="M 0.00214716 1.001171 L 29.566664 1.001171 " stroke="#000000" stroke-width="2" stroke-opacity="1" stroke-miterlimit="4"/></g><g clip-path="url(#7130e4ccb8)"><path stroke-linecap="butt" transform="matrix(0.726562, 0, 0, 0.726562, 67.306928, 20.530571)" fill="none" stroke-linejoin="miter" d="M 0.00229196 1.000935 L 13.088314 1.000935 " stroke="#000000" stroke-width="2" stroke-opacity="1" stroke-miterlimit="4"/></g><g clip-path="url(#ce9651965d)"><path stroke-linecap="butt" transform="matrix(0.726562, 0, 0, 0.726562, 67.306928, 0.00000096875)" fill="none" stroke-linejoin="miter" d="M 0.00229196 0.999999 L 13.088314 0.999999 " stroke="#000000" stroke-width="2" stroke-opacity="1" stroke-miterlimit="4"/></g></svg>