<svg xmlns="http://www.w3.org/2000/svg" xmlns:xlink="http://www.w3.org/1999/xlink" width="64" zoomAndPan="magnify" viewBox="0 0 48 23.25" height="31" preserveAspectRatio="xMidYMid meet" version="1.0"><defs><g/><clipPath id="df1b54911e"><path d="M 0.75 5.621094 L 37.285156 5.621094 L 37.285156 17.195312 L 0.75 17.195312 Z M 0.75 5.621094 " clip-rule="nonzero"/></clipPath><clipPath id="2c56bf6812"><path d="M 3.65625 5.621094 L 34.34375 5.621094 C 35.113281 5.621094 35.851562 5.925781 36.398438 6.472656 C 36.941406 7.019531 37.25 7.757812 37.25 8.527344 L 37.25 14.289062 C 37.25 15.0625 36.941406 15.800781 36.398438 16.347656 C 35.851562 16.890625 35.113281 17.195312 34.34375 17.195312 L 3.65625 17.195312 C 2.886719 17.195312 2.144531 16.890625 1.601562 16.347656 C 1.054688 15.800781 0.75 15.0625 0.75 14.289062 L 0.75 8.527344 C 0.75 7.757812 1.054688 7.019531 1.601562 6.472656 C 2.144531 5.925781 2.886719 5.621094 3.65625 5.621094 Z M 3.65625 5.621094 " clip-rule="nonzero"/></clipPath><clipPath id="6e68308ebc"><path d="M 0.761719 5.621094 L 37.078125 5.621094 L 37.078125 17.214844 L 0.761719 17.214844 Z M 0.761719 5.621094 " clip-rule="nonzero"/></clipPath><clipPath id="9e642bfa9e"><path d="M 3.667969 5.621094 L 34.332031 5.621094 C 35.101562 5.621094 35.839844 5.925781 36.386719 6.472656 C 36.929688 7.015625 37.238281 7.753906 37.238281 8.527344 L 37.238281 14.285156 C 37.238281 15.054688 36.929688 15.792969 36.386719 16.339844 C 35.839844 16.882812 35.101562 17.191406 34.332031 17.191406 L 3.667969 17.191406 C 2.894531 17.191406 2.15625 16.882812 1.613281 16.339844 C 1.066406 15.792969 0.761719 15.054688 0.761719 14.285156 L 0.761719 8.527344 C 0.761719 7.753906 1.066406 7.015625 1.613281 6.472656 C 2.15625 5.925781 2.894531 5.621094 3.667969 5.621094 Z M 3.667969 5.621094 " clip-rule="nonzero"/></clipPath><clipPath id="99720dbc44"><path d="M 36 0 L 39 0 L 39 22.523438 L 36 22.523438 Z M 36 0 " clip-rule="nonzero"/></clipPath><clipPath id="e283d6079b"><path d="M 36 20 L 47.25 20 L 47.25 22 L 36 22 Z M 36 20 " clip-rule="nonzero"/></clipPath><clipPath id="3dc244aefe"><path d="M 36 0 L 47.25 0 L 47.25 2 L 36 2 Z M 36 0 " clip-rule="nonzero"/></clipPath></defs><g clip-path="url(#df1b54911e)"><g clip-path="url(#2c56bf6812)"><path fill="#5271ff" d="M 0.75 5.621094 L 37.242188 5.621094 L 37.242188 17.195312 L 0.75 17.195312 Z M 0.75 5.621094 " fill-opacity="1" fill-rule="nonzero"/></g></g><g clip-path="url(#6e68308ebc)"><g clip-path="url(#9e642bfa9e)"><path stroke-linecap="butt" transform="matrix(0.726562, 0, 0, 0.726562, 0.761928, 5.621402)" fill="none" stroke-linejoin="miter" d="M 3.999712 -0.000424404 L 46.204014 -0.000424404 C 47.263154 -0.000424404 48.279283 0.41893 49.031971 1.171619 C 49.779283 1.91893 50.204015 2.93506 50.204015 3.999576 L 50.204015 11.924307 C 50.204015 12.983447 49.779283 13.999576 49.031971 14.752264 C 48.279283 15.499576 47.263154 15.924307 46.204014 15.924307 L 3.999712 15.924307 C 2.935196 15.924307 1.919067 15.499576 1.171755 14.752264 C 0.419067 13.999576 -0.000287774 12.983447 -0.000287774 11.924307 L -0.000287774 3.999576 C -0.000287774 2.93506 0.419067 1.91893 1.171755 1.171619 C 1.919067 0.41893 2.935196 -0.000424404 3.999712 -0.000424404 Z M 3.999712 -0.000424404 " stroke="#000000" stroke-width="2" stroke-opacity="1" stroke-miterlimit="4"/></g></g><g fill="#000000" fill-opacity="1"><g transform="translate(16.666259, 11.433902)"><g><path d="M 1.078125 -1.390625 L 1.078125 -1.25 L 0.640625 -1.25 L 0.640625 0 L 0.484375 0 L 0.484375 -1.25 L 0.046875 -1.25 L 0.046875 -1.390625 Z M 1.078125 -1.390625 "/></g></g></g><g fill="#000000" fill-opacity="1"><g transform="translate(17.791424, 11.433902)"><g><path d="M 0.515625 0.015625 C 0.398438 0.015625 0.3125 -0.015625 0.25 -0.078125 C 0.195312 -0.140625 0.171875 -0.226562 0.171875 -0.34375 L 0.171875 -1.046875 L 0.3125 -1.046875 L 0.3125 -0.359375 C 0.3125 -0.191406 0.390625 -0.109375 0.546875 -0.109375 C 0.640625 -0.109375 0.710938 -0.140625 0.765625 -0.203125 C 0.816406 -0.265625 0.84375 -0.367188 0.84375 -0.515625 L 0.84375 -1.046875 L 1 -1.046875 L 1 0 L 0.859375 0 L 0.859375 -0.15625 L 0.84375 -0.171875 C 0.800781 -0.109375 0.753906 -0.0625 0.703125 -0.03125 C 0.660156 0 0.597656 0.015625 0.515625 0.015625 Z M 0.515625 0.015625 "/></g></g></g><g fill="#000000" fill-opacity="1"><g transform="translate(18.972188, 11.433902)"><g><path d="M 0.6875 0.015625 C 0.613281 0.015625 0.546875 0.00390625 0.484375 -0.015625 C 0.429688 -0.046875 0.390625 -0.0859375 0.359375 -0.140625 L 0.328125 -0.140625 L 0.328125 0 L 0.1875 0 L 0.1875 -1.46875 L 0.328125 -1.46875 L 0.328125 -0.890625 L 0.359375 -0.890625 C 0.429688 -1.003906 0.546875 -1.0625 0.703125 -1.0625 C 0.785156 -1.0625 0.859375 -1.039062 0.921875 -1 C 0.992188 -0.957031 1.046875 -0.894531 1.078125 -0.8125 C 1.109375 -0.738281 1.125 -0.640625 1.125 -0.515625 C 1.125 -0.398438 1.101562 -0.300781 1.0625 -0.21875 C 1.03125 -0.132812 0.984375 -0.0703125 0.921875 -0.03125 C 0.859375 0 0.78125 0.015625 0.6875 0.015625 Z M 0.65625 -0.125 C 0.863281 -0.125 0.96875 -0.253906 0.96875 -0.515625 C 0.96875 -0.660156 0.941406 -0.765625 0.890625 -0.828125 C 0.835938 -0.890625 0.757812 -0.921875 0.65625 -0.921875 C 0.5625 -0.921875 0.484375 -0.882812 0.421875 -0.8125 C 0.359375 -0.75 0.328125 -0.648438 0.328125 -0.515625 C 0.328125 -0.378906 0.359375 -0.28125 0.421875 -0.21875 C 0.484375 -0.15625 0.5625 -0.125 0.65625 -0.125 Z M 0.65625 -0.125 "/></g></g></g><g fill="#000000" fill-opacity="1"><g transform="translate(20.21232, 11.433902)"><g><path d="M 1 -0.484375 L 0.28125 -0.484375 C 0.28125 -0.359375 0.304688 -0.265625 0.359375 -0.203125 C 0.421875 -0.148438 0.5 -0.125 0.59375 -0.125 C 0.675781 -0.125 0.738281 -0.132812 0.78125 -0.15625 C 0.820312 -0.1875 0.859375 -0.226562 0.890625 -0.28125 L 0.90625 -0.28125 L 1 -0.21875 C 0.976562 -0.144531 0.929688 -0.0859375 0.859375 -0.046875 C 0.796875 -0.00390625 0.707031 0.015625 0.59375 0.015625 C 0.5 0.015625 0.414062 0 0.34375 -0.03125 C 0.269531 -0.0703125 0.210938 -0.132812 0.171875 -0.21875 C 0.128906 -0.300781 0.109375 -0.398438 0.109375 -0.515625 C 0.109375 -0.640625 0.128906 -0.738281 0.171875 -0.8125 C 0.210938 -0.894531 0.269531 -0.957031 0.34375 -1 C 0.414062 -1.039062 0.5 -1.0625 0.59375 -1.0625 C 0.726562 -1.0625 0.832031 -1.023438 0.90625 -0.953125 C 0.976562 -0.878906 1.015625 -0.765625 1.015625 -0.609375 C 1.015625 -0.554688 1.015625 -0.519531 1.015625 -0.5 Z M 0.859375 -0.609375 C 0.859375 -0.722656 0.832031 -0.804688 0.78125 -0.859375 C 0.738281 -0.910156 0.675781 -0.9375 0.59375 -0.9375 C 0.5 -0.9375 0.425781 -0.910156 0.375 -0.859375 C 0.320312 -0.804688 0.289062 -0.722656 0.28125 -0.609375 Z M 0.859375 -0.609375 "/></g></g></g><g clip-path="url(#99720dbc44)"><path stroke-linecap="butt" transform="matrix(0, 0.726562, -0.726562, 0, 38.443107, 0.252346)" fill="none" stroke-linejoin="miter" d="M 0.00214716 1.002341 L 29.566664 1.002341 " stroke="#000000" stroke-width="2" stroke-opacity="1" stroke-miterlimit="4"/></g><g clip-path="url(#e283d6079b)"><path stroke-linecap="butt" transform="matrix(0.726562, 0, 0, 0.726562, 37.717935, 20.530571)" fill="none" stroke-linejoin="miter" d="M 0.00112159 1.000935 L 13.087143 1.000935 " stroke="#000000" stroke-width="2" stroke-opacity="1" stroke-miterlimit="4"/></g><g clip-path="url(#3dc244aefe)"><path stroke-linecap="butt" transform="matrix(0.726562, 0, 0, 0.726562, 37.717935, 0.00000096875)" fill="none" stroke-linejoin="miter" d="M 0.00112159 0.999999 L 13.087143 0.999999 " stroke="#000000" stroke-width="2" stroke-opacity="1" stroke-miterlimit="4"/></g></svg>