# Blender 4.2.1 LTS
# www.blender.org
o Cube
v 74.999977 75.000023 150.000000
v 75.000023 -74.999977 150.000000
v 277.499969 75.000092 0.000000
v 277.500031 -74.999908 0.000000
v -75.000023 74.999977 150.000000
v -74.999977 -75.000023 150.000000
v -206.250031 74.999931 0.000000
v -206.249969 -75.000069 0.000000
v 72.048325 44.250019 187.016052
v 72.048355 -44.249973 187.016052
v 261.504852 44.250080 0.000000
v 261.504852 -44.249912 0.000000
v 60.971954 44.250015 187.016052
v 60.971985 -44.249977 187.016052
v 60.971954 44.250015 98.516060
v 60.971985 -44.249977 98.516060
vn 0.5952 -0.0000 0.8036
vn -0.0000 -0.0000 -1.0000
vn -0.7526 -0.0000 0.6585
vn -0.0000 -0.0000 1.0000
vn -0.0000 1.0000 -0.0000
vn -0.0000 -1.0000 -0.0000
vn 0.7025 -0.0000 0.7117
vn -0.4409 -0.0000 -0.8975
vn -1.0000 -0.0000 -0.0000
vt 0.625000 0.000000
vt 0.375000 0.250000
vt 0.375000 0.000000
vt 0.625000 0.250000
vt 0.375000 0.500000
vt 0.625000 0.500000
vt 0.375000 0.750000
vt 0.625000 0.750000
vt 0.375000 1.000000
vt 0.125000 0.750000
vt 0.125000 0.500000
vt 0.875000 0.750000
vt 0.625000 1.000000
vt 0.875000 0.500000
s 0
f 2/1/1 3/2/1 1/3/1
f 4/4/2 7/5/2 3/2/2
f 8/6/3 5/7/3 7/5/3
f 6/8/4 1/9/4 5/7/4
f 7/5/5 1/10/5 3/11/5
f 8/6/6 2/12/6 6/8/6
f 10/1/7 11/2/7 9/3/7
f 12/4/8 15/5/8 11/2/8
f 16/6/9 13/7/9 15/5/9
f 14/8/4 9/9/4 13/7/4
f 15/5/5 9/10/5 11/11/5
f 16/6/6 10/12/6 14/8/6
f 2/1/1 4/4/1 3/2/1
f 4/4/2 8/6/2 7/5/2
f 8/6/3 6/8/3 5/7/3
f 6/8/4 2/13/4 1/9/4
f 7/5/5 5/7/5 1/10/5
f 8/6/6 4/14/6 2/12/6
f 10/1/7 12/4/7 11/2/7
f 12/4/8 16/6/8 15/5/8
f 16/6/9 14/8/9 13/7/9
f 14/8/4 10/13/4 9/9/4
f 15/5/5 13/7/5 9/10/5
f 16/6/6 12/14/6 10/12/6
