# Blender 4.2.1 LTS
# www.blender.org
mtllib long_tube.mtl
o Cube
v 77.268936 40.260006 -0.099981
v 77.268929 40.260006 19.900019
v 137.268936 40.260010 -0.099964
v 137.268936 40.260010 0.400036
v 77.268944 -39.739994 -0.099981
v 77.268936 -39.739994 19.900019
v 137.268936 -39.739990 -0.099964
v 137.268936 -39.739990 0.400036
vn -0.0000 1.0000 -0.0000
vn 1.0000 -0.0000 -0.0000
vn -0.0000 -1.0000 -0.0000
vn -1.0000 -0.0000 -0.0000
vn -0.0000 -0.0000 -1.0000
vn 0.3091 -0.0000 0.9510
vt 0.375000 0.000000
vt 0.625000 0.250000
vt 0.375000 0.250000
vt 0.375000 0.500000
vt 0.625000 0.500000
vt 0.375000 0.750000
vt 0.625000 0.750000
vt 0.375000 1.000000
vt 0.125000 0.750000
vt 0.125000 0.500000
vt 0.875000 0.500000
vt 0.625000 0.000000
vt 0.625000 1.000000
vt 0.875000 0.750000
s 0
usemtl Material.002
f 1/1/1 4/2/1 3/3/1
f 4/2/2 7/4/2 3/3/2
f 8/5/3 5/6/3 7/4/3
f 6/7/4 1/8/4 5/6/4
f 7/4/5 1/9/5 3/10/5
f 4/11/6 6/7/6 8/5/6
f 1/1/1 2/12/1 4/2/1
f 4/2/2 8/5/2 7/4/2
f 8/5/3 6/7/3 5/6/3
f 6/7/4 2/13/4 1/8/4
f 7/4/5 5/6/5 1/9/5
f 4/11/6 2/14/6 6/7/6
o Cylinder
v 77.268936 0.260004 25.100019
v -122.268951 0.259994 25.099976
v 77.268936 -2.198134 24.857914
v -122.268951 -2.198144 24.857868
v 77.268936 -4.561808 24.140902
v -122.268951 -4.561818 24.140858
v 77.268936 -6.740181 22.976536
v -122.268951 -6.740191 22.976492
v 77.268936 -8.649542 21.409565
v -122.268951 -8.649551 21.409519
v 77.268936 -10.216513 19.500204
v -122.268951 -10.216522 19.500160
v 77.268936 -11.380878 17.321831
v -122.268951 -11.380888 17.321787
v 77.268936 -12.097891 14.958157
v -122.268951 -12.097900 14.958115
v 77.268936 -12.339996 12.500019
v -122.268951 -12.340006 12.499976
v 77.268936 -12.097891 10.041881
v -122.268951 -12.097900 10.041838
v 77.268944 -11.380878 7.678207
v -122.268951 -11.380888 7.678164
v 77.268944 -10.216513 5.499833
v -122.268951 -10.216522 5.499790
v 77.268944 -8.649542 3.590473
v -122.268951 -8.649551 3.590429
v 77.268944 -6.740181 2.023501
v -122.268951 -6.740191 2.023458
v 77.268944 -4.561808 0.859137
v -122.268951 -4.561818 0.859093
v 77.268944 -2.198134 0.142124
v -122.268951 -2.198144 0.142080
v 77.268944 0.260004 -0.099981
v -122.268951 0.259994 -0.100025
v 77.268944 2.718142 0.142124
v -122.268951 2.718132 0.142080
v 77.268944 5.081816 0.859137
v -122.268951 5.081805 0.859093
v 77.268944 7.260190 2.023501
v -122.268951 7.260180 2.023458
v 77.268944 9.169550 3.590473
v -122.268951 9.169540 3.590429
v 77.268936 10.736523 5.499833
v -122.268951 10.736511 5.499790
v 77.268936 11.900887 7.678207
v -122.268951 11.900877 7.678164
v 77.268936 12.617899 10.041881
v -122.268951 12.617889 10.041838
v 77.268936 12.860004 12.500019
v -122.268951 12.859995 12.499976
v 77.268936 12.617899 14.958157
v -122.268951 12.617889 14.958115
v 77.268936 11.900887 17.321831
v -122.268951 11.900877 17.321787
v 77.268936 10.736523 19.500204
v -122.268951 10.736511 19.500160
v 77.268936 9.169550 21.409565
v -122.268951 9.169540 21.409519
v 77.268936 7.260190 22.976536
v -122.268951 7.260180 22.976492
v 77.268936 5.081816 24.140902
v -122.268951 5.081805 24.140858
v 77.268936 2.718142 24.857914
v -122.268951 2.718132 24.857868
vn -0.0000 -0.0980 0.9952
vn -0.0000 -0.2903 0.9569
vn -0.0000 -0.4714 0.8819
vn -0.0000 -0.6344 0.7730
vn -0.0000 -0.7730 0.6344
vn -0.0000 -0.8819 0.4714
vn -0.0000 -0.9569 0.2903
vn -0.0000 -0.9952 0.0980
vn -0.0000 -0.9952 -0.0980
vn -0.0000 -0.9569 -0.2903
vn -0.0000 -0.8819 -0.4714
vn -0.0000 -0.7730 -0.6344
vn -0.0000 -0.6344 -0.7730
vn -0.0000 -0.4714 -0.8819
vn -0.0000 -0.2903 -0.9569
vn -0.0000 -0.0980 -0.9952
vn -0.0000 0.0980 -0.9952
vn -0.0000 0.2903 -0.9569
vn -0.0000 0.4714 -0.8819
vn -0.0000 0.6344 -0.7730
vn -0.0000 0.7730 -0.6344
vn -0.0000 0.8819 -0.4714
vn -0.0000 0.9569 -0.2903
vn -0.0000 0.9952 -0.0980
vn -0.0000 0.9952 0.0980
vn -0.0000 0.9569 0.2903
vn -0.0000 0.8819 0.4714
vn -0.0000 0.7730 0.6344
vn -0.0000 0.6344 0.7730
vn -0.0000 0.4714 0.8819
vn -1.0000 -0.0000 -0.0000
vn -0.0000 0.2903 0.9569
vn -0.0000 0.0980 0.9952
vn 1.0000 -0.0000 -0.0000
vt 1.000000 1.000000
vt 0.968750 0.500000
vt 1.000000 0.500000
vt 0.968750 1.000000
vt 0.937500 0.500000
vt 0.937500 1.000000
vt 0.906250 0.500000
vt 0.875000 1.000000
vt 0.875000 0.500000
vt 0.843750 0.500000
vt 0.812500 1.000000
vt 0.812500 0.500000
vt 0.781250 0.500000
vt 0.781250 1.000000
vt 0.750000 0.500000
vt 0.750000 1.000000
vt 0.718750 0.500000
vt 0.718750 1.000000
vt 0.687500 0.500000
vt 0.687500 1.000000
vt 0.656250 0.500000
vt 0.625000 1.000000
vt 0.625000 0.500000
vt 0.593750 0.500000
vt 0.562500 1.000000
vt 0.562500 0.500000
vt 0.531250 0.500000
vt 0.500000 1.000000
vt 0.500000 0.500000
vt 0.468750 0.500000
vt 0.437500 1.000000
vt 0.437500 0.500000
vt 0.406250 0.500000
vt 0.406250 1.000000
vt 0.375000 0.500000
vt 0.375000 1.000000
vt 0.343750 0.500000
vt 0.343750 1.000000
vt 0.312500 0.500000
vt 0.312500 1.000000
vt 0.281250 0.500000
vt 0.281250 1.000000
vt 0.250000 0.500000
vt 0.218750 1.000000
vt 0.218750 0.500000
vt 0.187500 0.500000
vt 0.187500 1.000000
vt 0.156250 0.500000
vt 0.156250 1.000000
vt 0.125000 0.500000
vt 0.125000 1.000000
vt 0.093750 0.500000
vt 0.093750 1.000000
vt 0.062500 0.500000
vt 0.158156 0.028269
vt 0.471731 0.158156
vt 0.341844 0.471731
vt 0.062500 1.000000
vt 0.031250 0.500000
vt 0.031250 1.000000
vt 0.000000 0.500000
vt 0.796822 0.014612
vt 0.514612 0.203178
vt 0.703178 0.485388
vt 0.906250 1.000000
vt 0.843750 1.000000
vt 0.656250 1.000000
vt 0.593750 1.000000
vt 0.531250 1.000000
vt 0.468750 1.000000
vt 0.250000 1.000000
vt 0.296822 0.485388
vt 0.250000 0.490000
vt 0.203178 0.485388
vt 0.158156 0.471731
vt 0.116663 0.449553
vt 0.080294 0.419706
vt 0.050447 0.383337
vt 0.028269 0.341844
vt 0.014612 0.296822
vt 0.010000 0.250000
vt 0.014612 0.203178
vt 0.028269 0.158156
vt 0.050447 0.116663
vt 0.080294 0.080294
vt 0.116663 0.050447
vt 0.203178 0.014612
vt 0.250000 0.010000
vt 0.296822 0.014612
vt 0.341844 0.028269
vt 0.383337 0.050447
vt 0.419706 0.080294
vt 0.449553 0.116663
vt 0.485388 0.203178
vt 0.490000 0.250000
vt 0.485388 0.296822
vt 0.471731 0.341844
vt 0.449553 0.383337
vt 0.419706 0.419706
vt 0.383337 0.449553
vt 0.000000 1.000000
vt 0.750000 0.490000
vt 0.796822 0.485388
vt 0.841844 0.471731
vt 0.883337 0.449553
vt 0.919706 0.419706
vt 0.949553 0.383337
vt 0.971731 0.341844
vt 0.985388 0.296822
vt 0.990000 0.250000
vt 0.985388 0.203178
vt 0.971731 0.158156
vt 0.949553 0.116663
vt 0.919706 0.080294
vt 0.883337 0.050447
vt 0.841844 0.028269
vt 0.750000 0.010000
vt 0.703178 0.014612
vt 0.658156 0.028269
vt 0.616663 0.050447
vt 0.580294 0.080294
vt 0.550447 0.116663
vt 0.528269 0.158156
vt 0.510000 0.250000
vt 0.514612 0.296822
vt 0.528269 0.341844
vt 0.550447 0.383337
vt 0.580294 0.419706
vt 0.616663 0.449553
vt 0.658156 0.471731
s 0
usemtl Material.001
f 10/15/7 11/16/7 9/17/7
f 12/18/8 13/19/8 11/16/8
f 14/20/9 15/21/9 13/19/9
f 15/21/10 18/22/10 17/23/10
f 18/22/11 19/24/11 17/23/11
f 19/24/12 22/25/12 21/26/12
f 22/25/13 23/27/13 21/26/13
f 24/28/14 25/29/14 23/27/14
f 26/30/15 27/31/15 25/29/15
f 28/32/16 29/33/16 27/31/16
f 30/34/17 31/35/17 29/33/17
f 31/35/18 34/36/18 33/37/18
f 34/36/19 35/38/19 33/37/19
f 35/38/20 38/39/20 37/40/20
f 38/39/21 39/41/21 37/40/21
f 39/41/22 42/42/22 41/43/22
f 42/42/23 43/44/23 41/43/23
f 43/44/24 46/45/24 45/46/24
f 46/45/25 47/47/25 45/46/25
f 48/48/26 49/49/26 47/47/26
f 50/50/27 51/51/27 49/49/27
f 52/52/28 53/53/28 51/51/28
f 54/54/29 55/55/29 53/53/29
f 56/56/30 57/57/30 55/55/30
f 57/57/31 60/58/31 59/59/31
f 60/58/32 61/60/32 59/59/32
f 62/61/33 63/62/33 61/60/33
f 64/63/34 65/64/34 63/62/34
f 66/65/35 67/66/35 65/64/35
f 68/67/36 69/68/36 67/66/36
f 46/69/37 30/70/37 14/71/37
f 70/72/38 71/73/38 69/68/38
f 72/74/39 9/75/39 71/73/39
f 39/76/40 55/77/40 71/78/40
f 10/15/7 12/18/7 11/16/7
f 12/18/8 14/20/8 13/19/8
f 14/20/9 16/79/9 15/21/9
f 15/21/10 16/79/10 18/22/10
f 18/22/11 20/80/11 19/24/11
f 19/24/12 20/80/12 22/25/12
f 22/25/13 24/28/13 23/27/13
f 24/28/14 26/30/14 25/29/14
f 26/30/15 28/32/15 27/31/15
f 28/32/16 30/34/16 29/33/16
f 30/34/17 32/81/17 31/35/17
f 31/35/18 32/81/18 34/36/18
f 34/36/19 36/82/19 35/38/19
f 35/38/20 36/82/20 38/39/20
f 38/39/21 40/83/21 39/41/21
f 39/41/22 40/83/22 42/42/22
f 42/42/23 44/84/23 43/44/23
f 43/44/24 44/84/24 46/45/24
f 46/45/25 48/48/25 47/47/25
f 48/48/26 50/50/26 49/49/26
f 50/50/27 52/52/27 51/51/27
f 52/52/28 54/54/28 53/53/28
f 54/54/29 56/56/29 55/55/29
f 56/56/30 58/85/30 57/57/30
f 57/57/31 58/85/31 60/58/31
f 60/58/32 62/61/32 61/60/32
f 62/61/33 64/63/33 63/62/33
f 64/63/34 66/65/34 65/64/34
f 66/65/35 68/67/35 67/66/35
f 68/67/36 70/72/36 69/68/36
f 14/71/37 12/86/37 10/87/37
f 10/87/37 72/88/37 70/89/37
f 70/89/37 68/90/37 66/91/37
f 66/91/37 64/92/37 62/93/37
f 62/93/37 60/94/37 58/95/37
f 58/95/37 56/96/37 54/97/37
f 54/97/37 52/98/37 50/99/37
f 50/99/37 48/100/37 46/69/37
f 46/69/37 44/101/37 42/102/37
f 42/102/37 40/103/37 38/104/37
f 38/104/37 36/105/37 34/106/37
f 34/106/37 32/107/37 30/70/37
f 30/70/37 28/108/37 26/109/37
f 26/109/37 24/110/37 22/111/37
f 22/111/37 20/112/37 18/113/37
f 18/113/37 16/114/37 14/71/37
f 14/71/37 10/87/37 70/89/37
f 70/89/37 66/91/37 62/93/37
f 62/93/37 58/95/37 54/97/37
f 54/97/37 50/99/37 46/69/37
f 46/69/37 42/102/37 38/104/37
f 38/104/37 34/106/37 30/70/37
f 30/70/37 26/109/37 22/111/37
f 22/111/37 18/113/37 14/71/37
f 14/71/37 70/89/37 62/93/37
f 62/93/37 54/97/37 46/69/37
f 46/69/37 38/104/37 30/70/37
f 30/70/37 22/111/37 14/71/37
f 14/71/37 62/93/37 46/69/37
f 70/72/38 72/74/38 71/73/38
f 72/74/39 10/115/39 9/75/39
f 71/78/40 9/116/40 11/117/40
f 11/117/40 13/118/40 15/119/40
f 15/119/40 17/120/40 19/121/40
f 19/121/40 21/122/40 23/123/40
f 23/123/40 25/124/40 27/125/40
f 27/125/40 29/126/40 31/127/40
f 31/127/40 33/128/40 35/129/40
f 35/129/40 37/130/40 39/76/40
f 39/76/40 41/131/40 43/132/40
f 43/132/40 45/133/40 47/134/40
f 47/134/40 49/135/40 51/136/40
f 51/136/40 53/137/40 55/77/40
f 55/77/40 57/138/40 59/139/40
f 59/139/40 61/140/40 63/141/40
f 63/141/40 65/142/40 67/143/40
f 67/143/40 69/144/40 71/78/40
f 71/78/40 11/117/40 15/119/40
f 15/119/40 19/121/40 23/123/40
f 23/123/40 27/125/40 31/127/40
f 31/127/40 35/129/40 39/76/40
f 39/76/40 43/132/40 47/134/40
f 47/134/40 51/136/40 55/77/40
f 55/77/40 59/139/40 63/141/40
f 63/141/40 67/143/40 71/78/40
f 71/78/40 15/119/40 23/123/40
f 23/123/40 31/127/40 39/76/40
f 39/76/40 47/134/40 55/77/40
f 55/77/40 63/141/40 71/78/40
f 71/78/40 23/123/40 39/76/40
