# Blender 4.2.1 LTS
# www.blender.org
mtllib xxl_tube.mtl
o Cube
v 147.268936 40.000004 0.000019
v 147.268936 40.000004 20.000019
v 207.268936 40.000008 0.000036
v 207.268936 40.000008 0.500036
v 147.268936 -39.999996 0.000019
v 147.268936 -39.999996 20.000019
v 207.268936 -39.999992 0.000036
v 207.268936 -39.999992 0.500036
vn -0.0000 1.0000 -0.0000
vn 1.0000 -0.0000 -0.0000
vn -0.0000 -1.0000 -0.0000
vn -1.0000 -0.0000 -0.0000
vn -0.0000 -0.0000 -1.0000
vn 0.3091 -0.0000 0.9510
vt 0.375000 0.000000
vt 0.625000 0.250000
vt 0.375000 0.250000
vt 0.375000 0.500000
vt 0.625000 0.500000
vt 0.375000 0.750000
vt 0.625000 0.750000
vt 0.375000 1.000000
vt 0.125000 0.750000
vt 0.125000 0.500000
vt 0.875000 0.500000
vt 0.625000 0.000000
vt 0.625000 1.000000
vt 0.875000 0.750000
s 0
usemtl Material.002
f 1/1/1 4/2/1 3/3/1
f 4/2/2 7/4/2 3/3/2
f 8/5/3 5/6/3 7/4/3
f 6/7/4 1/8/4 5/6/4
f 7/4/5 1/9/5 3/10/5
f 4/11/6 6/7/6 8/5/6
f 1/1/1 2/12/1 4/2/1
f 4/2/2 8/5/2 7/4/2
f 8/5/3 6/7/3 5/6/3
f 6/7/4 2/13/4 1/8/4
f 7/4/5 5/6/5 1/9/5
f 4/11/6 2/14/6 6/7/6
o Cylinder
v 147.268936 0.000004 25.200020
v -212.268951 -0.000006 25.199976
v 147.268936 -2.458134 24.957914
v -212.268951 -2.458144 24.957870
v 147.268936 -4.821807 24.240902
v -212.268951 -4.821818 24.240860
v 147.268936 -7.000181 23.076538
v -212.268951 -7.000190 23.076492
v 147.268936 -8.909541 21.509565
v -212.268951 -8.909551 21.509521
v 147.268936 -10.476513 19.600204
v -212.268951 -10.476522 19.600163
v 147.268936 -11.640878 17.421831
v -212.268951 -11.640887 17.421787
v 147.268936 -12.357890 15.058157
v -212.268951 -12.357900 15.058115
v 147.268936 -12.599996 12.600019
v -212.268951 -12.600005 12.599977
v 147.268936 -12.357890 10.141881
v -212.268951 -12.357900 10.141838
v 147.268951 -11.640878 7.778207
v -212.268951 -11.640887 7.778164
v 147.268951 -10.476513 5.599833
v -212.268951 -10.476522 5.599791
v 147.268951 -8.909541 3.690474
v -212.268951 -8.909551 3.690431
v 147.268951 -7.000181 2.123502
v -212.268951 -7.000190 2.123459
v 147.268951 -4.821807 0.959137
v -212.268951 -4.821818 0.959094
v 147.268951 -2.458134 0.242125
v -212.268951 -2.458144 0.242082
v 147.268951 0.000004 0.000019
v -212.268951 -0.000006 -0.000024
v 147.268951 2.458143 0.242125
v -212.268951 2.458132 0.242082
v 147.268951 4.821816 0.959137
v -212.268951 4.821805 0.959094
v 147.268951 7.000190 2.123502
v -212.268951 7.000180 2.123459
v 147.268951 8.909551 3.690474
v -212.268951 8.909541 3.690431
v 147.268936 10.476522 5.599833
v -212.268951 10.476512 5.599791
v 147.268936 11.640887 7.778207
v -212.268951 11.640877 7.778164
v 147.268936 12.357900 10.141881
v -212.268951 12.357890 10.141838
v 147.268936 12.600005 12.600019
v -212.268951 12.599994 12.599977
v 147.268936 12.357900 15.058157
v -212.268951 12.357890 15.058115
v 147.268936 11.640887 17.421831
v -212.268951 11.640877 17.421787
v 147.268936 10.476522 19.600204
v -212.268951 10.476512 19.600163
v 147.268936 8.909551 21.509565
v -212.268951 8.909541 21.509521
v 147.268936 7.000190 23.076538
v -212.268951 7.000180 23.076492
v 147.268936 4.821816 24.240902
v -212.268951 4.821805 24.240860
v 147.268936 2.458143 24.957914
v -212.268951 2.458132 24.957870
vn -0.0000 -0.0980 0.9952
vn -0.0000 -0.2903 0.9569
vn -0.0000 -0.4714 0.8819
vn -0.0000 -0.6344 0.7730
vn -0.0000 -0.7730 0.6344
vn -0.0000 -0.8819 0.4714
vn -0.0000 -0.9569 0.2903
vn -0.0000 -0.9952 0.0980
vn -0.0000 -0.9952 -0.0980
vn -0.0000 -0.9569 -0.2903
vn -0.0000 -0.8819 -0.4714
vn -0.0000 -0.7730 -0.6344
vn -0.0000 -0.6344 -0.7730
vn -0.0000 -0.4714 -0.8819
vn -0.0000 -0.2903 -0.9569
vn -0.0000 -0.0980 -0.9952
vn -0.0000 0.0980 -0.9952
vn -0.0000 0.2903 -0.9569
vn -0.0000 0.4714 -0.8819
vn -0.0000 0.6344 -0.7730
vn -0.0000 0.7730 -0.6344
vn -0.0000 0.8819 -0.4714
vn -0.0000 0.9569 -0.2903
vn -0.0000 0.9952 -0.0980
vn -0.0000 0.9952 0.0980
vn -0.0000 0.9569 0.2903
vn -0.0000 0.8819 0.4714
vn -0.0000 0.7730 0.6344
vn -0.0000 0.6344 0.7730
vn -0.0000 0.4714 0.8819
vn -1.0000 -0.0000 -0.0000
vn -0.0000 0.2903 0.9569
vn -0.0000 0.0980 0.9952
vn 1.0000 -0.0000 -0.0000
vn -1.0000 -0.0001 -0.0000
vn -1.0000 0.0001 -0.0000
vt 1.000000 0.500000
vt 0.968750 1.000000
vt 0.968750 0.500000
vt 0.937500 0.500000
vt 0.937500 1.000000
vt 0.906250 0.500000
vt 0.906250 1.000000
vt 0.875000 0.500000
vt 0.843750 1.000000
vt 0.843750 0.500000
vt 0.812500 1.000000
vt 0.812500 0.500000
vt 0.781250 0.500000
vt 0.781250 1.000000
vt 0.750000 0.500000
vt 0.718750 1.000000
vt 0.718750 0.500000
vt 0.687500 0.500000
vt 0.687500 1.000000
vt 0.656250 0.500000
vt 0.656250 1.000000
vt 0.625000 0.500000
vt 0.625000 1.000000
vt 0.593750 0.500000
vt 0.593750 1.000000
vt 0.562500 0.500000
vt 0.562500 1.000000
vt 0.531250 0.500000
vt 0.500000 1.000000
vt 0.500000 0.500000
vt 0.468750 0.500000
vt 0.468750 1.000000
vt 0.437500 0.500000
vt 0.437500 1.000000
vt 0.406250 0.500000
vt 0.406250 1.000000
vt 0.375000 0.500000
vt 0.375000 1.000000
vt 0.343750 0.500000
vt 0.343750 1.000000
vt 0.312500 0.500000
vt 0.312500 1.000000
vt 0.281250 0.500000
vt 0.281250 1.000000
vt 0.250000 0.500000
vt 0.250000 1.000000
vt 0.218750 0.500000
vt 0.218750 1.000000
vt 0.187500 0.500000
vt 0.187500 1.000000
vt 0.156250 0.500000
vt 0.156250 1.000000
vt 0.125000 0.500000
vt 0.125000 1.000000
vt 0.093750 0.500000
vt 0.093750 1.000000
vt 0.062500 0.500000
vt 0.158156 0.028269
vt 0.471731 0.158156
vt 0.341844 0.471731
vt 0.062500 1.000000
vt 0.031250 0.500000
vt 0.031250 1.000000
vt 0.000000 0.500000
vt 0.796822 0.014612
vt 0.514612 0.203178
vt 0.703178 0.485388
vt 1.000000 1.000000
vt 0.875000 1.000000
vt 0.750000 1.000000
vt 0.531250 1.000000
vt 0.296822 0.485388
vt 0.250000 0.490000
vt 0.203178 0.485388
vt 0.158156 0.471731
vt 0.116663 0.449553
vt 0.080294 0.419706
vt 0.050447 0.383337
vt 0.028269 0.341844
vt 0.014612 0.296822
vt 0.010000 0.250000
vt 0.014612 0.203178
vt 0.028269 0.158156
vt 0.050447 0.116663
vt 0.080294 0.080294
vt 0.116663 0.050447
vt 0.203178 0.014612
vt 0.250000 0.010000
vt 0.296822 0.014612
vt 0.341844 0.028269
vt 0.383337 0.050447
vt 0.419706 0.080294
vt 0.449553 0.116663
vt 0.485388 0.203178
vt 0.490000 0.250000
vt 0.485388 0.296822
vt 0.471731 0.341844
vt 0.449553 0.383337
vt 0.419706 0.419706
vt 0.383337 0.449553
vt 0.000000 1.000000
vt 0.750000 0.490000
vt 0.796822 0.485388
vt 0.841844 0.471731
vt 0.883337 0.449553
vt 0.919706 0.419706
vt 0.949553 0.383337
vt 0.971731 0.341844
vt 0.985388 0.296822
vt 0.990000 0.250000
vt 0.985388 0.203178
vt 0.971731 0.158156
vt 0.949553 0.116663
vt 0.919706 0.080294
vt 0.883337 0.050447
vt 0.841844 0.028269
vt 0.750000 0.010000
vt 0.703178 0.014612
vt 0.658156 0.028269
vt 0.616663 0.050447
vt 0.580294 0.080294
vt 0.550447 0.116663
vt 0.528269 0.158156
vt 0.510000 0.250000
vt 0.514612 0.296822
vt 0.528269 0.341844
vt 0.550447 0.383337
vt 0.580294 0.419706
vt 0.616663 0.449553
vt 0.658156 0.471731
s 0
usemtl Material.001
f 9/15/7 12/16/7 11/17/7
f 12/16/8 13/18/8 11/17/8
f 14/19/9 15/20/9 13/18/9
f 16/21/10 17/22/10 15/20/10
f 17/22/11 20/23/11 19/24/11
f 19/24/12 22/25/12 21/26/12
f 22/25/13 23/27/13 21/26/13
f 24/28/14 25/29/14 23/27/14
f 25/29/15 28/30/15 27/31/15
f 28/30/16 29/32/16 27/31/16
f 30/33/17 31/34/17 29/32/17
f 32/35/18 33/36/18 31/34/18
f 34/37/19 35/38/19 33/36/19
f 36/39/20 37/40/20 35/38/20
f 38/41/21 39/42/21 37/40/21
f 39/42/22 42/43/22 41/44/22
f 42/43/23 43/45/23 41/44/23
f 44/46/24 45/47/24 43/45/24
f 46/48/25 47/49/25 45/47/25
f 48/50/26 49/51/26 47/49/26
f 50/52/27 51/53/27 49/51/27
f 52/54/28 53/55/28 51/53/28
f 54/56/29 55/57/29 53/55/29
f 56/58/30 57/59/30 55/57/30
f 58/60/31 59/61/31 57/59/31
f 60/62/32 61/63/32 59/61/32
f 62/64/33 63/65/33 61/63/33
f 64/66/34 65/67/34 63/65/34
f 66/68/35 67/69/35 65/67/35
f 68/70/36 69/71/36 67/69/36
f 46/72/37 30/73/37 14/74/37
f 70/75/38 71/76/38 69/71/38
f 72/77/39 9/78/39 71/76/39
f 39/79/40 55/80/40 71/81/40
f 9/15/7 10/82/7 12/16/7
f 12/16/8 14/19/8 13/18/8
f 14/19/9 16/21/9 15/20/9
f 16/21/10 18/83/10 17/22/10
f 17/22/11 18/83/11 20/23/11
f 19/24/12 20/23/12 22/25/12
f 22/25/13 24/28/13 23/27/13
f 24/28/14 26/84/14 25/29/14
f 25/29/15 26/84/15 28/30/15
f 28/30/16 30/33/16 29/32/16
f 30/33/17 32/35/17 31/34/17
f 32/35/18 34/37/18 33/36/18
f 34/37/19 36/39/19 35/38/19
f 36/39/20 38/41/20 37/40/20
f 38/41/21 40/85/21 39/42/21
f 39/42/22 40/85/22 42/43/22
f 42/43/23 44/46/23 43/45/23
f 44/46/24 46/48/24 45/47/24
f 46/48/25 48/50/25 47/49/25
f 48/50/26 50/52/26 49/51/26
f 50/52/27 52/54/27 51/53/27
f 52/54/28 54/56/28 53/55/28
f 54/56/29 56/58/29 55/57/29
f 56/58/30 58/60/30 57/59/30
f 58/60/31 60/62/31 59/61/31
f 60/62/32 62/64/32 61/63/32
f 62/64/33 64/66/33 63/65/33
f 64/66/34 66/68/34 65/67/34
f 66/68/35 68/70/35 67/69/35
f 68/70/36 70/75/36 69/71/36
f 14/74/37 12/86/37 10/87/37
f 10/87/37 72/88/37 70/89/37
f 70/89/41 68/90/41 66/91/41
f 66/91/37 64/92/37 62/93/37
f 62/93/41 60/94/41 58/95/41
f 58/95/37 56/96/37 54/97/37
f 54/97/37 52/98/37 50/99/37
f 50/99/41 48/100/41 46/72/41
f 46/72/37 44/101/37 42/102/37
f 42/102/37 40/103/37 38/104/37
f 38/104/42 36/105/42 34/106/42
f 34/106/37 32/107/37 30/73/37
f 30/73/37 28/108/37 26/109/37
f 26/109/42 24/110/42 22/111/42
f 22/111/37 20/112/37 18/113/37
f 18/113/42 16/114/42 14/74/42
f 14/74/37 10/87/37 70/89/37
f 70/89/37 66/91/37 62/93/37
f 62/93/37 58/95/37 54/97/37
f 54/97/37 50/99/37 46/72/37
f 46/72/37 42/102/37 38/104/37
f 38/104/37 34/106/37 30/73/37
f 30/73/37 26/109/37 22/111/37
f 22/111/37 18/113/37 14/74/37
f 14/74/37 70/89/37 62/93/37
f 62/93/37 54/97/37 46/72/37
f 46/72/37 38/104/37 30/73/37
f 30/73/37 22/111/37 14/74/37
f 14/74/37 62/93/37 46/72/37
f 70/75/38 72/77/38 71/76/38
f 72/77/39 10/115/39 9/78/39
f 71/81/40 9/116/40 11/117/40
f 11/117/40 13/118/40 15/119/40
f 15/119/40 17/120/40 19/121/40
f 19/121/40 21/122/40 23/123/40
f 23/123/40 25/124/40 27/125/40
f 27/125/40 29/126/40 31/127/40
f 31/127/40 33/128/40 35/129/40
f 35/129/40 37/130/40 39/79/40
f 39/79/40 41/131/40 43/132/40
f 43/132/40 45/133/40 47/134/40
f 47/134/40 49/135/40 51/136/40
f 51/136/40 53/137/40 55/80/40
f 55/80/40 57/138/40 59/139/40
f 59/139/40 61/140/40 63/141/40
f 63/141/40 65/142/40 67/143/40
f 67/143/40 69/144/40 71/81/40
f 71/81/40 11/117/40 15/119/40
f 15/119/40 19/121/40 23/123/40
f 23/123/40 27/125/40 31/127/40
f 31/127/40 35/129/40 39/79/40
f 39/79/40 43/132/40 47/134/40
f 47/134/40 51/136/40 55/80/40
f 55/80/40 59/139/40 63/141/40
f 63/141/40 67/143/40 71/81/40
f 71/81/40 15/119/40 23/123/40
f 23/123/40 31/127/40 39/79/40
f 39/79/40 47/134/40 55/80/40
f 55/80/40 63/141/40 71/81/40
f 71/81/40 23/123/40 39/79/40
