<?xml version="1.0" encoding="UTF-8" standalone="no"?>
<!-- Uploaded to: SVG Repo, www.svgrepo.com, Transformed by: SVG Repo Mixer Tools -->

<svg
   height="107px"
   width="107px"
   version="1.1"
   id="Capa_1"
   viewBox="0 0 257.567 257.567"
   xml:space="preserve"
   fill="#c2c2c2"
   stroke="#c2c2c2"
   sodipodi:docname="canvas panel.svg"
   inkscape:version="1.3.2 (091e20e, 2023-11-25, custom)"
   xmlns:inkscape="http://www.inkscape.org/namespaces/inkscape"
   xmlns:sodipodi="http://sodipodi.sourceforge.net/DTD/sodipodi-0.dtd"
   xmlns="http://www.w3.org/2000/svg"
   xmlns:svg="http://www.w3.org/2000/svg"><defs
   id="defs1" /><sodipodi:namedview
   id="namedview1"
   pagecolor="#505050"
   bordercolor="#eeeeee"
   borderopacity="1"
   inkscape:showpageshadow="0"
   inkscape:pageopacity="0"
   inkscape:pagecheckerboard="0"
   inkscape:deskcolor="#505050"
   inkscape:zoom="7.2523364"
   inkscape:cx="53.431057"
   inkscape:cy="75.561856"
   inkscape:window-width="1920"
   inkscape:window-height="991"
   inkscape:window-x="-9"
   inkscape:window-y="-9"
   inkscape:window-maximized="1"
   inkscape:current-layer="SVGRepo_iconCarrier" />

<g
   id="SVGRepo_bgCarrier"
   stroke-width="0" />

<g
   id="SVGRepo_tracerCarrier"
   stroke-linecap="round"
   stroke-linejoin="round" />

<g
   id="SVGRepo_iconCarrier"> <g
   id="g1"
   style="stroke-width:6.77618;stroke-dasharray:none"
   transform="matrix(0.98400805,0,0,0.97430313,3.0328552,3.3010266)"> <path
   style="fill:#c2c2c2;stroke-width:6.77618;stroke-dasharray:none"
   d="m 226.657,97.909 c -0.033,-0.462 -0.12,-0.908 -0.267,-1.354 -0.065,-0.179 -0.114,-0.359 -0.196,-0.544 -0.261,-0.571 -0.593,-1.115 -1.055,-1.577 v 0 0 c 0,-0.005 -0.005,-0.011 -0.005,-0.011 L 132.3,1.594 C 131.832,1.126 131.277,0.794 130.701,0.528 130.543,0.457 130.386,0.414 130.222,0.359 129.76,0.196 129.286,0.098 128.797,0.071 128.683,0.06 128.574,0 128.46,0 H 67.113 C 47.108,0 30.839,16.274 30.839,36.279 v 185.015 c 0,20.005 16.274,36.273 36.273,36.273 h 123.342 c 19.999,0 36.273,-16.268 36.273,-36.273 V 98.273 c 0,-0.125 -0.065,-0.239 -0.07,-0.364 z m -92.769,-79.34 74.27,74.265 h -48.875 c -14.006,0 -25.395,-11.389 -25.395,-25.395 0,0 0,-48.87 0,-48.87 z m 56.566,228.114 H 67.113 c -14.006,0 -25.395,-11.395 -25.395,-25.395 V 36.279 c 0,-14.006 11.395,-25.4 25.395,-25.4 H 123.01 V 67.44 c 0,20.005 16.274,36.273 36.273,36.273 h 56.566 v 117.576 c 0,14.005 -11.389,25.394 -25.395,25.394 z"
   id="path1" /> </g> </g>

</svg>
