<?xml version="1.0" encoding="UTF-8" standalone="no"?>
<!-- Uploaded to: SVG Repo, www.svgrepo.com, Transformed by: SVG Repo Mixer Tools -->

<svg
   fill="#c2c2c2"
   width="107px"
   height="107px"
   viewBox="-3.2 -3.2 38.40 38.40"
   version="1.1"
   stroke="#c2c2c2"
   stroke-width="0.00032"
   id="svg1"
   sodipodi:docname="properties panel.svg"
   inkscape:version="1.3.2 (091e20e, 2023-11-25, custom)"
   xmlns:inkscape="http://www.inkscape.org/namespaces/inkscape"
   xmlns:sodipodi="http://sodipodi.sourceforge.net/DTD/sodipodi-0.dtd"
   xmlns="http://www.w3.org/2000/svg"
   xmlns:svg="http://www.w3.org/2000/svg">
  <defs
     id="defs1" />
  <sodipodi:namedview
     id="namedview1"
     pagecolor="#505050"
     bordercolor="#eeeeee"
     borderopacity="1"
     inkscape:showpageshadow="0"
     inkscape:pageopacity="0"
     inkscape:pagecheckerboard="0"
     inkscape:deskcolor="#505050"
     inkscape:zoom="7.2523364"
     inkscape:cx="53.431057"
     inkscape:cy="53.5"
     inkscape:window-width="1920"
     inkscape:window-height="991"
     inkscape:window-x="-9"
     inkscape:window-y="-9"
     inkscape:window-maximized="1"
     inkscape:current-layer="svg1" />
  <g
     id="SVGRepo_bgCarrier"
     stroke-width="0" />
  <g
     id="SVGRepo_tracerCarrier"
     stroke-linecap="round"
     stroke-linejoin="round" />
  <g
     id="SVGRepo_iconCarrier"
     transform="matrix(1.3761868,0,0,1.3761868,0.59598021,-5.7345855)">
    <title
       id="title1">wrench</title>
    <path
       d="M 7.719,12.375 8.032,9.719 3.813,5.438 C 4.719,5 5.751,4.719 6.844,4.719 c 3.781,0 6.844,3.031 6.844,6.844 0,0.563 -0.094,1.188 -0.219,1.75 l 7.781,7.75 c 1.406,1.438 1.531,3.625 0.25,4.906 -1.281,1.281 -3.5,1.188 -4.938,-0.25 L 8.968,18.063 c -0.688,0.219 -1.375,0.375 -2.125,0.375 -3.781,0 -6.844,-3.094 -6.844,-6.875 0,-1.063 0.219,-2 0.625,-2.906 l 4.344,4.406 z"
       id="path1" />
  </g>
</svg>
