<?xml version="1.0" encoding="UTF-8"?>
<svg id="Layer_2" data-name="Layer 2" xmlns="http://www.w3.org/2000/svg" viewBox="0 0 68.66 68.66">
  <defs>
    <style>
      .cls-1 {
        fill: #c2c2c2;
        stroke: #c2c2c2;
        stroke-linecap: round;
        stroke-linejoin: round;
        stroke-width: 4px;
      }
    </style>
  </defs>
  <g id="Splash_Screen" data-name="Splash Screen">
    <path class="cls-1" d="M58.5,2H10.16C5.65,2,2,5.65,2,10.16v48.34c0,4.51,3.65,8.16,8.16,8.16h48.34c4.51,0,8.16-3.65,8.16-8.16V10.16c0-4.51-3.65-8.16-8.16-8.16ZM63.79,22.43c-6.73,16.14-17.13,29.09-31.15,39.5-1.63,1.21-4.8.77-6.06-.78-4.9-6.07-8.34-14.07-15.07-18.37-5.42-3.45-.39-12.11,5.05-8.63,6.55,4.18,10.16,10.43,14.47,16.45,10.08-8.29,18.06-18.69,23.12-30.82,2.44-5.86,12.12-3.27,9.64,2.66Z"/>
  </g>
</svg>